<?xml version="1.0" encoding="UTF-8" standalone="no"?>
<svg viewBox="0 0 7288 5928"
 xmlns="http://www.w3.org/2000/svg" xmlns:xlink="http://www.w3.org/1999/xlink" version="1.2" baseProfile="tiny">
<title>PixInsight SVG Document</title>
<desc>Generated with PixInsight Core 1.8.9-3 (x64)</desc>
<defs>
</defs>
<g fill="none" stroke="black" stroke-width="1" fill-rule="evenodd" stroke-linecap="square" stroke-linejoin="bevel" >

<g fill="none" stroke="#000000" stroke-opacity="1" stroke-width="1" stroke-linecap="square" stroke-linejoin="bevel" transform="matrix(1,0,0,1,0,0)"
font-family="SF Pro Text" font-size="12" font-weight="400" font-style="normal" 
>
</g>

<g fill="none" stroke="#ffffff" stroke-opacity="0.501961" stroke-width="1" stroke-linecap="square" stroke-linejoin="miter" stroke-miterlimit="2" transform="matrix(1,0,0,1,0,0)"
font-family="SF Pro Text" font-size="12" font-weight="400" font-style="normal" 
>
<polyline fill="none" vector-effect="none" points="-2033.96,-70.492 -1844.1,-97.5726 -1654.19,-124.074 -1464.23,-149.995 -1274.21,-175.334 -1084.14,-200.09 -894.015,-224.262 -703.831,-247.845 -513.589,-270.836 -323.287,-293.226 -132.932,-315.002 57.4596,-336.151 247.871,-356.699 438.308,-376.713 628.777,-396.226 819.282,-415.23 1009.83,-433.712 1200.41,-451.659 1391.02,-469.063 1581.68,-485.92 1772.37,-502.225 1963.1,-517.975 2153.86,-533.167 2344.66,-547.8 2535.49,-561.872 2726.36,-575.38 2917.26,-588.324 3108.19,-600.703 3299.15,-612.514 3490.15,-623.756 3681.17,-634.43 3872.23,-644.532 4063.32,-654.064 4254.44,-663.023 4445.59,-671.408 4636.77,-679.218 4827.97,-686.452 5019.21,-693.109 5210.47,-699.188 5401.77,-704.687 5593.09,-709.604 5784.45,-713.937 5975.83,-717.685 6167.24,-720.843 6358.69,-723.409 6550.16,-725.38 6741.66,-726.753 6933.19,-727.53 7124.74,-727.719 7316.31,-727.328 " />
<polyline fill="none" vector-effect="none" points="-1830.28,1323.1 -1644.72,1296.52 -1459.12,1270.52 -1273.47,1245.08 -1087.77,1220.23 -902.018,1195.95 -716.221,1172.25 -530.376,1149.13 -344.481,1126.58 -158.533,1104.62 27.4751,1083.2 213.559,1062.34 399.711,1042.04 585.912,1022.29 772.154,1003.09 958.432,984.417 1144.75,966.279 1331.09,948.677 1517.47,931.613 1703.88,915.09 1890.33,899.112 2076.81,883.681 2263.32,868.798 2449.86,854.467 2636.44,840.689 2823.04,827.466 3009.68,814.799 3196.35,802.689 3383.05,791.139 3569.78,780.148 3756.54,769.718 3943.33,759.85 4130.14,750.546 4316.99,741.806 4503.86,733.633 4690.77,726.026 4877.69,718.987 5064.65,712.518 5251.63,706.62 5438.65,701.294 5625.68,696.544 5812.75,692.37 5999.84,688.775 6186.96,685.764 6374.11,683.338 6561.29,681.502 6748.5,680.257 6935.73,679.597 7122.98,679.509 7310.24,679.978 " />
<polyline fill="none" vector-effect="none" points="-1626.32,2715.79 -1445.02,2689.69 -1263.68,2664.14 -1082.28,2639.15 -900.836,2614.71 -719.337,2590.84 -537.789,2567.53 -356.192,2544.77 -174.548,2522.58 7.1412,2500.94 188.875,2479.85 370.651,2459.32 552.471,2439.35 734.334,2419.92 916.241,2401.03 1098.19,2382.69 1280.18,2364.9 1462.22,2347.64 1644.29,2330.93 1826.41,2314.76 2008.57,2299.13 2190.76,2284.05 2372.99,2269.5 2555.26,2255.51 2737.56,2242.06 2919.89,2229.15 3102.26,2216.8 3284.66,2204.99 3467.1,2193.73 3649.56,2183.02 3832.05,2172.86 4014.58,2163.26 4197.13,2154.21 4379.71,2145.71 4562.31,2137.77 4744.95,2130.39 4927.61,2123.56 5110.29,2117.3 5293,2111.59 5475.73,2106.45 5658.49,2101.87 5841.27,2097.85 6024.07,2094.4 6206.9,2091.51 6389.75,2089.19 6572.62,2087.43 6755.51,2086.23 6938.42,2085.59 7121.35,2085.52 7304.3,2086 " />
<polyline fill="none" vector-effect="none" points="-1422.3,4108.07 -1245.29,4082.41 -1068.22,4057.3 -891.112,4032.74 -713.952,4008.73 -536.743,3985.26 -359.485,3962.34 -182.179,3939.97 -4.82603,3918.15 172.574,3896.88 350.021,3876.17 527.513,3855.99 705.05,3836.37 882.631,3817.29 1060.26,3798.76 1237.92,3780.77 1415.63,3763.32 1593.38,3746.41 1771.18,3730.04 1949.01,3714.21 2126.88,3698.92 2304.79,3684.16 2482.74,3669.95 2660.73,3656.27 2838.75,3643.13 3016.81,3630.53 3194.91,3618.47 3373.04,3606.94 3551.2,3595.96 3729.4,3585.52 3907.62,3575.62 4085.88,3566.26 4264.16,3557.45 4442.47,3549.18 4620.81,3541.45 4799.17,3534.26 4977.55,3527.63 5155.96,3521.54 5334.38,3515.99 5512.83,3511 5691.29,3506.55 5869.78,3502.66 6048.29,3499.32 6226.81,3496.53 6405.36,3494.3 6583.92,3492.62 6762.51,3491.5 6941.11,3490.93 7119.73,3490.92 7298.36,3491.45 " />
<polyline fill="none" vector-effect="none" points="-1218.15,5500.69 -1045.41,5475.53 -872.62,5450.89 -699.786,5426.78 -526.907,5403.19 -353.987,5380.13 -181.028,5357.59 -8.02313,5335.59 165.039,5314.16 338.15,5293.28 511.304,5272.95 684.501,5253.16 857.742,5233.92 1031.03,5215.21 1204.35,5197.04 1377.72,5179.41 1551.14,5162.31 1724.59,5145.75 1898.09,5129.71 2071.62,5114.21 2245.2,5099.25 2418.81,5084.81 2592.47,5070.9 2766.16,5057.51 2939.9,5044.66 3113.67,5032.33 3287.48,5020.53 3461.32,5009.26 3635.2,4998.52 3809.11,4988.31 3983.05,4978.63 4157.02,4969.49 4331.02,4960.87 4505.05,4952.79 4679.1,4945.25 4853.18,4938.24 5027.28,4931.76 5201.4,4925.83 5375.54,4920.43 5549.7,4915.58 5723.88,4911.27 5898.09,4907.52 6072.32,4904.31 6246.57,4901.65 6420.84,4899.55 6595.12,4897.99 6769.42,4896.97 6943.72,4896.49 7118.03,4896.56 7292.35,4897.17 " />
<polyline fill="none" vector-effect="none" points="-2033.96,-70.492 -1980.43,296.034 -1926.89,662.495 -1873.32,1028.89 -1819.72,1395.23 -1766.11,1761.49 -1712.47,2127.7 -1658.83,2493.85 -1605.19,2859.96 -1551.55,3226.05 -1497.91,3592.13 -1444.26,3958.22 -1390.6,4324.32 -1336.93,4690.46 -1283.25,5056.64 -1229.56,5422.89 -1175.86,5789.18 -1122.17,6155.5 -1068.49,6521.86 " />
<polyline fill="none" vector-effect="none" points="-606.48,-259.685 -561.545,107.754 -516.593,475.163 -471.545,842.506 -426.336,1209.83 -381.065,1576.97 -335.832,1943.95 -290.632,2310.91 -245.448,2677.83 -200.27,3044.74 -155.095,3411.64 -109.916,3778.55 -64.7319,4145.48 -19.5364,4512.44 25.6765,4879.46 70.9193,5246.56 116.244,5613.82 161.508,5981.1 206.71,6348.41 " />
<polyline fill="none" vector-effect="none" points="823.764,-415.671 860.3,-47.3798 896.82,320.683 933.387,688.583 970.037,1056.4 1006.75,1424.14 1043.48,1791.8 1080.21,2159.42 1116.93,2527.02 1153.65,2894.62 1190.36,3262.23 1227.07,3629.86 1263.79,3997.53 1300.52,4365.24 1337.25,4733.01 1374,5100.85 1410.75,5468.78 1447.51,5836.78 1484.28,6204.85 " />
<polyline fill="none" vector-effect="none" points="2255.99,-541.07 2284.16,-172.219 2312.34,196.503 2340.52,565.106 2368.72,933.607 2396.94,1302.02 2425.18,1670.38 2453.42,2038.69 2481.68,2406.97 2509.93,2775.24 2538.19,3143.51 2566.44,3511.8 2594.7,3880.12 2622.95,4248.49 2651.19,4616.9 2679.44,4985.38 2707.69,5353.93 2735.95,5722.56 2764.23,6091.25 " />
<polyline fill="none" vector-effect="none" points="3690.16,-634.918 3709.91,-265.578 3729.67,103.667 3749.44,472.825 3769.22,841.905 3789.01,1210.92 3808.81,1579.87 3828.63,1948.78 3848.44,2317.65 3868.26,2686.5 3888.08,3055.35 3907.9,3424.19 3927.7,3793.05 3947.5,4161.93 3967.27,4530.84 3987.04,4899.81 4006.8,5268.84 4026.57,5637.94 4046.35,6007.14 " />
<polyline fill="none" vector-effect="none" points="5126.09,-696.578 5137.38,-326.864 5148.69,42.7845 5160.02,412.374 5171.37,781.905 5182.73,1151.38 5194.11,1520.79 5205.49,1890.15 5216.87,2259.46 5228.25,2628.74 5239.63,2997.99 5251.01,3367.23 5262.37,3736.47 5273.72,4105.72 5285.03,4474.99 5296.31,4844.29 5307.58,5213.66 5318.86,5583.13 5330.16,5952.73 " />
<polyline fill="none" vector-effect="none" points="6563.67,-725.496 6566.49,-355.544 6569.31,14.3803 6572.18,384.333 6575.07,754.213 6577.96,1123.99 6580.86,1493.67 6583.77,1863.29 6586.67,2232.85 6589.57,2602.36 6592.46,2971.84 6595.35,3341.3 6598.22,3710.76 6601.09,4080.24 6603.95,4449.77 6606.81,4819.37 6609.68,5189.09 6612.57,5558.97 6615.46,5928.97 " />
</g>

<g fill="none" stroke="#ff8080" stroke-opacity="1" stroke-width="1" stroke-linecap="square" stroke-linejoin="miter" stroke-miterlimit="2" transform="matrix(1,0,0,1,0,0)"
font-family="DejaVu Sans" font-size="64" font-weight="400" font-style="normal" 
>
<ellipse cx="3207.52" cy="3563.2" rx="936.613" ry="936.613"/>
<circle cx="5419.92" cy="3730.91" r="312.204"/>
<circle cx="1726.42" cy="4643.57" r="421.476"/>
<circle cx="1730.9" cy="4869.55" r="312.204"/>
</g>

<g fill="none" stroke="#00ffff" stroke-opacity="1" stroke-width="1" stroke-linecap="square" stroke-linejoin="miter" stroke-miterlimit="2" transform="matrix(1,0,0,1,0,0)"
font-family="DejaVu Sans" font-size="64" font-weight="400" font-style="normal" 
>
<ellipse cx="3983.75" cy="17.4507" rx="17.5049" ry="17.5049"/>
<ellipse cx="3870.13" cy="115.556" rx="38.3186" ry="38.3186"/>
<ellipse cx="4006.25" cy="702.442" rx="14.6956" ry="14.6956"/>
<circle cx="3129.77" cy="2289.02" r="13.239"/>
<circle cx="5508.41" cy="4109.22" r="11.5316"/>
</g>

<g fill="none" stroke="#00ffff" stroke-opacity="1" stroke-width="1" stroke-linecap="square" stroke-linejoin="miter" stroke-miterlimit="2" transform="matrix(-1,-0.000421666,0.000421666,-1,7072.05,4424.19)"
font-family="DejaVu Sans" font-size="64" font-weight="400" font-style="normal" 
>
<ellipse cx="0" cy="0" rx="11.9455" ry="7.53708"/>
</g>

<g fill="none" stroke="#00ffff" stroke-opacity="1" stroke-width="1" stroke-linecap="square" stroke-linejoin="miter" stroke-miterlimit="2" transform="matrix(1,0,0,1,0,0)"
font-family="DejaVu Sans" font-size="64" font-weight="400" font-style="normal" 
>
<circle cx="6278.67" cy="4519.09" r="16.5179"/>
<circle cx="6274.04" cy="4772.68" r="15.1928"/>
<circle cx="5349.6" cy="4872.78" r="12.0908"/>
<circle cx="5386.25" cy="4881.59" r="14.6956"/>
<circle cx="4466.55" cy="5204.65" r="13.239"/>
<circle cx="5996.62" cy="5225.35" r="16.5179"/>
</g>

<g fill="none" stroke="#00ffff" stroke-opacity="1" stroke-width="1" stroke-linecap="square" stroke-linejoin="miter" stroke-miterlimit="2" transform="matrix(-0.976001,0.217765,-0.217765,-0.976001,6479.96,5673.02)"
font-family="DejaVu Sans" font-size="64" font-weight="400" font-style="normal" 
>
<ellipse cx="0" cy="0" rx="11.2222" ry="5.249"/>
</g>

<g fill="none" stroke="#00ffff" stroke-opacity="1" stroke-width="1" stroke-linecap="square" stroke-linejoin="miter" stroke-miterlimit="2" transform="matrix(1,0,0,1,0,0)"
font-family="DejaVu Sans" font-size="64" font-weight="400" font-style="normal" 
>
<circle cx="6216.83" cy="5861.49" r="11.9479"/>
<circle cx="6213.64" cy="5888.11" r="12.0908"/>
</g>

<g fill="none" stroke="#ff8080" stroke-opacity="1" stroke-width="1" stroke-linecap="square" stroke-linejoin="miter" stroke-miterlimit="2" transform="matrix(1,0,0,1,0,0)"
font-family="DejaVu Sans" font-size="64" font-weight="400" font-style="normal" 
>
<polyline fill="none" vector-effect="none" points="5392.19,3692.06 5397.19,3692.06 " />
<polyline fill="none" vector-effect="none" points="5412.19,3692.06 5407.19,3692.06 " />
<polyline fill="none" vector-effect="none" points="5402.19,3702.06 5402.19,3697.06 " />
<polyline fill="none" vector-effect="none" points="5402.19,3682.06 5402.19,3687.06 " />
</g>

<g fill="none" stroke="#ff8080" stroke-opacity="1" stroke-width="1" stroke-linecap="square" stroke-linejoin="miter" stroke-miterlimit="2" transform="matrix(1,0,0,1,0,0)"
font-family="DejaVu Sans" font-size="32" font-weight="400" font-style="normal" 
>
<text fill="#ff8080" fill-opacity="1" stroke="none" xml:space="preserve" x="3218.52" y="3575.7" font-family="DejaVu Sans" font-size="32" font-weight="400" font-style="normal" 
 >IC1805</text>
<text fill="#ff8080" fill-opacity="1" stroke="none" xml:space="preserve" x="5413.19" y="3704.56" font-family="DejaVu Sans" font-size="32" font-weight="400" font-style="normal" 
 >IC1824</text>
<text fill="#ff8080" fill-opacity="1" stroke="none" xml:space="preserve" x="5345.91" y="3766.91" font-family="DejaVu Sans" font-size="32" font-weight="400" font-style="normal" 
 >NGC1027</text>
<text fill="#ff8080" fill-opacity="1" stroke="none" xml:space="preserve" x="1737.41" y="4656.07" font-family="DejaVu Sans" font-size="32" font-weight="400" font-style="normal" 
 >NGC896</text>
<text fill="#ff8080" fill-opacity="1" stroke="none" xml:space="preserve" x="1741.89" y="4882.05" font-family="DejaVu Sans" font-size="32" font-weight="400" font-style="normal" 
 >IC1795</text>
</g>

<g fill="none" stroke="#00ffff" stroke-opacity="1" stroke-width="1" stroke-linecap="square" stroke-linejoin="miter" stroke-miterlimit="2" transform="matrix(1,0,0,1,0,0)"
font-family="DejaVu Sans" font-size="32" font-weight="400" font-style="normal" 
>
<polyline fill="none" vector-effect="none" points="2686.3,3600.9 2691.3,3600.9 " />
<polyline fill="none" vector-effect="none" points="2706.3,3600.9 2701.3,3600.9 " />
<polyline fill="none" vector-effect="none" points="2696.3,3610.9 2696.3,3605.9 " />
<polyline fill="none" vector-effect="none" points="2696.3,3590.9 2696.3,3595.9 " />
<polyline fill="none" vector-effect="none" points="5942.38,5313.66 5947.38,5313.66 " />
<polyline fill="none" vector-effect="none" points="5962.38,5313.66 5957.38,5313.66 " />
<polyline fill="none" vector-effect="none" points="5952.38,5323.66 5952.38,5318.66 " />
<polyline fill="none" vector-effect="none" points="5952.38,5303.66 5952.38,5308.66 " />
</g>

<g fill="none" stroke="#00ffff" stroke-opacity="1" stroke-width="1" stroke-linecap="square" stroke-linejoin="miter" stroke-miterlimit="2" transform="matrix(1,0,0,1,0,0)"
font-family="DejaVu Sans" font-size="24" font-weight="400" font-style="normal" 
>
<text fill="#00ffff" fill-opacity="1" stroke="none" xml:space="preserve" x="3914.73" y="47.4507" font-family="DejaVu Sans" font-size="24" font-weight="400" font-style="normal" 
 >PGC101332</text>
<text fill="#00ffff" fill-opacity="1" stroke="none" xml:space="preserve" x="3881.13" y="125.056" font-family="DejaVu Sans" font-size="24" font-weight="400" font-style="normal" 
 >PGC9892</text>
<text fill="#00ffff" fill-opacity="1" stroke="none" xml:space="preserve" x="4017.23" y="711.942" font-family="DejaVu Sans" font-size="24" font-weight="400" font-style="normal" 
 >PGC2797112</text>
<text fill="#00ffff" fill-opacity="1" stroke="none" xml:space="preserve" x="3140.77" y="2298.52" font-family="DejaVu Sans" font-size="24" font-weight="400" font-style="normal" 
 >PGC2797053</text>
<text fill="#00ffff" fill-opacity="1" stroke="none" xml:space="preserve" x="2707.3" y="3610.4" font-family="DejaVu Sans" font-size="24" font-weight="400" font-style="normal" 
 >PGC138524</text>
<text fill="#00ffff" fill-opacity="1" stroke="none" xml:space="preserve" x="5519.41" y="4118.72" font-family="DejaVu Sans" font-size="24" font-weight="400" font-style="normal" 
 >PGC168297</text>
<text fill="#00ffff" fill-opacity="1" stroke="none" xml:space="preserve" x="6907.05" y="4433.69" font-family="DejaVu Sans" font-size="24" font-weight="400" font-style="normal" 
 >PGC2628561</text>
<text fill="#00ffff" fill-opacity="1" stroke="none" xml:space="preserve" x="6289.66" y="4528.59" font-family="DejaVu Sans" font-size="24" font-weight="400" font-style="normal" 
 >PGC2797135</text>
<text fill="#00ffff" fill-opacity="1" stroke="none" xml:space="preserve" x="6285.03" y="4782.18" font-family="DejaVu Sans" font-size="24" font-weight="400" font-style="normal" 
 >PGC2797129</text>
<text fill="#00ffff" fill-opacity="1" stroke="none" xml:space="preserve" x="5184.59" y="4871.28" font-family="DejaVu Sans" font-size="24" font-weight="400" font-style="normal" 
 >PGC2797078</text>
<text fill="#00ffff" fill-opacity="1" stroke="none" xml:space="preserve" x="5397.25" y="4902.09" font-family="DejaVu Sans" font-size="24" font-weight="400" font-style="normal" 
 >PGC2797082</text>
<text fill="#00ffff" fill-opacity="1" stroke="none" xml:space="preserve" x="4477.55" y="5214.15" font-family="DejaVu Sans" font-size="24" font-weight="400" font-style="normal" 
 >PGC2797052</text>
<text fill="#00ffff" fill-opacity="1" stroke="none" xml:space="preserve" x="6007.61" y="5234.85" font-family="DejaVu Sans" font-size="24" font-weight="400" font-style="normal" 
 >PGC2797106</text>
<text fill="#00ffff" fill-opacity="1" stroke="none" xml:space="preserve" x="5963.38" y="5323.16" font-family="DejaVu Sans" font-size="24" font-weight="400" font-style="normal" 
 >PGC74110</text>
<text fill="#00ffff" fill-opacity="1" stroke="none" xml:space="preserve" x="6490.95" y="5682.52" font-family="DejaVu Sans" font-size="24" font-weight="400" font-style="normal" 
 >PGC2640913</text>
<text fill="#00ffff" fill-opacity="1" stroke="none" xml:space="preserve" x="6139.81" y="5850.49" font-family="DejaVu Sans" font-size="24" font-weight="400" font-style="normal" 
 >PGC2797101</text>
<text fill="#00ffff" fill-opacity="1" stroke="none" xml:space="preserve" x="6224.64" y="5897.61" font-family="DejaVu Sans" font-size="24" font-weight="400" font-style="normal" 
 >PGC166441</text>
</g>

<g fill="none" stroke="#ffffff" stroke-opacity="1" stroke-width="1" stroke-linecap="square" stroke-linejoin="miter" stroke-miterlimit="2" transform="matrix(1,0,0,1,0,0)"
font-family="DejaVu Sans" font-size="24" font-weight="400" font-style="normal" 
>
<text fill="#ffffff" fill-opacity="1" stroke="none" xml:space="preserve" x="962.813" y="1011.98" font-family="DejaVu Sans" font-size="24" font-weight="400" font-style="normal" 
 >+60°</text>
<text fill="#ffffff" fill-opacity="1" stroke="none" xml:space="preserve" x="1102.47" y="2410.27" font-family="DejaVu Sans" font-size="24" font-weight="400" font-style="normal" 
 >+60°45′</text>
<text fill="#ffffff" fill-opacity="1" stroke="none" xml:space="preserve" x="1242.09" y="3808.35" font-family="DejaVu Sans" font-size="24" font-weight="400" font-style="normal" 
 >+61°30′</text>
<text fill="#ffffff" fill-opacity="1" stroke="none" xml:space="preserve" x="1381.8" y="5207" font-family="DejaVu Sans" font-size="24" font-weight="400" font-style="normal" 
 >+62°15′</text>
<text fill="#ffffff" fill-opacity="1" stroke="none" xml:space="preserve" x="1102.47" y="2382.27" font-family="DejaVu Sans" font-size="24" font-weight="400" font-style="normal" 
 >2ʰ24ᵐ</text>
<text fill="#ffffff" fill-opacity="1" stroke="none" xml:space="preserve" x="2470.55" y="2261.95" font-family="DejaVu Sans" font-size="24" font-weight="400" font-style="normal" 
 >2ʰ30ᵐ</text>
<text fill="#ffffff" fill-opacity="1" stroke="none" xml:space="preserve" x="3840.63" y="2172.4" font-family="DejaVu Sans" font-size="24" font-weight="400" font-style="normal" 
 >2ʰ36ᵐ</text>
<text fill="#ffffff" fill-opacity="1" stroke="none" xml:space="preserve" x="5212.38" y="2114.04" font-family="DejaVu Sans" font-size="24" font-weight="400" font-style="normal" 
 >2ʰ42ᵐ</text>
<text fill="#ffffff" fill-opacity="1" stroke="none" xml:space="preserve" x="6585.52" y="2087.32" font-family="DejaVu Sans" font-size="24" font-weight="400" font-style="normal" 
 >2ʰ48ᵐ</text>
</g>
</g>
</svg>
