<?xml version="1.0" encoding="UTF-8" standalone="no"?>
<svg viewBox="0 0 6214 4141"
 xmlns="http://www.w3.org/2000/svg" xmlns:xlink="http://www.w3.org/1999/xlink" version="1.2" baseProfile="tiny">
<title>PixInsight SVG Document</title>
<desc>Generated with PixInsight Core 1.8.9-3 (x64)</desc>
<defs>
</defs>
<g fill="none" stroke="black" stroke-width="1" fill-rule="evenodd" stroke-linecap="square" stroke-linejoin="bevel" >

<g fill="none" stroke="#000000" stroke-opacity="1" stroke-width="1" stroke-linecap="square" stroke-linejoin="bevel" transform="matrix(1,0,0,1,0,0)"
font-family="SF Pro Text" font-size="12" font-weight="400" font-style="normal" 
>
</g>

<g fill="none" stroke="#ffffff" stroke-opacity="0.501961" stroke-width="1" stroke-linecap="square" stroke-linejoin="miter" stroke-miterlimit="2" transform="matrix(1,0,0,1,0,0)"
font-family="SF Pro Text" font-size="12" font-weight="400" font-style="normal" 
>
<polyline fill="none" vector-effect="none" points="-579.75,-671.675 -220.091,-670.686 139.523,-669.611 499.152,-668.449 858.824,-667.194 1218.49,-665.848 1578.08,-664.417 1937.48,-662.907 2296.63,-661.322 2655.6,-659.669 3014.52,-657.951 3373.5,-656.173 3732.56,-654.339 4091.74,-652.456 4451.07,-650.534 4810.54,-648.577 5170.12,-646.572 5529.78,-644.501 5889.48,-642.341 6249.19,-640.075 " />
<polyline fill="none" vector-effect="none" points="-581.498,266.195 -222.147,267.082 137.108,268.068 496.388,269.149 855.766,270.338 1215.15,271.638 1574.45,273.036 1933.58,274.524 2292.34,276.097 2650.85,277.749 3009.34,279.477 3368.05,281.277 3726.87,283.143 4085.81,285.07 4444.92,287.042 4804.21,289.044 5163.52,291.099 5522.75,293.224 5881.96,295.438 6241.2,297.791 " />
<polyline fill="none" vector-effect="none" points="-582.977,1203.78 -223.858,1204.55 135.192,1205.44 494.198,1206.45 853.151,1207.58 1212,1208.81 1570.68,1210.15 1929.3,1211.59 2287.88,1213.12 2646.37,1214.76 3004.81,1216.48 3363.24,1218.29 3721.7,1220.17 4080.27,1222.13 4439.02,1224.16 4797.96,1226.26 5156.98,1228.44 5515.92,1230.71 5874.82,1233.09 6233.76,1235.58 " />
<polyline fill="none" vector-effect="none" points="-584.358,2141.31 -225.199,2141.94 133.857,2142.71 492.143,2143.62 850.801,2144.64 1209.5,2145.77 1567.92,2147 1926.13,2148.34 2284.32,2149.77 2642.55,2151.36 3001.01,2153.1 3358.89,2154.93 3717.15,2156.85 4075.03,2158.88 4433.24,2161 4791.86,2163.22 5150.01,2165.55 5509.1,2167.98 5867.55,2170.52 6226.88,2173.16 " />
<polyline fill="none" vector-effect="none" points="-586.61,3078.93 -227.986,3079.48 130.574,3080.11 489.066,3080.84 847.497,3081.68 1205.83,3082.62 1564.04,3083.68 1922.13,3084.85 2280.13,3086.18 2638.04,3087.7 2995.98,3089.39 3354.1,3091.25 3711.8,3093.26 4069.9,3095.4 4427.46,3097.66 4786.06,3100 5144.43,3102.46 5502.84,3105.03 5861.5,3107.74 6220.22,3110.56 " />
<polyline fill="none" vector-effect="none" points="-588.854,4016.37 -230.582,4016.81 127.641,4017.23 485.85,4017.78 843.992,4018.54 1202.06,4019.44 1560.06,4020.48 1918.03,4021.64 2275.99,4022.92 2633.92,4024.3 2991.29,4025.85 3348.41,4027.66 3706.82,4029.74 4064.77,4032 4422.39,4034.36 4780.18,4036.77 5138.77,4039.28 5497.1,4041.91 5855.68,4044.73 6214.2,4047.79 " />
<polyline fill="none" vector-effect="none" points="-579.75,-671.675 -580.467,-301.38 -581.149,68.8584 -581.794,439.049 -582.392,809.198 -582.942,1179.32 -583.452,1549.42 -583.967,1919.54 -584.677,2289.68 -585.578,2659.84 -586.489,3029.99 -587.399,3400.13 -588.29,3770.22 -589.13,4140.21 " />
<polyline fill="none" vector-effect="none" points="356.932,-668.919 355.819,-298.722 354.775,71.4216 353.895,441.521 353.067,811.569 352.285,1181.58 351.559,1551.56 350.9,1921.55 349.972,2291.57 348.699,2661.6 347.471,3031.62 346.223,3401.61 344.983,3771.52 343.83,4141.3 " />
<polyline fill="none" vector-effect="none" points="1293.69,-665.556 1292.39,-295.414 1291.04,74.6697 1289.64,444.703 1288.28,814.688 1287.09,1184.63 1286.09,1554.54 1285.15,1924.42 1283.94,2294.27 1282.48,2664.1 1280.95,3033.94 1279.42,3403.78 1277.91,3773.61 1276.43,4143.45 " />
<polyline fill="none" vector-effect="none" points="2229.72,-661.623 2228.19,-291.496 2226.52,78.5624 2224.63,448.559 2222.8,818.498 2221.17,1188.38 2219.77,1558.21 2218.43,1927.98 2216.96,2297.67 2215.32,2667.3 2213.64,3037.03 2212.03,3406.81 2210.43,3776.63 2208.68,4146.48 " />
<polyline fill="none" vector-effect="none" points="3164.64,-657.215 3162.56,-287.076 3160.43,82.9875 3158.43,452.98 3156.58,822.908 3154.83,1192.78 3153.19,1562.59 3151.84,1932.35 3149.95,2302.04 3148.02,2671.66 3146.01,3041.28 3144.28,3410.93 3142.24,3780.6 3139.4,4150.35 " />
<polyline fill="none" vector-effect="none" points="4099.92,-652.413 4097.51,-282.23 4095.18,87.8682 4092.96,457.882 4090.78,827.829 4088.59,1197.72 4086.41,1567.57 4084.37,1937.37 4082.33,2307.13 4080.39,2676.86 4078.56,3046.58 4076.3,3416.3 4074.08,3786.05 4072.28,4155.84 " />
<polyline fill="none" vector-effect="none" points="5036.1,-647.326 5033.48,-277.106 5030.93,93.0436 5028.49,463.13 5026.06,833.166 5023.37,1203.16 5020.58,1573.12 5017.97,1943.05 5015.88,2312.94 5013.62,2682.8 5011.13,3052.63 5009.05,3422.46 5006.73,3792.29 5004.45,4162.14 " />
<polyline fill="none" vector-effect="none" points="5972.89,-641.825 5969.98,-271.571 5966.92,98.6319 5963.87,468.837 5961,839.028 5958.21,1209.19 5955.58,1579.31 5952.92,1949.4 5950.16,2319.46 5947.51,2689.48 5944.82,3059.47 5942.28,3429.42 5940.07,3799.33 5938.18,4169.25 " />
</g>

<g fill="none" stroke="#ff8080" stroke-opacity="0.501961" stroke-width="4" stroke-linecap="square" stroke-linejoin="miter" stroke-miterlimit="2" transform="matrix(1,0,0,1,0,0)"
font-family="DejaVu Sans" font-size="24" font-weight="400" font-style="normal" 
>
<polyline fill="none" vector-effect="none" points="3541.75,6522.64 -687.284,1397.25 " />
<polyline fill="none" vector-effect="none" points="-684.846,1388.37 10619,-2672.65 " />
<polyline fill="none" vector-effect="none" points="3551.72,6522.47 10621.7,-2669.01 " />
</g>

<g fill="none" stroke="#ff8080" stroke-opacity="1" stroke-width="1" stroke-linecap="square" stroke-linejoin="miter" stroke-miterlimit="2" transform="matrix(1,0,0,1,0,0)"
font-family="DejaVu Sans" font-size="64" font-weight="400" font-style="normal" 
>
<ellipse cx="3235.77" cy="1993.21" rx="433.996" ry="433.996"/>
<ellipse cx="3235.77" cy="1993.21" rx="145.186" ry="145.186"/>
<circle cx="2498.4" cy="2114.6" r="1248.91"/>
<circle cx="2525.11" cy="2123.31" r="156.114"/>
<circle cx="2450.41" cy="2244.12" r="1248.91"/>
<circle cx="4553.61" cy="2949.33" r="312.228"/>
</g>

<g fill="none" stroke="#00ffff" stroke-opacity="1" stroke-width="1" stroke-linecap="square" stroke-linejoin="miter" stroke-miterlimit="2" transform="matrix(1,0,0,1,0,0)"
font-family="DejaVu Sans" font-size="64" font-weight="400" font-style="normal" 
>
<ellipse cx="4369.01" cy="689.108" rx="11.8151" ry="11.8151"/>
</g>

<g fill="none" stroke="#ffd700" stroke-opacity="1" stroke-width="1" stroke-linecap="square" stroke-linejoin="miter" stroke-miterlimit="2" transform="matrix(1,0,0,1,0,0)"
font-family="DejaVu Sans" font-size="64" font-weight="400" font-style="normal" 
>
<polyline fill="none" vector-effect="none" points="3291.27,1884.91 3296.27,1884.91 " />
<polyline fill="none" vector-effect="none" points="3311.27,1884.91 3306.27,1884.91 " />
<polyline fill="none" vector-effect="none" points="3301.27,1894.91 3301.27,1889.91 " />
<polyline fill="none" vector-effect="none" points="3301.27,1874.91 3301.27,1879.91 " />
</g>

<g fill="none" stroke="#ffd700" stroke-opacity="1" stroke-width="1" stroke-linecap="square" stroke-linejoin="miter" stroke-miterlimit="2" transform="matrix(1,0,0,1,0,0)"
font-family="DejaVu Sans" font-size="28" font-weight="400" font-style="normal" 
>
<text fill="#ffd700" fill-opacity="1" stroke="none" xml:space="preserve" x="3312.27" y="1895.91" font-family="DejaVu Sans" font-size="28" font-weight="400" font-style="normal" 
 >12 Mon</text>
</g>

<g fill="none" stroke="#ff8080" stroke-opacity="1" stroke-width="1" stroke-linecap="square" stroke-linejoin="miter" stroke-miterlimit="2" transform="matrix(1,0,0,1,0,0)"
font-family="DejaVu Sans" font-size="32" font-weight="400" font-style="normal" 
>
<text fill="#ff8080" fill-opacity="1" stroke="none" xml:space="preserve" x="3075.77" y="2005.71" font-family="DejaVu Sans" font-size="32" font-weight="400" font-style="normal" 
 >NGC2244</text>
<text fill="#ff8080" fill-opacity="1" stroke="none" xml:space="preserve" x="3241.27" y="1987.71" font-family="DejaVu Sans" font-size="32" font-weight="400" font-style="normal" 
 >NGC2239</text>
<text fill="#ff8080" fill-opacity="1" stroke="none" xml:space="preserve" x="3241.27" y="2024.71" font-family="DejaVu Sans" font-size="32" font-weight="400" font-style="normal" 
 >Rosette Nebula</text>
<text fill="#ff8080" fill-opacity="1" stroke="none" xml:space="preserve" x="2339.39" y="2127.1" font-family="DejaVu Sans" font-size="32" font-weight="400" font-style="normal" 
 >NGC2237</text>
<text fill="#ff8080" fill-opacity="1" stroke="none" xml:space="preserve" x="2536.09" y="2135.81" font-family="DejaVu Sans" font-size="32" font-weight="400" font-style="normal" 
 >NGC2246</text>
<text fill="#ff8080" fill-opacity="1" stroke="none" xml:space="preserve" x="2461.41" y="2256.62" font-family="DejaVu Sans" font-size="32" font-weight="400" font-style="normal" 
 >NGC2238</text>
<text fill="#ff8080" fill-opacity="1" stroke="none" xml:space="preserve" x="4564.61" y="2961.83" font-family="DejaVu Sans" font-size="32" font-weight="400" font-style="normal" 
 >NGC2252</text>
</g>

<g fill="none" stroke="#00ffff" stroke-opacity="1" stroke-width="1" stroke-linecap="square" stroke-linejoin="miter" stroke-miterlimit="2" transform="matrix(1,0,0,1,0,0)"
font-family="DejaVu Sans" font-size="24" font-weight="400" font-style="normal" 
>
<text fill="#00ffff" fill-opacity="1" stroke="none" xml:space="preserve" x="4380" y="698.608" font-family="DejaVu Sans" font-size="24" font-weight="400" font-style="normal" 
 >PGC136569</text>
</g>

<g fill="none" stroke="#ffffff" stroke-opacity="1" stroke-width="1" stroke-linecap="square" stroke-linejoin="miter" stroke-miterlimit="2" transform="matrix(1,0,0,1,0,0)"
font-family="DejaVu Sans" font-size="24" font-weight="400" font-style="normal" 
>
<text fill="#ffffff" fill-opacity="1" stroke="none" xml:space="preserve" x="2225.52" y="303.797" font-family="DejaVu Sans" font-size="24" font-weight="400" font-style="normal" 
 >+4°</text>
<text fill="#ffffff" fill-opacity="1" stroke="none" xml:space="preserve" x="2221.06" y="1240.83" font-family="DejaVu Sans" font-size="24" font-weight="400" font-style="normal" 
 >+4°30′</text>
<text fill="#ffffff" fill-opacity="1" stroke="none" xml:space="preserve" x="2217.56" y="2177.49" font-family="DejaVu Sans" font-size="24" font-weight="400" font-style="normal" 
 >+5°</text>
<text fill="#ffffff" fill-opacity="1" stroke="none" xml:space="preserve" x="2213.42" y="3113.92" font-family="DejaVu Sans" font-size="24" font-weight="400" font-style="normal" 
 >+5°30′</text>
<text fill="#ffffff" fill-opacity="1" stroke="none" xml:space="preserve" x="2209.28" y="4050.68" font-family="DejaVu Sans" font-size="24" font-weight="400" font-style="normal" 
 >+6°</text>
<text fill="#ffffff" fill-opacity="1" stroke="none" xml:space="preserve" x="352.234" y="1206.04" font-family="DejaVu Sans" font-size="24" font-weight="400" font-style="normal" 
 >6ʰ26ᵐ</text>
<text fill="#ffffff" fill-opacity="1" stroke="none" xml:space="preserve" x="1287.02" y="1209.08" font-family="DejaVu Sans" font-size="24" font-weight="400" font-style="normal" 
 >6ʰ28ᵐ</text>
<text fill="#ffffff" fill-opacity="1" stroke="none" xml:space="preserve" x="2221.06" y="1212.83" font-family="DejaVu Sans" font-size="24" font-weight="400" font-style="normal" 
 >6ʰ30ᵐ</text>
<text fill="#ffffff" fill-opacity="1" stroke="none" xml:space="preserve" x="3154.7" y="1217.22" font-family="DejaVu Sans" font-size="24" font-weight="400" font-style="normal" 
 >6ʰ32ᵐ</text>
<text fill="#ffffff" fill-opacity="1" stroke="none" xml:space="preserve" x="4088.44" y="1222.17" font-family="DejaVu Sans" font-size="24" font-weight="400" font-style="normal" 
 >6ʰ34ᵐ</text>
<text fill="#ffffff" fill-opacity="1" stroke="none" xml:space="preserve" x="5023.17" y="1227.62" font-family="DejaVu Sans" font-size="24" font-weight="400" font-style="normal" 
 >6ʰ36ᵐ</text>
<text fill="#ffffff" fill-opacity="1" stroke="none" xml:space="preserve" x="5958.03" y="1233.65" font-family="DejaVu Sans" font-size="24" font-weight="400" font-style="normal" 
 >6ʰ38ᵐ</text>
</g>
</g>
</svg>
