<?xml version="1.0" encoding="UTF-8" standalone="no"?>
<svg viewBox="0 0 6230 4162"
 xmlns="http://www.w3.org/2000/svg" xmlns:xlink="http://www.w3.org/1999/xlink" version="1.2" baseProfile="tiny">
<title>PixInsight SVG Document</title>
<desc>Generated with PixInsight Core 1.8.9-3 (x64)</desc>
<defs>
</defs>
<g fill="none" stroke="black" stroke-width="1" fill-rule="evenodd" stroke-linecap="square" stroke-linejoin="bevel" >

<g fill="none" stroke="#000000" stroke-opacity="1" stroke-width="1" stroke-linecap="square" stroke-linejoin="bevel" transform="matrix(1,0,0,1,0,0)"
font-family="SF Pro Text" font-size="12" font-weight="400" font-style="normal" 
>
</g>

<g fill="none" stroke="#ffffff" stroke-opacity="0.501961" stroke-width="1" stroke-linecap="square" stroke-linejoin="miter" stroke-miterlimit="2" transform="matrix(1,0,0,1,0,0)"
font-family="SF Pro Text" font-size="12" font-weight="400" font-style="normal" 
>
<polyline fill="none" vector-effect="none" points="6778.74,4819.44 6419.43,4817.77 6060.03,4816.02 5700.48,4814.17 5340.96,4812.2 4981.61,4810.1 4622.46,4807.89 4263.48,4805.63 3904.68,4803.35 3546.01,4801.06 3187.36,4798.75 2828.65,4796.41 2469.88,4794.02 2111.07,4791.57 1752.22,4789.06 1393.32,4786.49 1034.32,4783.83 675.209,4781.09 315.954,4778.25 -43.4465,4775.32 " />
<polyline fill="none" vector-effect="none" points="6779.68,3882.41 6420.23,3880.8 6061.18,3879.16 5702.41,3877.49 5343.62,3875.64 4985.01,3873.59 4626.49,3871.41 4268,3869.15 3909.58,3866.9 3551.21,3864.64 3192.8,3862.36 2834.39,3860.02 2475.92,3857.63 2117.36,3855.17 1758.76,3852.63 1400.14,3850.02 1041.44,3847.32 682.595,3844.53 323.555,3841.63 -35.66,3838.62 " />
<polyline fill="none" vector-effect="none" points="6782.2,2945.84 6423.12,2944.41 6064.35,2942.85 5705.89,2941.14 5347.67,2939.3 4989.61,2937.33 4631.65,2935.26 4273.61,2933.12 3915.35,2930.91 3557.12,2928.66 3199,2926.35 2840.95,2923.98 2482.86,2921.55 2124.65,2919.03 1766.2,2916.44 1407.74,2913.76 1049.21,2910.98 690.64,2908.1 331.967,2905.11 -26.8244,2902.02 " />
<polyline fill="none" vector-effect="none" points="6786.7,2009.06 6428.18,2007.77 6069.7,2006.3 5711.17,2004.66 5352.78,2002.89 4994.68,2001.02 4636.75,1999.07 4278.76,1997.04 3920.66,1994.93 3562.44,1992.73 3204.78,1990.44 2847.5,1988.06 2489.78,1985.59 2132.14,1983.02 1774.72,1980.36 1416.12,1977.59 1057.94,1974.72 699.746,1971.74 341.319,1968.66 -17.1496,1965.48 " />
<polyline fill="none" vector-effect="none" points="6791.02,1071.71 6432.66,1070.42 6074.42,1069.05 5716.27,1067.61 5358.2,1066.06 5000.23,1064.39 4642.34,1062.63 4284.56,1060.77 3926.92,1058.8 3569.43,1056.72 3211.78,1054.51 2853.98,1052.16 2496.55,1049.68 2138.98,1047.05 1781.57,1044.29 1423.68,1041.41 1065.91,1038.42 707.524,1035.33 349.553,1032.15 -8.85779,1028.87 " />
<polyline fill="none" vector-effect="none" points="6795.44,134.484 6437.42,133.34 6079.51,132.089 5721.58,130.714 5363.7,129.238 5005.87,127.664 4648.11,126.014 4290.4,124.285 3932.77,122.447 3575.22,120.483 3217.93,118.378 2860.44,116.108 2503.44,113.617 2145.98,110.905 1788.79,108.031 1430.85,105.022 1073.2,101.897 715.346,98.6824 357.299,95.4202 -0.758098,92.0646 " />
<polyline fill="none" vector-effect="none" points="6778.74,4819.44 6779.27,4448.86 6779.53,4078.33 6779.92,3707.88 6780.81,3337.53 6782.11,2967.21 6783.73,2596.85 6785.58,2226.4 6787.46,1855.83 6789.19,1485.16 6790.83,1114.47 6792.5,743.812 6794.27,373.212 6796.08,2.63415 " />
<polyline fill="none" vector-effect="none" points="5842.45,4814.91 5843.35,4444.48 5843.87,4074.05 5844.44,3703.68 5845.66,3333.41 5847.29,2963.19 5849.21,2592.95 5851.42,2222.61 5853.61,1852.12 5855.56,1481.55 5857.46,1110.94 5859.41,740.374 5861.51,369.902 5863.66,-0.530624 " />
<polyline fill="none" vector-effect="none" points="4906.07,4809.64 4907.34,4439.28 4908.76,4068.96 4910.42,3698.69 4912.29,3328.46 4914.22,2958.26 4916.16,2588.05 4918.17,2217.8 4920.3,1847.5 4922.49,1477.15 4924.7,1106.76 4926.93,736.361 4929.17,365.95 4931.43,-4.4694 " />
<polyline fill="none" vector-effect="none" points="3970.88,4803.77 3972.62,4433.38 3974.56,4063.09 3976.8,3692.91 3979.15,3322.78 3981.35,2952.67 3983.38,2582.56 3985.46,2212.42 3987.74,1842.27 3990.23,1472.09 3992.64,1101.88 3994.92,731.641 3997.22,361.36 3999.64,-8.97083 " />
<polyline fill="none" vector-effect="none" points="3036.5,4797.77 3038.7,4427.43 3040.83,4057.16 3043.21,3686.97 3045.71,3316.82 3048.26,2946.71 3050.81,2576.61 3053.16,2206.52 3055.7,1836.43 3058.45,1466.33 3060.93,1096.24 3063.51,726.122 3065.93,355.956 3068.8,-14.3034 " />
<polyline fill="none" vector-effect="none" points="2101.83,4791.51 2104.3,4421.18 2106.79,4050.9 2109.35,3680.67 2112.11,3310.48 2115.23,2940.32 2118.65,2570.18 2121.71,2200.04 2124.04,1829.92 2126.56,1459.8 2129.42,1089.68 2131.76,719.543 2135.03,349.355 2137.61,-20.9192 " />
<polyline fill="none" vector-effect="none" points="1166.84,4784.82 1169.65,4414.47 1172.41,4044.15 1175.17,3673.87 1178.11,3303.61 1181.36,2933.37 1184.8,2563.15 1188.14,2192.93 1191.55,1822.72 1194.34,1452.49 1197.75,1082.25 1200.48,711.971 1203.46,341.65 1206.19,-28.7129 " />
<polyline fill="none" vector-effect="none" points="231.133,4777.57 234.207,4407.17 237.185,4036.8 240.258,3666.43 243.574,3296.09 247.078,2925.75 250.755,2555.44 254.559,2185.12 258.109,1814.8 261.302,1444.47 264.63,1074.11 267.695,703.72 270.812,333.289 273.834,-37.1678 " />
</g>

<g fill="none" stroke="#ff8080" stroke-opacity="0.501961" stroke-width="4" stroke-linecap="square" stroke-linejoin="miter" stroke-miterlimit="2" transform="matrix(1,0,0,1,0,0)"
font-family="DejaVu Sans" font-size="24" font-weight="400" font-style="normal" 
>
<polyline fill="none" vector-effect="none" points="2670.89,-2378.56 6887.07,2752.75 " />
<polyline fill="none" vector-effect="none" points="6884.61,2761.63 -4411.04,6796.91 " />
<polyline fill="none" vector-effect="none" points="2660.92,-2378.4 -4413.68,6793.26 " />
</g>

<g fill="none" stroke="#ff8080" stroke-opacity="1" stroke-width="1" stroke-linecap="square" stroke-linejoin="miter" stroke-miterlimit="2" transform="matrix(1,0,0,1,0,0)"
font-family="DejaVu Sans" font-size="64" font-weight="400" font-style="normal" 
>
<circle cx="2969.57" cy="2149.87" r="433.673"/>
<circle cx="2969.57" cy="2149.87" r="145.078"/>
<ellipse cx="3705.75" cy="2029.71" rx="1247.98" ry="1247.98"/>
<ellipse cx="3679.06" cy="2020.95" rx="155.997" ry="155.997"/>
<ellipse cx="3754.09" cy="1900.31" rx="1247.98" ry="1247.98"/>
<ellipse cx="1654.31" cy="1192.34" rx="311.995" ry="311.995"/>
</g>

<g fill="none" stroke="#00ffff" stroke-opacity="1" stroke-width="1" stroke-linecap="square" stroke-linejoin="miter" stroke-miterlimit="2" transform="matrix(1,0,0,1,0,0)"
font-family="DejaVu Sans" font-size="64" font-weight="400" font-style="normal" 
>
<ellipse cx="1833.89" cy="3451.09" rx="11.8171" ry="11.8171"/>
</g>

<g fill="none" stroke="#ffd700" stroke-opacity="1" stroke-width="1" stroke-linecap="square" stroke-linejoin="miter" stroke-miterlimit="2" transform="matrix(1,0,0,1,0,0)"
font-family="DejaVu Sans" font-size="64" font-weight="400" font-style="normal" 
>
<polyline fill="none" vector-effect="none" points="2893.71,2258 2898.71,2258 " />
<polyline fill="none" vector-effect="none" points="2913.71,2258 2908.71,2258 " />
<polyline fill="none" vector-effect="none" points="2903.71,2268 2903.71,2263 " />
<polyline fill="none" vector-effect="none" points="2903.71,2248 2903.71,2253 " />
</g>

<g fill="none" stroke="#ffd700" stroke-opacity="1" stroke-width="1" stroke-linecap="square" stroke-linejoin="miter" stroke-miterlimit="2" transform="matrix(1,0,0,1,0,0)"
font-family="DejaVu Sans" font-size="28" font-weight="400" font-style="normal" 
>
<text fill="#ffd700" fill-opacity="1" stroke="none" xml:space="preserve" x="2914.7" y="2269" font-family="DejaVu Sans" font-size="28" font-weight="400" font-style="normal" 
 >12 Mon</text>
</g>

<g fill="none" stroke="#ff8080" stroke-opacity="1" stroke-width="1" stroke-linecap="square" stroke-linejoin="miter" stroke-miterlimit="2" transform="matrix(1,0,0,1,0,0)"
font-family="DejaVu Sans" font-size="32" font-weight="400" font-style="normal" 
>
<text fill="#ff8080" fill-opacity="1" stroke="none" xml:space="preserve" x="2809.56" y="2162.37" font-family="DejaVu Sans" font-size="32" font-weight="400" font-style="normal" 
 >NGC2244</text>
<text fill="#ff8080" fill-opacity="1" stroke="none" xml:space="preserve" x="2975.06" y="2144.37" font-family="DejaVu Sans" font-size="32" font-weight="400" font-style="normal" 
 >NGC2239</text>
<text fill="#ff8080" fill-opacity="1" stroke="none" xml:space="preserve" x="2975.06" y="2181.37" font-family="DejaVu Sans" font-size="32" font-weight="400" font-style="normal" 
 >Rosette Nebula</text>
<text fill="#ff8080" fill-opacity="1" stroke="none" xml:space="preserve" x="3631.73" y="2065.71" font-family="DejaVu Sans" font-size="32" font-weight="400" font-style="normal" 
 >NGC2237</text>
<text fill="#ff8080" fill-opacity="1" stroke="none" xml:space="preserve" x="3604.55" y="2009.95" font-family="DejaVu Sans" font-size="32" font-weight="400" font-style="normal" 
 >NGC2246</text>
<text fill="#ff8080" fill-opacity="1" stroke="none" xml:space="preserve" x="3765.08" y="1912.81" font-family="DejaVu Sans" font-size="32" font-weight="400" font-style="normal" 
 >NGC2238</text>
<text fill="#ff8080" fill-opacity="1" stroke="none" xml:space="preserve" x="1665.3" y="1204.84" font-family="DejaVu Sans" font-size="32" font-weight="400" font-style="normal" 
 >NGC2252</text>
</g>

<g fill="none" stroke="#00ffff" stroke-opacity="1" stroke-width="1" stroke-linecap="square" stroke-linejoin="miter" stroke-miterlimit="2" transform="matrix(1,0,0,1,0,0)"
font-family="DejaVu Sans" font-size="24" font-weight="400" font-style="normal" 
>
<text fill="#00ffff" fill-opacity="1" stroke="none" xml:space="preserve" x="1844.89" y="3460.59" font-family="DejaVu Sans" font-size="24" font-weight="400" font-style="normal" 
 >PGC136569</text>
</g>

<g fill="none" stroke="#ffffff" stroke-opacity="1" stroke-width="1" stroke-linecap="square" stroke-linejoin="miter" stroke-miterlimit="2" transform="matrix(1,0,0,1,0,0)"
font-family="DejaVu Sans" font-size="24" font-weight="400" font-style="normal" 
>
<text fill="#ffffff" fill-opacity="1" stroke="none" xml:space="preserve" x="3975.72" y="3895.31" font-family="DejaVu Sans" font-size="24" font-weight="400" font-style="normal" 
 >+4°</text>
<text fill="#ffffff" fill-opacity="1" stroke="none" xml:space="preserve" x="3981.47" y="2959.32" font-family="DejaVu Sans" font-size="24" font-weight="400" font-style="normal" 
 >+4°30′</text>
<text fill="#ffffff" fill-opacity="1" stroke="none" xml:space="preserve" x="3986.77" y="2023.32" font-family="DejaVu Sans" font-size="24" font-weight="400" font-style="normal" 
 >+5°</text>
<text fill="#ffffff" fill-opacity="1" stroke="none" xml:space="preserve" x="3992.91" y="1087.17" font-family="DejaVu Sans" font-size="24" font-weight="400" font-style="normal" 
 >+5°30′</text>
<text fill="#ffffff" fill-opacity="1" stroke="none" xml:space="preserve" x="3998.75" y="150.795" font-family="DejaVu Sans" font-size="24" font-weight="400" font-style="normal" 
 >+6°</text>
<text fill="#ffffff" fill-opacity="1" stroke="none" xml:space="preserve" x="5847.39" y="2941.83" font-family="DejaVu Sans" font-size="24" font-weight="400" font-style="normal" 
 >6ʰ26ᵐ</text>
<text fill="#ffffff" fill-opacity="1" stroke="none" xml:space="preserve" x="4914.33" y="2936.9" font-family="DejaVu Sans" font-size="24" font-weight="400" font-style="normal" 
 >6ʰ28ᵐ</text>
<text fill="#ffffff" fill-opacity="1" stroke="none" xml:space="preserve" x="3981.47" y="2931.32" font-family="DejaVu Sans" font-size="24" font-weight="400" font-style="normal" 
 >6ʰ30ᵐ</text>
<text fill="#ffffff" fill-opacity="1" stroke="none" xml:space="preserve" x="3048.39" y="2925.36" font-family="DejaVu Sans" font-size="24" font-weight="400" font-style="normal" 
 >6ʰ32ᵐ</text>
<text fill="#ffffff" fill-opacity="1" stroke="none" xml:space="preserve" x="2115.42" y="2918.97" font-family="DejaVu Sans" font-size="24" font-weight="400" font-style="normal" 
 >6ʰ34ᵐ</text>
<text fill="#ffffff" fill-opacity="1" stroke="none" xml:space="preserve" x="1181.55" y="2912.01" font-family="DejaVu Sans" font-size="24" font-weight="400" font-style="normal" 
 >6ʰ36ᵐ</text>
<text fill="#ffffff" fill-opacity="1" stroke="none" xml:space="preserve" x="247.281" y="2904.39" font-family="DejaVu Sans" font-size="24" font-weight="400" font-style="normal" 
 >6ʰ38ᵐ</text>
</g>
</g>
</svg>
