<?xml version="1.0" encoding="UTF-8" standalone="no"?>
<svg viewBox="0 0 6230 4162"
 xmlns="http://www.w3.org/2000/svg" xmlns:xlink="http://www.w3.org/1999/xlink" version="1.2" baseProfile="tiny">
<title>PixInsight SVG Document</title>
<desc>Generated with PixInsight Core 1.8.9-3 (x64)</desc>
<defs>
</defs>
<g fill="none" stroke="black" stroke-width="1" fill-rule="evenodd" stroke-linecap="square" stroke-linejoin="bevel" >

<g fill="none" stroke="#000000" stroke-opacity="1" stroke-width="1" stroke-linecap="square" stroke-linejoin="bevel" transform="matrix(1,0,0,1,0,0)"
font-family="SF Pro Text" font-size="12" font-weight="400" font-style="normal" 
>
</g>

<g fill="none" stroke="#ffffff" stroke-opacity="0.501961" stroke-width="1" stroke-linecap="square" stroke-linejoin="miter" stroke-miterlimit="2" transform="matrix(1,0,0,1,0,0)"
font-family="SF Pro Text" font-size="12" font-weight="400" font-style="normal" 
>
<polyline fill="none" vector-effect="none" points="-568.229,-657.545 -207.665,-655.841 152.895,-654.008 513.453,-652.017 873.993,-649.875 1234.51,-647.645 1594.99,-645.379 1955.44,-643.089 2315.82,-640.772 2676.12,-638.43 3036.35,-636.065 3396.48,-633.68 3756.54,-631.267 4116.51,-628.815 4476.4,-626.291 4836.18,-623.655 5195.84,-620.948 5555.36,-618.346 5914.73,-615.821 6274.02,-613.155 " />
<polyline fill="none" vector-effect="none" points="-570.278,279.478 -209.982,281.032 150.329,282.711 510.65,284.596 870.934,286.683 1231.18,288.844 1591.38,291.011 1951.52,293.21 2311.58,295.465 2671.53,297.777 3031.37,300.132 3391.12,302.53 3750.76,304.957 4110.32,307.368 4469.79,309.727 4829.15,312.169 5188.38,315.014 5547.42,317.882 5906.28,320.506 6265.08,323.324 " />
<polyline fill="none" vector-effect="none" points="-571.784,1216.47 -211.679,1217.88 148.399,1219.43 508.444,1221.14 868.442,1222.98 1228.37,1224.9 1588.21,1226.9 1947.95,1228.98 2307.56,1231.15 2667.04,1233.41 3026.38,1235.75 3385.61,1238.19 3744.73,1240.7 4103.76,1243.24 4462.69,1245.79 4821.52,1248.41 5180.24,1251.15 5538.88,1254.01 5897.47,1256.97 6256.08,1260.02 " />
<polyline fill="none" vector-effect="none" points="-573.118,2153.51 -213.217,2154.72 146.649,2155.97 506.468,2157.59 866.217,2159.42 1225.86,2161.21 1585.37,2162.98 1944.72,2164.89 2303.87,2166.95 2662.84,2169.11 3021.61,2171.37 3380.23,2173.82 3738.75,2176.38 4097.25,2179 4455.7,2181.7 4814.05,2184.47 5172.32,2187.34 5530.56,2190.32 5888.81,2193.4 6247.13,2196.6 " />
<polyline fill="none" vector-effect="none" points="-574.508,3090.7 -214.852,3091.81 144.807,3092.92 504.454,3094.17 864.021,3095.59 1223.44,3097 1582.67,3098.73 1941.68,3100.88 2300.45,3103.19 2658.98,3105.56 3017.23,3107.91 3375.24,3110.19 3733.13,3112.52 4091.15,3115 4449.02,3117.68 4806.8,3120.54 5164.64,3123.53 5522.59,3126.64 5880.64,3129.84 6238.67,3133.15 " />
<polyline fill="none" vector-effect="none" points="-575.914,4027.76 -216.507,4028.76 142.894,4029.85 502.278,4031.05 861.581,4032.39 1220.73,4033.91 1579.59,4035.44 1938.15,4037.05 2296.47,4039.19 2654.56,4041.18 3012.34,4043.42 3369.71,4045.65 3726.88,4047.87 4084.29,4050.5 4441.76,4053.38 4799.26,4056.45 5156.88,4059.67 5514.95,4063 5874.83,4066.32 6231.74,4069.76 " />
<polyline fill="none" vector-effect="none" points="-568.229,-657.545 -569.113,-286.95 -569.904,83.6339 -570.59,454.214 -571.196,824.791 -571.753,1195.36 -572.284,1565.94 -572.808,1936.54 -573.339,2307.16 -573.885,2677.81 -574.444,3048.47 -575.003,3419.11 -575.554,3789.71 -576.12,4160.27 " />
<polyline fill="none" vector-effect="none" points="371.061,-652.823 369.91,-282.405 368.861,88.0174 367.927,458.517 367.086,828.966 366.301,1199.35 365.549,1569.7 364.808,1940.05 364.063,2310.53 363.301,2681.15 362.516,3051.45 361.716,3421.91 360.904,3792.52 360.031,4163.06 " />
<polyline fill="none" vector-effect="none" points="1310.27,-647.171 1308.86,-276.739 1307.53,93.6191 1306.31,463.872 1305.16,834.069 1304.06,1204.23 1303.01,1574.41 1302,1944.71 1301.02,2315.15 1300.05,2685.41 1299.07,3055.19 1298.05,3425.28 1296.95,3796.09 1295.69,4166.72 " />
<polyline fill="none" vector-effect="none" points="2249.23,-641.202 2247.56,-270.841 2245.91,99.4156 2244.3,469.564 2242.73,839.634 2241.21,1209.67 2239.74,1579.72 2238.33,1949.84 2236.97,2320.04 2235.65,2690.29 2234.33,3060.57 2232.95,3430.88 2231.4,3801.09 2229.62,4171.07 " />
<polyline fill="none" vector-effect="none" points="3187.72,-635.066 3185.71,-264.733 3183.67,105.509 3181.61,475.653 3179.55,845.705 3177.5,1215.69 3175.47,1585.67 3173.49,1955.69 3171.56,2325.87 3169.71,2696.25 3167.93,3066.67 3166.12,3437.02 3164.13,3807.03 3161.67,4176.57 " />
<polyline fill="none" vector-effect="none" points="4125.64,-628.752 4123.26,-258.481 4120.78,111.757 4118.23,482.011 4115.63,852.168 4113.02,1222.22 4110.41,1592.28 4107.84,1962.37 4105.31,2332.53 4102.86,2702.73 4100.52,3072.9 4097.89,3442.98 4095.13,3812.94 4092.4,4182.86 " />
<polyline fill="none" vector-effect="none" points="5062.95,-621.946 5060.2,-251.641 5057.27,118.314 5054.17,488.476 5051.02,858.758 5047.86,1229.03 5044.75,1599.28 5041.69,1969.52 5038.69,2339.75 5035.72,2709.99 5032.73,3080.23 5029.69,3450.46 5026.59,3820.66 5023.73,4190.83 " />
<polyline fill="none" vector-effect="none" points="5999.36,-615.212 5996.14,-244.937 5992.67,125.357 5989.12,495.813 5985.62,866.202 5982.12,1236.58 5978.64,1606.96 5975.2,1977.32 5971.8,2347.68 5968.48,2718.03 5965.32,3088.41 5962.47,3458.83 5960.23,3829.2 5958.86,4199.44 " />
</g>

<g fill="none" stroke="#ff8080" stroke-opacity="0.501961" stroke-width="4" stroke-linecap="square" stroke-linejoin="miter" stroke-miterlimit="2" transform="matrix(1,0,0,1,0,0)"
font-family="DejaVu Sans" font-size="24" font-weight="400" font-style="normal" 
>
<polyline fill="none" vector-effect="none" points="3560.59,6538.1 -676.401,1409.64 " />
<polyline fill="none" vector-effect="none" points="-673.961,1400.79 10642.5,-2634.74 " />
<polyline fill="none" vector-effect="none" points="3570.57,6537.93 10645.2,-2631.1 " />
</g>

<g fill="none" stroke="#ff8080" stroke-opacity="1" stroke-width="1" stroke-linecap="square" stroke-linejoin="miter" stroke-miterlimit="2" transform="matrix(1,0,0,1,0,0)"
font-family="DejaVu Sans" font-size="64" font-weight="400" font-style="normal" 
>
<circle cx="4576.01" cy="2969.65" r="312.011"/>
</g>

<g fill="none" stroke="#00ffff" stroke-opacity="1" stroke-width="1" stroke-linecap="square" stroke-linejoin="miter" stroke-miterlimit="2" transform="matrix(1,0,0,1,0,0)"
font-family="DejaVu Sans" font-size="64" font-weight="400" font-style="normal" 
>
<circle cx="4394.28" cy="711.281" r="11.817"/>
</g>

<g fill="none" stroke="#ff8080" stroke-opacity="1" stroke-width="1" stroke-linecap="square" stroke-linejoin="miter" stroke-miterlimit="2" transform="matrix(1,0,0,1,0,0)"
font-family="DejaVu Sans" font-size="32" font-weight="400" font-style="normal" 
>
<text fill="#ff8080" fill-opacity="1" stroke="none" xml:space="preserve" x="4587" y="2982.15" font-family="DejaVu Sans" font-size="32" font-weight="400" font-style="normal" 
 >NGC2252</text>
</g>

<g fill="none" stroke="#00ffff" stroke-opacity="1" stroke-width="1" stroke-linecap="square" stroke-linejoin="miter" stroke-miterlimit="2" transform="matrix(1,0,0,1,0,0)"
font-family="DejaVu Sans" font-size="24" font-weight="400" font-style="normal" 
>
<text fill="#00ffff" fill-opacity="1" stroke="none" xml:space="preserve" x="4405.27" y="720.781" font-family="DejaVu Sans" font-size="24" font-weight="400" font-style="normal" 
 >PGC136569</text>
</g>

<g fill="none" stroke="#ffffff" stroke-opacity="1" stroke-width="1" stroke-linecap="square" stroke-linejoin="miter" stroke-miterlimit="2" transform="matrix(1,0,0,1,0,0)"
font-family="DejaVu Sans" font-size="24" font-weight="400" font-style="normal" 
>
<text fill="#ffffff" fill-opacity="1" stroke="none" xml:space="preserve" x="2245.05" y="323.044" font-family="DejaVu Sans" font-size="24" font-weight="400" font-style="normal" 
 >+4°</text>
<text fill="#ffffff" fill-opacity="1" stroke="none" xml:space="preserve" x="2241.11" y="1258.75" font-family="DejaVu Sans" font-size="24" font-weight="400" font-style="normal" 
 >+4°30′</text>
<text fill="#ffffff" fill-opacity="1" stroke="none" xml:space="preserve" x="2237.52" y="2194.56" font-family="DejaVu Sans" font-size="24" font-weight="400" font-style="normal" 
 >+5°</text>
<text fill="#ffffff" fill-opacity="1" stroke="none" xml:space="preserve" x="2234.17" y="3130.76" font-family="DejaVu Sans" font-size="24" font-weight="400" font-style="normal" 
 >+5°30′</text>
<text fill="#ffffff" fill-opacity="1" stroke="none" xml:space="preserve" x="2230.28" y="4066.8" font-family="DejaVu Sans" font-size="24" font-weight="400" font-style="normal" 
 >+6°</text>
<text fill="#ffffff" fill-opacity="1" stroke="none" xml:space="preserve" x="366.25" y="1220.44" font-family="DejaVu Sans" font-size="24" font-weight="400" font-style="normal" 
 >6ʰ26ᵐ</text>
<text fill="#ffffff" fill-opacity="1" stroke="none" xml:space="preserve" x="1304" y="1225.31" font-family="DejaVu Sans" font-size="24" font-weight="400" font-style="normal" 
 >6ʰ28ᵐ</text>
<text fill="#ffffff" fill-opacity="1" stroke="none" xml:space="preserve" x="2241.11" y="1230.75" font-family="DejaVu Sans" font-size="24" font-weight="400" font-style="normal" 
 >6ʰ30ᵐ</text>
<text fill="#ffffff" fill-opacity="1" stroke="none" xml:space="preserve" x="3177.38" y="1236.77" font-family="DejaVu Sans" font-size="24" font-weight="400" font-style="normal" 
 >6ʰ32ᵐ</text>
<text fill="#ffffff" fill-opacity="1" stroke="none" xml:space="preserve" x="4112.86" y="1243.3" font-family="DejaVu Sans" font-size="24" font-weight="400" font-style="normal" 
 >6ʰ34ᵐ</text>
<text fill="#ffffff" fill-opacity="1" stroke="none" xml:space="preserve" x="5047.67" y="1250.12" font-family="DejaVu Sans" font-size="24" font-weight="400" font-style="normal" 
 >6ʰ36ᵐ</text>
<text fill="#ffffff" fill-opacity="1" stroke="none" xml:space="preserve" x="5981.92" y="1257.68" font-family="DejaVu Sans" font-size="24" font-weight="400" font-style="normal" 
 >6ʰ38ᵐ</text>
</g>
</g>
</svg>
