<?xml version="1.0" encoding="UTF-8" standalone="no"?>
<svg viewBox="0 0 10845 7317"
 xmlns="http://www.w3.org/2000/svg" xmlns:xlink="http://www.w3.org/1999/xlink" version="1.2" baseProfile="tiny">
<title>PixInsight SVG Document</title>
<desc>Generated with PixInsight Core 1.9.3 (x64)</desc>
<defs>
</defs>
<g fill="none" stroke="black" stroke-width="1" fill-rule="evenodd" stroke-linecap="square" stroke-linejoin="bevel" >

<g fill="none" stroke="#000000" stroke-opacity="1" stroke-width="1" stroke-linecap="square" stroke-linejoin="bevel" transform="matrix(1,0,0,1,0,0)"
font-family="SF Pro Text" font-size="12" font-weight="400" font-style="normal" 
>
</g>

<g fill="none" stroke="#ffffff" stroke-opacity="0.501961" stroke-width="3" stroke-linecap="square" stroke-linejoin="miter" stroke-miterlimit="2" transform="matrix(1,0,0,1,0,0)"
font-family="SF Pro Text" font-size="12" font-weight="400" font-style="normal" 
>
<polyline fill="none" vector-effect="none" points="11449.9,8508.3 10734,8513.13 10018.3,8517.84 9302.83,8522.36 8587.53,8526.53 7872.37,8530.26 7157.28,8533.86 6442.14,8537.57 5726.89,8541.43 5011.57,8545.28 4296.31,8548.92 3581.07,8552.33 2865.78,8555.57 2150.38,8558.64 1434.78,8561.56 718.944,8564.34 2.91276,8566.96 " />
<polyline fill="none" vector-effect="none" points="11440.8,7257.96 10725.3,7262.93 10009.9,7267.61 9294.68,7272.08 8579.74,7276.55 7864.96,7279.73 7150.27,7283.29 6435.57,7287 5720.64,7290.97 5005.49,7295.08 4291.06,7298.69 3576.28,7302.03 2861.54,7305.21 2146.56,7308.2 1431.35,7311.03 715.759,7313.69 -0.135603,7316.25 " />
<polyline fill="none" vector-effect="none" points="11431.8,6007.88 10716.5,6012.76 10001.3,6017.46 9286.45,6021.69 8571.8,6025.84 7857.27,6029.8 7142.82,6033.62 6428.4,6037.46 5713.98,6041.16 4999.82,6045.07 4285.63,6048.67 3571.51,6051.97 2857.35,6055.08 2142.59,6058.01 1427.51,6060.72 712.254,6063.24 -3.01594,6065.61 " />
<polyline fill="none" vector-effect="none" points="11422.5,4757.65 10707.1,4762.64 9992.11,4767.14 9277.64,4771.65 8563.46,4776.01 7849.38,4780.41 7135.38,4784.36 6421.48,4788.3 5707.62,4792.12 4993.9,4795.78 4280.42,4799.09 3566.76,4802.13 2852.61,4805.18 2138.47,4808.07 1423.8,4810.69 708.825,4813.14 -6.20866,4815.36 " />
<polyline fill="none" vector-effect="none" points="11413.5,3507.29 10698.1,3512.59 9983.2,3517.71 9269.12,3522.45 8555.4,3526.8 7841.81,3530.93 7128.26,3535.02 6414.75,3539.22 5701.3,3543.04 4988.1,3546.67 4274.89,3550.03 3561.68,3552.8 2848.19,3556.11 2134.47,3558.65 1420.13,3561.07 705.749,3563.49 -8.91627,3565.25 " />
<polyline fill="none" vector-effect="none" points="11405.1,2256.71 10690.4,2262.25 9975.93,2267.59 9261.9,2272.59 8548.32,2277.22 7835.03,2281.62 7121.85,2285.89 6408.59,2289.99 5695.35,2293.91 4982.48,2297.75 4269.56,2300.99 3556.66,2303.87 2843.19,2306.64 2129.58,2309.25 1415.65,2311.75 701.664,2313.81 -12.4724,2315.93 " />
<polyline fill="none" vector-effect="none" points="11396.6,1005.9 10682.4,1011.65 9968.42,1017.19 9254.69,1022.49 8541.29,1027.44 7828.22,1032.02 7115.33,1036.4 6402.49,1040.66 5689.68,1044.7 4976.63,1048.31 4263.94,1051.5 3551.11,1054.39 2838.05,1057.01 2124.97,1059.48 1411.47,1061.76 698.184,1063.71 -15.2769,1066.48 " />
<polyline fill="none" vector-effect="none" points="11449.9,8508.3 11444.7,7794.18 11439.6,7080.34 11434.4,6366.5 11429.2,5652.49 11423.8,4938.55 11418.5,4224.58 11413.6,3510.53 11408.8,2796.36 11403.9,2082.22 11399.1,1367.96 11394.2,653.524 11389.5,-60.9291 " />
<polyline fill="none" vector-effect="none" points="10045.3,8517.67 10040.5,7803.67 10035.8,7089.78 10030.8,6375.86 10025.8,5662.04 10020.5,4947.9 10015.1,4233.88 10010.2,3520.75 10006,2806.88 10001.9,2092.95 9997.57,1378.92 9993.22,664.726 9988.87,-49.5555 " />
<polyline fill="none" vector-effect="none" points="8641.53,8526.23 8637.08,7812.42 8632.59,7098.45 8628.05,6384.15 8623.41,5670.18 8618.6,4956.48 8613.8,4243.22 8609.3,3529.72 8605.17,2816.12 8601.21,2102.52 8597.21,1388.83 8593.09,675.009 8588.92,-38.9921 " />
<polyline fill="none" vector-effect="none" points="7238.25,8533.45 7234.28,7819.23 7230.15,7105.24 7225.89,6391.62 7221.58,5677.94 7217.3,4964.62 7213.1,4251.38 7209.08,3537.79 7205.32,2824.42 7201.74,2111.12 7198.05,1397.64 7194.08,683.808 7190.06,-30.2676 " />
<polyline fill="none" vector-effect="none" points="5834.89,8540.85 5831.37,7826.68 5827.63,7112.68 5823.72,6399 5820.01,5685.4 5816.32,4972.25 5812.84,4259.02 5809.04,3545.73 5805.67,2832.22 5802.22,2119.13 5799.03,1405.84 5795.53,692.015 5791.75,-22.0772 " />
<polyline fill="none" vector-effect="none" points="4431.3,8548.25 4428.2,7834.29 4425.13,7120.36 4422.02,6406.5 4418.82,5692.83 4415.84,4979.29 4412.66,4265.87 4409.45,3552.55 4406.29,2839.36 4403.14,2126.22 4400.13,1412.67 4396.9,698.835 4393.71,-15.21 " />
<polyline fill="none" vector-effect="none" points="3027.78,8554.85 3025.26,7840.8 3022.84,7126.83 3020.38,6412.93 3017.73,5699.1 3015.03,4985.34 3012.42,4271.71 3009.76,3558.64 3006.84,2845.27 3004.16,2131.74 3001.29,1418.27 2998.14,704.393 2995.38,-9.77008 " />
<polyline fill="none" vector-effect="none" points="1623.88,8560.81 1621.88,7846.67 1619.82,7132.6 1617.6,6418.61 1615.36,5704.71 1613.2,4990.89 1611.16,4277.17 1608.89,3563.71 1606.25,2850.23 1603.63,2136.66 1601.48,1422.8 1599.09,708.998 1596.99,-4.95389 " />
<polyline fill="none" vector-effect="none" points="219.142,8566.19 217.378,7851.96 215.624,7137.74 213.918,6423.55 211.928,5709.53 210.112,4995.61 208.53,4281.79 206.924,3568.09 204.856,2854.33 202.652,2140.59 200.939,1427.31 199.475,713.567 197.994,-0.42394 " />
</g>

<g fill="none" stroke="#ff8080" stroke-opacity="0.501961" stroke-width="12" stroke-linecap="square" stroke-linejoin="miter" stroke-miterlimit="2" transform="matrix(1,0,0,1,0,0)"
font-family="DejaVu Sans" font-size="72" font-weight="400" font-style="normal" 
>
<polyline fill="none" vector-effect="none" points="4469.5,-5198.56 13041.7,4989.03 " />
<polyline fill="none" vector-effect="none" points="13039.3,4997.93 -9502.54,13349.2 " />
<polyline fill="none" vector-effect="none" points="4459.54,-5198.29 -9505.23,13345.6 " />
</g>

<g fill="none" stroke="#ff8080" stroke-opacity="1" stroke-width="3" stroke-linecap="square" stroke-linejoin="miter" stroke-miterlimit="2" transform="matrix(1,0,0,1,0,0)"
font-family="DejaVu Sans" font-size="192" font-weight="400" font-style="normal" 
>
<ellipse cx="5176.28" cy="3867.82" rx="868.262" ry="868.262"/>
<circle cx="5176.28" cy="3867.82" r="290.462"/>
<circle cx="6647.83" cy="3610.15" r="2498.59"/>
<ellipse cx="6594.24" cy="3593.27" rx="312.324" ry="312.324"/>
<ellipse cx="6741.36" cy="3349.92" rx="2498.59" ry="2498.59"/>
<circle cx="2519.82" cy="1981.47" r="624.649"/>
</g>

<g fill="none" stroke="#ffd700" stroke-opacity="1" stroke-width="3" stroke-linecap="square" stroke-linejoin="miter" stroke-miterlimit="2" transform="matrix(1,0,0,1,0,0)"
font-family="DejaVu Sans" font-size="192" font-weight="400" font-style="normal" 
>
<polyline fill="none" vector-effect="none" points="5021.42,4085.85 5036.42,4085.85 " />
<polyline fill="none" vector-effect="none" points="5071.42,4085.85 5056.42,4085.85 " />
<polyline fill="none" vector-effect="none" points="5046.42,4110.85 5046.42,4095.85 " />
<polyline fill="none" vector-effect="none" points="5046.42,4060.85 5046.42,4075.85 " />
</g>

<g fill="none" stroke="#ffd700" stroke-opacity="1" stroke-width="1" stroke-linecap="square" stroke-linejoin="miter" stroke-miterlimit="2" transform="matrix(1,0,0,1,0,0)"
font-family="DejaVu Sans" font-size="84" font-weight="400" font-style="normal" 
>
<text fill="#ffd700" fill-opacity="1" stroke="none" xml:space="preserve" x="5074.41" y="4118.35" font-family="DejaVu Sans" font-size="84" font-weight="400" font-style="normal" 
 >12 Mon</text>
</g>

<g fill="none" stroke="#ff8080" stroke-opacity="1" stroke-width="1" stroke-linecap="square" stroke-linejoin="miter" stroke-miterlimit="2" transform="matrix(1,0,0,1,0,0)"
font-family="DejaVu Sans" font-size="96" font-weight="400" font-style="normal" 
>
<text fill="#ff8080" fill-opacity="1" stroke="none" xml:space="preserve" x="4704.27" y="3904.82" font-family="DejaVu Sans" font-size="96" font-weight="400" font-style="normal" 
 >NGC2244</text>
<text fill="#ff8080" fill-opacity="1" stroke="none" xml:space="preserve" x="5190.27" y="3853.82" font-family="DejaVu Sans" font-size="96" font-weight="400" font-style="normal" 
 >NGC2239</text>
<text fill="#ff8080" fill-opacity="1" stroke="none" xml:space="preserve" x="5190.27" y="3956.82" font-family="DejaVu Sans" font-size="96" font-weight="400" font-style="normal" 
 >Rosette Nebula</text>
<text fill="#ff8080" fill-opacity="1" stroke="none" xml:space="preserve" x="6427.33" y="3712.15" font-family="DejaVu Sans" font-size="96" font-weight="400" font-style="normal" 
 >NGC2237</text>
<text fill="#ff8080" fill-opacity="1" stroke="none" xml:space="preserve" x="6372.23" y="3565.27" font-family="DejaVu Sans" font-size="96" font-weight="400" font-style="normal" 
 >NGC2246</text>
<text fill="#ff8080" fill-opacity="1" stroke="none" xml:space="preserve" x="6769.36" y="3386.92" font-family="DejaVu Sans" font-size="96" font-weight="400" font-style="normal" 
 >NGC2238</text>
<text fill="#ff8080" fill-opacity="1" stroke="none" xml:space="preserve" x="2547.81" y="2018.47" font-family="DejaVu Sans" font-size="96" font-weight="400" font-style="normal" 
 >NGC2252</text>
</g>

<g fill="none" stroke="#ffffff" stroke-opacity="1" stroke-width="1" stroke-linecap="square" stroke-linejoin="miter" stroke-miterlimit="2" transform="matrix(1,0,0,1,0,0)"
font-family="DejaVu Sans" font-size="72" font-weight="400" font-style="normal" 
>
<text fill="#ffffff" fill-opacity="1" stroke="none" xml:space="preserve" x="7223.72" y="6117.17" font-family="DejaVu Sans" font-size="72" font-weight="400" font-style="normal" 
 >+4°20′</text>
<text fill="#ffffff" fill-opacity="1" stroke="none" xml:space="preserve" x="7216.22" y="4867.91" font-family="DejaVu Sans" font-size="72" font-weight="400" font-style="normal" 
 >+4°40′</text>
<text fill="#ffffff" fill-opacity="1" stroke="none" xml:space="preserve" x="7209.05" y="3618.55" font-family="DejaVu Sans" font-size="72" font-weight="400" font-style="normal" 
 >+5°</text>
<text fill="#ffffff" fill-opacity="1" stroke="none" xml:space="preserve" x="7202.61" y="2369.41" font-family="DejaVu Sans" font-size="72" font-weight="400" font-style="normal" 
 >+5°20′</text>
<text fill="#ffffff" fill-opacity="1" stroke="none" xml:space="preserve" x="7196.05" y="1119.91" font-family="DejaVu Sans" font-size="72" font-weight="400" font-style="normal" 
 >+5°40′</text>
<text fill="#ffffff" fill-opacity="1" stroke="none" xml:space="preserve" x="10028.3" y="6017.29" font-family="DejaVu Sans" font-size="72" font-weight="400" font-style="normal" 
 >6ʰ27ᵐ</text>
<text fill="#ffffff" fill-opacity="1" stroke="none" xml:space="preserve" x="8625.73" y="6025.53" font-family="DejaVu Sans" font-size="72" font-weight="400" font-style="normal" 
 >6ʰ28ᵐ30ˢ</text>
<text fill="#ffffff" fill-opacity="1" stroke="none" xml:space="preserve" x="7223.72" y="6033.17" font-family="DejaVu Sans" font-size="72" font-weight="400" font-style="normal" 
 >6ʰ30ᵐ</text>
<text fill="#ffffff" fill-opacity="1" stroke="none" xml:space="preserve" x="5821.83" y="6040.58" font-family="DejaVu Sans" font-size="72" font-weight="400" font-style="normal" 
 >6ʰ31ᵐ30ˢ</text>
<text fill="#ffffff" fill-opacity="1" stroke="none" xml:space="preserve" x="4420.38" y="6048.02" font-family="DejaVu Sans" font-size="72" font-weight="400" font-style="normal" 
 >6ʰ33ᵐ</text>
<text fill="#ffffff" fill-opacity="1" stroke="none" xml:space="preserve" x="3019.11" y="6054.39" font-family="DejaVu Sans" font-size="72" font-weight="400" font-style="normal" 
 >6ʰ34ᵐ30ˢ</text>
<text fill="#ffffff" fill-opacity="1" stroke="none" xml:space="preserve" x="1616.47" y="6060.03" font-family="DejaVu Sans" font-size="72" font-weight="400" font-style="normal" 
 >6ʰ36ᵐ</text>
<text fill="#ffffff" fill-opacity="1" stroke="none" xml:space="preserve" x="212.953" y="6064.91" font-family="DejaVu Sans" font-size="72" font-weight="400" font-style="normal" 
 >6ʰ37ᵐ30ˢ</text>
</g>
</g>
</svg>
