<?xml version="1.0" encoding="UTF-8" standalone="no"?>
<svg viewBox="0 0 6235 4151"
 xmlns="http://www.w3.org/2000/svg" xmlns:xlink="http://www.w3.org/1999/xlink" version="1.2" baseProfile="tiny">
<title>PixInsight SVG Document</title>
<desc>Generated with PixInsight Core 1.8.9-3 (x64)</desc>
<defs>
</defs>
<g fill="none" stroke="black" stroke-width="1" fill-rule="evenodd" stroke-linecap="square" stroke-linejoin="bevel" >

<g fill="none" stroke="#000000" stroke-opacity="1" stroke-width="1" stroke-linecap="square" stroke-linejoin="bevel" transform="matrix(1,0,0,1,0,0)"
font-family="SF Pro Text" font-size="12" font-weight="400" font-style="normal" 
>
</g>

<g fill="none" stroke="#ffffff" stroke-opacity="0.501961" stroke-width="1" stroke-linecap="square" stroke-linejoin="miter" stroke-miterlimit="2" transform="matrix(1,0,0,1,0,0)"
font-family="SF Pro Text" font-size="12" font-weight="400" font-style="normal" 
>
<polyline fill="none" vector-effect="none" points="6550.78,5008.19 6341.27,5020.42 6131.72,5032.05 5922.12,5043.08 5712.47,5053.51 5502.78,5063.35 5293.05,5072.58 5083.31,5081.23 4873.54,5089.27 4663.77,5096.72 4454.01,5103.58 4244.24,5109.84 4034.49,5115.51 3824.75,5120.58 3615.01,5125.08 3405.25,5128.98 3195.49,5132.32 2985.71,5135.07 2775.91,5137.26 2566.11,5138.87 2356.3,5139.9 2146.5,5140.33 1936.69,5140.17 1726.88,5139.39 1517.07,5138.01 1307.25,5136.01 1097.41,5133.4 887.565,5130.18 677.704,5126.35 467.834,5121.9 257.956,5116.84 48.069,5111.17 -161.833,5104.92 " />
<polyline fill="none" vector-effect="none" points="6492.58,4072.6 6285.81,4084.71 6079.2,4096.23 5872.42,4107.14 5665.53,4117.46 5458.58,4127.2 5251.59,4136.34 5044.57,4144.9 4837.54,4152.87 4630.49,4160.24 4423.44,4167.01 4216.41,4173.19 4009.41,4178.76 3802.48,4183.73 3595.58,4188.11 3388.65,4191.9 3181.62,4195.12 2974.49,4197.79 2767.42,4199.92 2560.38,4201.55 2353.34,4202.68 2146.3,4203.24 1939.26,4203.12 1732.22,4202.34 1525.18,4200.94 1318.13,4198.96 1111.07,4196.4 903.976,4193.24 696.821,4189.47 489.639,4185.08 282.489,4179.99 75.4584,4174.24 -131.773,4168.07 " />
<polyline fill="none" vector-effect="none" points="6434.24,3137.13 6230.17,3149.17 6026.12,3160.61 5822.08,3171.46 5618.04,3181.73 5413.97,3191.41 5209.87,3200.51 5005.73,3209.01 4801.56,3216.92 4597.37,3224.24 4393.17,3230.95 4188.98,3237.07 3984.8,3242.58 3780.63,3247.5 3576.42,3251.82 3372.17,3255.54 3167.88,3258.69 2963.59,3261.26 2759.31,3263.27 2555.05,3264.73 2350.82,3265.65 2146.58,3266 1942.33,3265.78 1738.03,3265.01 1533.67,3263.71 1329.26,3261.82 1124.85,3259.35 920.486,3256.29 716.085,3252.62 511.631,3248.35 307.118,3243.46 102.556,3237.96 -102.046,3231.86 " />
<polyline fill="none" vector-effect="none" points="6377.25,2202.02 6175.78,2213.98 5974.55,2225.38 5773.26,2236.2 5571.98,2246.43 5370.5,2256.06 5168.88,2265.1 4967.52,2273.55 4766.13,2281.41 4564.37,2288.68 4362.7,2295.36 4161.24,2301.46 3959.89,2306.97 3758.98,2311.9 3558.02,2316.24 3356.43,2319.99 3154.56,2323.15 2952.86,2325.7 2751.17,2327.66 2549.47,2329.04 2347.95,2329.85 2146.81,2330.11 1945.68,2329.81 1744.31,2328.95 1542.8,2327.53 1341.16,2325.55 1139.37,2323 937.59,2319.88 735.906,2316.17 534.189,2311.88 332.264,2306.99 130.129,2301.52 -72.0046,2295.45 " />
<polyline fill="none" vector-effect="none" points="6321.97,1267.38 6122.49,1279.3 5923.78,1290.51 5725.03,1301.14 5526.22,1311.2 5327.14,1320.7 5128.13,1329.63 4929.56,1337.99 4730.57,1345.77 4531.74,1352.99 4333.1,1359.63 4134.35,1365.69 3935.44,1371.17 3736.75,1376.08 3538.09,1380.4 3339.3,1384.14 3140.61,1387.28 2941.61,1389.84 2743.24,1391.81 2544.52,1393.19 2345.64,1394 2146.63,1394.23 1947.45,1393.9 1748.45,1392.99 1549.84,1391.53 1351.26,1389.49 1152.37,1386.89 953.265,1383.71 754.12,1379.97 555.06,1375.65 356.004,1370.75 156.831,1365.27 -42.4874,1359.2 " />
<polyline fill="none" vector-effect="none" points="6265.09,330.983 6068.97,342.87 5873.05,354.125 5676.98,364.787 5480.79,374.877 5284.56,384.392 5088.23,393.331 4891.86,401.69 4695.53,409.469 4499.62,416.669 4303.53,423.291 4107.18,429.333 3911.34,434.796 3715.4,439.679 3519.11,443.981 3323.06,447.702 3126.13,450.84 2930.49,453.396 2734.64,455.37 2538.73,456.763 2342.73,457.577 2146.49,457.815 1950.39,457.479 1754.14,456.57 1557.87,455.088 1361.76,453.035 1165.51,450.408 969.142,447.208 772.668,443.431 576.133,439.073 379.538,434.132 182.883,428.615 -13.7617,422.537 " />
<polyline fill="none" vector-effect="none" points="6550.78,5008.19 6528.11,4641.34 6505.26,4274.57 6482.32,3907.87 6459.69,3541.16 6436.6,3174.36 6413.5,2807.58 6391.07,2440.97 6370.07,2074.67 6349.28,1708.42 6326.76,1341.89 6303.56,974.519 6281.54,607.394 6259.83,240.668 6238.79,-126.238 " />
<polyline fill="none" vector-effect="none" points="5490.76,5063.89 5473.57,4696.83 5456.29,4329.83 5438.91,3962.9 5421.48,3596.02 5404.04,3229.18 5386.74,2862.4 5369.8,2495.72 5353.2,2129.12 5336.35,1762.49 5319.08,1395.71 5302.46,1028.73 5285.52,661.64 5269.33,294.515 5253.12,-72.6358 " />
<polyline fill="none" vector-effect="none" points="4429.97,5104.33 4418.12,4737.09 4406.24,4369.93 4394.42,4002.84 4382.67,3635.84 4370.96,3268.92 4359.22,2902.09 4347.38,2535.31 4335.51,2168.55 4323.9,1801.74 4312.56,1434.84 4301.02,1067.85 4289.78,700.762 4278.11,333.593 4266.21,-33.6449 " />
<polyline fill="none" vector-effect="none" points="3369.2,5129.6 3362.87,4762.17 3356.55,4394.8 3350.18,4027.5 3343.83,3660.35 3337.67,3293.37 3331.65,2926.53 3325.68,2559.78 3319.43,2193.03 3312.75,1826.19 3306.4,1459.23 3299.45,1092.18 3293.78,725.056 3287.8,357.855 3281.65,-9.42871 " />
<polyline fill="none" vector-effect="none" points="2308.22,5140.05 2307.3,4772.61 2306.38,4405.21 2305.51,4037.82 2304.74,3670.36 2304.07,3303.04 2303.41,2936.05 2302.58,2569.21 2301.39,2202.4 2301.18,1835.54 2300.24,1468.6 2299.73,1101.57 2298.65,734.456 2297.55,367.253 2297.45,-0.0381454 " />
<polyline fill="none" vector-effect="none" points="1247.13,5135.33 1251.69,4767.97 1256.28,4400.62 1260.87,4033.23 1265.48,3665.8 1270.2,3298.45 1275.23,2931.28 1280.27,2564.24 1284.89,2197.27 1288.82,1830.31 1293.3,1463.31 1298.25,1096.25 1302.52,729.12 1306.58,361.911 1311.07,-5.37747 " />
<polyline fill="none" vector-effect="none" points="185.802,5114.96 195.769,4747.63 205.766,4380.35 215.939,4013.07 225.774,3646.2 235.777,3278.92 245.878,2911.71 256.07,2544.6 266.387,2177.54 276.173,1810.5 285.612,1443.45 295.185,1076.33 304.647,709.12 314.375,341.868 324.502,-25.3771 " />
</g>

<g fill="none" stroke="#ff8080" stroke-opacity="1" stroke-width="1" stroke-linecap="square" stroke-linejoin="miter" stroke-miterlimit="2" transform="matrix(1,0,0,1,0,0)"
font-family="DejaVu Sans" font-size="64" font-weight="400" font-style="normal" 
>
<circle cx="3580.12" cy="2064.93" r="467.974"/>
<circle cx="2723.54" cy="2049.05" r="467.974"/>
</g>

<g fill="none" stroke="#00ffff" stroke-opacity="1" stroke-width="1" stroke-linecap="square" stroke-linejoin="miter" stroke-miterlimit="2" transform="matrix(1,0,0,1,0,0)"
font-family="DejaVu Sans" font-size="64" font-weight="400" font-style="normal" 
>
</g>

<g fill="none" stroke="#00ffff" stroke-opacity="1" stroke-width="1" stroke-linecap="square" stroke-linejoin="miter" stroke-miterlimit="2" transform="matrix(0.224255,-0.97453,0.97453,0.224255,3457.62,4046.5)"
font-family="DejaVu Sans" font-size="64" font-weight="400" font-style="normal" 
>
<ellipse cx="0" cy="0" rx="12.1683" ry="8.22677"/>
</g>

<g fill="none" stroke="#00ffff" stroke-opacity="1" stroke-width="1" stroke-linecap="square" stroke-linejoin="miter" stroke-miterlimit="2" transform="matrix(1,0,0,1,0,0)"
font-family="DejaVu Sans" font-size="64" font-weight="400" font-style="normal" 
>
<circle cx="1092.15" cy="3989.41" r="12.0931"/>
<ellipse cx="1033.27" cy="3970.33" rx="14.6993" ry="14.6993"/>
<circle cx="1429.23" cy="3747.54" r="11.8172"/>
<circle cx="2174.43" cy="3661.13" r="16.2486"/>
</g>

<g fill="none" stroke="#00ffff" stroke-opacity="1" stroke-width="1" stroke-linecap="square" stroke-linejoin="miter" stroke-miterlimit="2" transform="matrix(0.999994,0.00338491,-0.00338491,0.999994,5635.69,3500.83)"
font-family="DejaVu Sans" font-size="64" font-weight="400" font-style="normal" 
>
<ellipse cx="0" cy="0" rx="11.8823" ry="7.15981"/>
</g>

<g fill="none" stroke="#00ffff" stroke-opacity="1" stroke-width="1" stroke-linecap="square" stroke-linejoin="miter" stroke-miterlimit="2" transform="matrix(1,0,0,1,0,0)"
font-family="DejaVu Sans" font-size="64" font-weight="400" font-style="normal" 
>
<circle cx="2170.54" cy="3538.72" r="13.043"/>
<ellipse cx="1710.45" cy="3511.6" rx="14.6993" ry="14.6993"/>
<ellipse cx="81.2583" cy="3263.91" rx="14.6993" ry="14.6993"/>
<circle cx="3269.78" cy="3249.39" r="12.579"/>
<ellipse cx="261.265" cy="3214.16" rx="13.2422" ry="13.2422"/>
</g>

<g fill="none" stroke="#00ffff" stroke-opacity="1" stroke-width="1" stroke-linecap="square" stroke-linejoin="miter" stroke-miterlimit="2" transform="matrix(0.260625,0.96544,-0.96544,0.260625,5985.14,3053.33)"
font-family="DejaVu Sans" font-size="64" font-weight="400" font-style="normal" 
>
<ellipse cx="0" cy="0" rx="12.0931" ry="5.92294"/>
</g>

<g fill="none" stroke="#00ffff" stroke-opacity="1" stroke-width="1" stroke-linecap="square" stroke-linejoin="miter" stroke-miterlimit="2" transform="matrix(1,0,0,1,0,0)"
font-family="DejaVu Sans" font-size="64" font-weight="400" font-style="normal" 
>
</g>

<g fill="none" stroke="#00ffff" stroke-opacity="1" stroke-width="1" stroke-linecap="square" stroke-linejoin="miter" stroke-miterlimit="2" transform="matrix(0.329079,-0.944302,0.944302,0.329079,667.855,2989.28)"
font-family="DejaVu Sans" font-size="64" font-weight="400" font-style="normal" 
>
<ellipse cx="0" cy="0" rx="11.6382" ry="5.08028"/>
</g>

<g fill="none" stroke="#00ffff" stroke-opacity="1" stroke-width="1" stroke-linecap="square" stroke-linejoin="miter" stroke-miterlimit="2" transform="matrix(1,0,0,1,0,0)"
font-family="DejaVu Sans" font-size="64" font-weight="400" font-style="normal" 
>
<circle cx="4778.06" cy="2933.06" r="12.0203"/>
<circle cx="6167.88" cy="2838.73" r="14.9455"/>
<ellipse cx="74.5961" cy="2878.87" rx="13.5544" ry="13.5544"/>
</g>

<g fill="none" stroke="#00ffff" stroke-opacity="1" stroke-width="1" stroke-linecap="square" stroke-linejoin="miter" stroke-miterlimit="2" transform="matrix(0.162146,0.986767,-0.986767,0.162146,110.915,2870.54)"
font-family="DejaVu Sans" font-size="64" font-weight="400" font-style="normal" 
>
<ellipse cx="0" cy="0" rx="11.8823" ry="6.23594"/>
</g>

<g fill="none" stroke="#00ffff" stroke-opacity="1" stroke-width="1" stroke-linecap="square" stroke-linejoin="miter" stroke-miterlimit="2" transform="matrix(1,0,0,1,0,0)"
font-family="DejaVu Sans" font-size="64" font-weight="400" font-style="normal" 
>
<ellipse cx="1732.74" cy="2852.49" rx="13.3445" ry="13.3445"/>
<circle cx="3479.12" cy="2766.44" r="13.043"/>
</g>

<g fill="none" stroke="#00ffff" stroke-opacity="1" stroke-width="1" stroke-linecap="square" stroke-linejoin="miter" stroke-miterlimit="2" transform="matrix(0.873088,-0.487563,0.487563,0.873088,6043,2465.28)"
font-family="DejaVu Sans" font-size="64" font-weight="400" font-style="normal" 
>
<ellipse cx="0" cy="0" rx="11.95" ry="8.26741"/>
</g>

<g fill="none" stroke="#00ffff" stroke-opacity="1" stroke-width="1" stroke-linecap="square" stroke-linejoin="miter" stroke-miterlimit="2" transform="matrix(1,0,0,1,0,0)"
font-family="DejaVu Sans" font-size="64" font-weight="400" font-style="normal" 
>
<ellipse cx="1682.59" cy="2532.4" rx="12.6678" ry="12.6678"/>
</g>

<g fill="none" stroke="#00ffff" stroke-opacity="1" stroke-width="1" stroke-linecap="square" stroke-linejoin="miter" stroke-miterlimit="2" transform="matrix(0.771874,0.635776,-0.635776,0.771874,1576.14,2479.12)"
font-family="DejaVu Sans" font-size="64" font-weight="400" font-style="normal" 
>
<ellipse cx="0" cy="0" rx="11.7548" ry="4.90022"/>
</g>

<g fill="none" stroke="#00ffff" stroke-opacity="1" stroke-width="1" stroke-linecap="square" stroke-linejoin="miter" stroke-miterlimit="2" transform="matrix(1,0,0,1,0,0)"
font-family="DejaVu Sans" font-size="64" font-weight="400" font-style="normal" 
>
</g>

<g fill="none" stroke="#00ffff" stroke-opacity="1" stroke-width="1" stroke-linecap="square" stroke-linejoin="miter" stroke-miterlimit="2" transform="matrix(0.183077,-0.983099,0.983099,0.183077,270.968,2378.27)"
font-family="DejaVu Sans" font-size="64" font-weight="400" font-style="normal" 
>
<ellipse cx="0" cy="0" rx="11.2387" ry="9.34796"/>
</g>

<g fill="none" stroke="#00ffff" stroke-opacity="1" stroke-width="1" stroke-linecap="square" stroke-linejoin="miter" stroke-miterlimit="2" transform="matrix(1,0,0,1,0,0)"
font-family="DejaVu Sans" font-size="64" font-weight="400" font-style="normal" 
>
<circle cx="764.854" cy="2287.08" r="11.5842"/>
<circle cx="5179.52" cy="2145.95" r="16.7997"/>
<ellipse cx="5213.04" cy="2097.11" rx="15.8458" ry="15.8458"/>
<circle cx="5101.26" cy="2093.62" r="14.6993"/>
<ellipse cx="4122.65" cy="2110.61" rx="15.8458" ry="15.8458"/>
<ellipse cx="5116.66" cy="2047.68" rx="14.6993" ry="14.6993"/>
<ellipse cx="5807.75" cy="1985.03" rx="14.2234" ry="14.2234"/>
</g>

<g fill="none" stroke="#00ffff" stroke-opacity="1" stroke-width="1" stroke-linecap="square" stroke-linejoin="miter" stroke-miterlimit="2" transform="matrix(0.963569,0.26746,-0.26746,0.963569,5172.3,1950.53)"
font-family="DejaVu Sans" font-size="64" font-weight="400" font-style="normal" 
>
<ellipse cx="0" cy="0" rx="11.7548" ry="6.02859"/>
</g>

<g fill="none" stroke="#00ffff" stroke-opacity="1" stroke-width="1" stroke-linecap="square" stroke-linejoin="miter" stroke-miterlimit="2" transform="matrix(1,0,0,1,0,0)"
font-family="DejaVu Sans" font-size="64" font-weight="400" font-style="normal" 
>
</g>

<g fill="none" stroke="#00ffff" stroke-opacity="1" stroke-width="1" stroke-linecap="square" stroke-linejoin="miter" stroke-miterlimit="2" transform="matrix(0.203135,-0.979151,0.979151,0.203135,6128.63,1841.88)"
font-family="DejaVu Sans" font-size="64" font-weight="400" font-style="normal" 
>
<ellipse cx="0" cy="0" rx="12.3258" ry="6.32143"/>
</g>

<g fill="none" stroke="#00ffff" stroke-opacity="1" stroke-width="1" stroke-linecap="square" stroke-linejoin="miter" stroke-miterlimit="2" transform="matrix(1,0,0,1,0,0)"
font-family="DejaVu Sans" font-size="64" font-weight="400" font-style="normal" 
>
<circle cx="1219.93" cy="1913.72" r="13.8818"/>
<ellipse cx="6072.42" cy="1775.83" rx="11.3596" ry="11.3596"/>
<ellipse cx="6130.72" cy="1772.5" rx="13.8818" ry="13.8818"/>
<circle cx="4596.54" cy="1775.47" r="12.2459"/>
<circle cx="5383.45" cy="1619.74" r="12.9462"/>
<circle cx="4936.27" cy="1561.11" r="11.8172"/>
<ellipse cx="4679.12" cy="1561.68" rx="14.6993" ry="14.6993"/>
</g>

<g fill="none" stroke="#00ffff" stroke-opacity="1" stroke-width="1" stroke-linecap="square" stroke-linejoin="miter" stroke-miterlimit="2" transform="matrix(0.575571,0.817752,-0.817752,0.575571,1122.18,1595.58)"
font-family="DejaVu Sans" font-size="64" font-weight="400" font-style="normal" 
>
<ellipse cx="0" cy="0" rx="11.1675" ry="6.27997"/>
</g>

<g fill="none" stroke="#00ffff" stroke-opacity="1" stroke-width="1" stroke-linecap="square" stroke-linejoin="miter" stroke-miterlimit="2" transform="matrix(1,0,0,1,0,0)"
font-family="DejaVu Sans" font-size="64" font-weight="400" font-style="normal" 
>
</g>

<g fill="none" stroke="#00ffff" stroke-opacity="1" stroke-width="1" stroke-linecap="square" stroke-linejoin="miter" stroke-miterlimit="2" transform="matrix(0.19848,-0.980105,0.980105,0.19848,2823.58,1572.08)"
font-family="DejaVu Sans" font-size="64" font-weight="400" font-style="normal" 
>
<ellipse cx="0" cy="0" rx="11.6951" ry="3.78447"/>
</g>

<g fill="none" stroke="#00ffff" stroke-opacity="1" stroke-width="1" stroke-linecap="square" stroke-linejoin="miter" stroke-miterlimit="2" transform="matrix(1,0,0,1,0,0)"
font-family="DejaVu Sans" font-size="64" font-weight="400" font-style="normal" 
>
<circle cx="1432.65" cy="1412.76" r="26.4911"/>
<ellipse cx="3959.36" cy="1391.88" rx="14.6993" ry="14.6993"/>
<ellipse cx="4068.66" cy="1312.91" rx="14.6993" ry="14.6993"/>
</g>

<g fill="none" stroke="#00ffff" stroke-opacity="1" stroke-width="1" stroke-linecap="square" stroke-linejoin="miter" stroke-miterlimit="2" transform="matrix(0.316159,-0.948706,0.948706,0.316159,5238.5,1199.17)"
font-family="DejaVu Sans" font-size="64" font-weight="400" font-style="normal" 
>
<ellipse cx="0" cy="0" rx="11.3089" ry="8.19255"/>
</g>

<g fill="none" stroke="#00ffff" stroke-opacity="1" stroke-width="1" stroke-linecap="square" stroke-linejoin="miter" stroke-miterlimit="2" transform="matrix(1,0,0,1,0,0)"
font-family="DejaVu Sans" font-size="64" font-weight="400" font-style="normal" 
>
<ellipse cx="539.411" cy="1142.62" rx="15.1967" ry="15.1967"/>
<ellipse cx="1049.48" cy="969.046" rx="14.6993" ry="14.6993"/>
</g>

<g fill="none" stroke="#00ffff" stroke-opacity="1" stroke-width="1" stroke-linecap="square" stroke-linejoin="miter" stroke-miterlimit="2" transform="matrix(0.992799,0.119788,-0.119788,0.992799,1109.28,905.464)"
font-family="DejaVu Sans" font-size="64" font-weight="400" font-style="normal" 
>
<ellipse cx="0" cy="0" rx="11.7548" ry="5.37299"/>
</g>

<g fill="none" stroke="#00ffff" stroke-opacity="1" stroke-width="1" stroke-linecap="square" stroke-linejoin="miter" stroke-miterlimit="2" transform="matrix(1,0,0,1,0,0)"
font-family="DejaVu Sans" font-size="64" font-weight="400" font-style="normal" 
>
<circle cx="475.054" cy="892.22" r="11.8172"/>
<ellipse cx="6142.83" cy="614.323" rx="17.3657" ry="17.3657"/>
<ellipse cx="3906.62" cy="579.149" rx="17.3657" ry="17.3657"/>
<ellipse cx="5139.05" cy="472.911" rx="15.8458" ry="15.8458"/>
<circle cx="377.186" cy="299.707" r="12.2459"/>
<ellipse cx="5338.62" cy="75.7785" rx="16.5222" ry="16.5222"/>
</g>

<g fill="none" stroke="#ffd700" stroke-opacity="1" stroke-width="1" stroke-linecap="square" stroke-linejoin="miter" stroke-miterlimit="2" transform="matrix(1,0,0,1,0,0)"
font-family="DejaVu Sans" font-size="64" font-weight="400" font-style="normal" 
>
<polyline fill="none" vector-effect="none" points="1967.47,3060.2 1972.47,3060.2 " />
<polyline fill="none" vector-effect="none" points="1987.47,3060.2 1982.47,3060.2 " />
<polyline fill="none" vector-effect="none" points="1977.47,3070.2 1977.47,3065.2 " />
<polyline fill="none" vector-effect="none" points="1977.47,3050.2 1977.47,3055.2 " />
<polyline fill="none" vector-effect="none" points="3777.69,1344.3 3782.69,1344.3 " />
<polyline fill="none" vector-effect="none" points="3797.69,1344.3 3792.69,1344.3 " />
<polyline fill="none" vector-effect="none" points="3787.69,1354.3 3787.69,1349.3 " />
<polyline fill="none" vector-effect="none" points="3787.69,1334.3 3787.69,1339.3 " />
<polyline fill="none" vector-effect="none" points="5421.59,1042.63 5426.59,1042.63 " />
<polyline fill="none" vector-effect="none" points="5441.59,1042.63 5436.59,1042.63 " />
<polyline fill="none" vector-effect="none" points="5431.59,1052.63 5431.59,1047.63 " />
<polyline fill="none" vector-effect="none" points="5431.59,1032.63 5431.59,1037.63 " />
<polyline fill="none" vector-effect="none" points="3780.09,625.648 3785.09,625.648 " />
<polyline fill="none" vector-effect="none" points="3800.09,625.648 3795.09,625.648 " />
<polyline fill="none" vector-effect="none" points="3790.09,635.648 3790.09,630.648 " />
<polyline fill="none" vector-effect="none" points="3790.09,615.648 3790.09,620.648 " />
</g>

<g fill="none" stroke="#ffd700" stroke-opacity="1" stroke-width="1" stroke-linecap="square" stroke-linejoin="miter" stroke-miterlimit="2" transform="matrix(1,0,0,1,0,0)"
font-family="DejaVu Sans" font-size="28" font-weight="400" font-style="normal" 
>
<text fill="#ffd700" fill-opacity="1" stroke="none" xml:space="preserve" x="1988.45" y="3071.2" font-family="DejaVu Sans" font-size="28" font-weight="400" font-style="normal" 
 >10 Per</text>
<text fill="#ffd700" fill-opacity="1" stroke="none" xml:space="preserve" x="3798.69" y="1357.8" font-family="DejaVu Sans" font-size="28" font-weight="400" font-style="normal" 
 >7 χ </text>
<text fill="#ffd700" fill-opacity="1" stroke="none" xml:space="preserve" x="3850.45" y="1357.8" font-family="DejaVu Sans" font-size="28" font-weight="400" font-style="normal" 
 >Per</text>
<text fill="#ffd700" fill-opacity="1" stroke="none" xml:space="preserve" x="5442.59" y="1053.63" font-family="DejaVu Sans" font-size="28" font-weight="400" font-style="normal" 
 >5 Per</text>
<text fill="#ffd700" fill-opacity="1" stroke="none" xml:space="preserve" x="3708.08" y="636.648" font-family="DejaVu Sans" font-size="28" font-weight="400" font-style="normal" 
 >8 Per</text>
</g>

<g fill="none" stroke="#ff8080" stroke-opacity="1" stroke-width="1" stroke-linecap="square" stroke-linejoin="miter" stroke-miterlimit="2" transform="matrix(1,0,0,1,0,0)"
font-family="DejaVu Sans" font-size="32" font-weight="400" font-style="normal" 
>
<text fill="#ff8080" fill-opacity="1" stroke="none" xml:space="preserve" x="3516.11" y="2053.93" font-family="DejaVu Sans" font-size="32" font-weight="400" font-style="normal" 
 >NGC869</text>
<text fill="#ff8080" fill-opacity="1" stroke="none" xml:space="preserve" x="3462.61" y="2101.93" font-family="DejaVu Sans" font-size="32" font-weight="400" font-style="normal" 
 >Double Cluster</text>
<text fill="#ff8080" fill-opacity="1" stroke="none" xml:space="preserve" x="2659.53" y="2038.05" font-family="DejaVu Sans" font-size="32" font-weight="400" font-style="normal" 
 >NGC884</text>
<text fill="#ff8080" fill-opacity="1" stroke="none" xml:space="preserve" x="2606.03" y="2086.05" font-family="DejaVu Sans" font-size="32" font-weight="400" font-style="normal" 
 >Double Cluster</text>
</g>

<g fill="none" stroke="#00ffff" stroke-opacity="1" stroke-width="1" stroke-linecap="square" stroke-linejoin="miter" stroke-miterlimit="2" transform="matrix(1,0,0,1,0,0)"
font-family="DejaVu Sans" font-size="24" font-weight="400" font-style="normal" 
>
<text fill="#00ffff" fill-opacity="1" stroke="none" xml:space="preserve" x="3468.61" y="4056" font-family="DejaVu Sans" font-size="24" font-weight="400" font-style="normal" 
 >PGC168290</text>
<text fill="#00ffff" fill-opacity="1" stroke="none" xml:space="preserve" x="1015.14" y="4019.41" font-family="DejaVu Sans" font-size="24" font-weight="400" font-style="normal" 
 >PGC2797154</text>
<text fill="#00ffff" fill-opacity="1" stroke="none" xml:space="preserve" x="956.25" y="3959.33" font-family="DejaVu Sans" font-size="24" font-weight="400" font-style="normal" 
 >PGC2797158</text>
<text fill="#00ffff" fill-opacity="1" stroke="none" xml:space="preserve" x="1440.22" y="3757.04" font-family="DejaVu Sans" font-size="24" font-weight="400" font-style="normal" 
 >PGC2797143</text>
<text fill="#00ffff" fill-opacity="1" stroke="none" xml:space="preserve" x="2185.42" y="3670.63" font-family="DejaVu Sans" font-size="24" font-weight="400" font-style="normal" 
 >PGC168294</text>
<text fill="#00ffff" fill-opacity="1" stroke="none" xml:space="preserve" x="5646.67" y="3510.33" font-family="DejaVu Sans" font-size="24" font-weight="400" font-style="normal" 
 >PGC168284</text>
<text fill="#00ffff" fill-opacity="1" stroke="none" xml:space="preserve" x="2181.53" y="3548.22" font-family="DejaVu Sans" font-size="24" font-weight="400" font-style="normal" 
 >PGC168293</text>
<text fill="#00ffff" fill-opacity="1" stroke="none" xml:space="preserve" x="1721.44" y="3521.1" font-family="DejaVu Sans" font-size="24" font-weight="400" font-style="normal" 
 >PGC2797122</text>
<text fill="#00ffff" fill-opacity="1" stroke="none" xml:space="preserve" x="86.75" y="3288.41" font-family="DejaVu Sans" font-size="24" font-weight="400" font-style="normal" 
 >PGC2797183</text>
<text fill="#00ffff" fill-opacity="1" stroke="none" xml:space="preserve" x="3119.77" y="3258.89" font-family="DejaVu Sans" font-size="24" font-weight="400" font-style="normal" 
 >PGC168289</text>
<text fill="#00ffff" fill-opacity="1" stroke="none" xml:space="preserve" x="184.25" y="3203.16" font-family="DejaVu Sans" font-size="24" font-weight="400" font-style="normal" 
 >PGC2797171</text>
<text fill="#00ffff" fill-opacity="1" stroke="none" xml:space="preserve" x="5996.13" y="3062.83" font-family="DejaVu Sans" font-size="24" font-weight="400" font-style="normal" 
 >PGC168280</text>
<text fill="#00ffff" fill-opacity="1" stroke="none" xml:space="preserve" x="678.844" y="2998.78" font-family="DejaVu Sans" font-size="24" font-weight="400" font-style="normal" 
 >PGC2543133</text>
<text fill="#00ffff" fill-opacity="1" stroke="none" xml:space="preserve" x="4789.05" y="2942.56" font-family="DejaVu Sans" font-size="24" font-weight="400" font-style="normal" 
 >PGC168286</text>
<text fill="#00ffff" fill-opacity="1" stroke="none" xml:space="preserve" x="6017.88" y="2848.23" font-family="DejaVu Sans" font-size="24" font-weight="400" font-style="normal" 
 >PGC168279</text>
<text fill="#00ffff" fill-opacity="1" stroke="none" xml:space="preserve" x="80.0938" y="2903.37" font-family="DejaVu Sans" font-size="24" font-weight="400" font-style="normal" 
 >PGC2797175</text>
<text fill="#00ffff" fill-opacity="1" stroke="none" xml:space="preserve" x="33.9063" y="2859.54" font-family="DejaVu Sans" font-size="24" font-weight="400" font-style="normal" 
 >PGC2544811</text>
<text fill="#00ffff" fill-opacity="1" stroke="none" xml:space="preserve" x="1743.73" y="2861.99" font-family="DejaVu Sans" font-size="24" font-weight="400" font-style="normal" 
 >PGC168296</text>
<text fill="#00ffff" fill-opacity="1" stroke="none" xml:space="preserve" x="3490.11" y="2775.94" font-family="DejaVu Sans" font-size="24" font-weight="400" font-style="normal" 
 >PGC168288</text>
<text fill="#00ffff" fill-opacity="1" stroke="none" xml:space="preserve" x="5877.98" y="2474.78" font-family="DejaVu Sans" font-size="24" font-weight="400" font-style="normal" 
 >PGC2550299</text>
<text fill="#00ffff" fill-opacity="1" stroke="none" xml:space="preserve" x="1693.58" y="2541.9" font-family="DejaVu Sans" font-size="24" font-weight="400" font-style="normal" 
 >PGC168295</text>
<text fill="#00ffff" fill-opacity="1" stroke="none" xml:space="preserve" x="1587.13" y="2488.62" font-family="DejaVu Sans" font-size="24" font-weight="400" font-style="normal" 
 >PGC2551889</text>
<text fill="#00ffff" fill-opacity="1" stroke="none" xml:space="preserve" x="281.953" y="2387.77" font-family="DejaVu Sans" font-size="24" font-weight="400" font-style="normal" 
 >PGC2553051</text>
<text fill="#00ffff" fill-opacity="1" stroke="none" xml:space="preserve" x="775.844" y="2296.58" font-family="DejaVu Sans" font-size="24" font-weight="400" font-style="normal" 
 >PGC2797147</text>
<text fill="#00ffff" fill-opacity="1" stroke="none" xml:space="preserve" x="5190.52" y="2155.45" font-family="DejaVu Sans" font-size="24" font-weight="400" font-style="normal" 
 >PGC168283</text>
<text fill="#00ffff" fill-opacity="1" stroke="none" xml:space="preserve" x="5224.03" y="2106.61" font-family="DejaVu Sans" font-size="24" font-weight="400" font-style="normal" 
 >PGC2796987</text>
<text fill="#00ffff" fill-opacity="1" stroke="none" xml:space="preserve" x="4936.25" y="2103.12" font-family="DejaVu Sans" font-size="24" font-weight="400" font-style="normal" 
 >PGC2796994</text>
<text fill="#00ffff" fill-opacity="1" stroke="none" xml:space="preserve" x="4133.64" y="2120.11" font-family="DejaVu Sans" font-size="24" font-weight="400" font-style="normal" 
 >PGC2797022</text>
<text fill="#00ffff" fill-opacity="1" stroke="none" xml:space="preserve" x="5127.66" y="2057.18" font-family="DejaVu Sans" font-size="24" font-weight="400" font-style="normal" 
 >PGC2796993</text>
<text fill="#00ffff" fill-opacity="1" stroke="none" xml:space="preserve" x="5818.75" y="1994.53" font-family="DejaVu Sans" font-size="24" font-weight="400" font-style="normal" 
 >PGC2796970</text>
<text fill="#00ffff" fill-opacity="1" stroke="none" xml:space="preserve" x="5183.28" y="1960.03" font-family="DejaVu Sans" font-size="24" font-weight="400" font-style="normal" 
 >PGC2558934</text>
<text fill="#00ffff" fill-opacity="1" stroke="none" xml:space="preserve" x="5963.63" y="1851.38" font-family="DejaVu Sans" font-size="24" font-weight="400" font-style="normal" 
 >PGC2559809</text>
<text fill="#00ffff" fill-opacity="1" stroke="none" xml:space="preserve" x="1230.92" y="1923.22" font-family="DejaVu Sans" font-size="24" font-weight="400" font-style="normal" 
 >PGC2797111</text>
<text fill="#00ffff" fill-opacity="1" stroke="none" xml:space="preserve" x="5995.41" y="1805.83" font-family="DejaVu Sans" font-size="24" font-weight="400" font-style="normal" 
 >PGC2796963</text>
<text fill="#00ffff" fill-opacity="1" stroke="none" xml:space="preserve" x="6042.7" y="1761.5" font-family="DejaVu Sans" font-size="24" font-weight="400" font-style="normal" 
 >PGC2796961</text>
<text fill="#00ffff" fill-opacity="1" stroke="none" xml:space="preserve" x="4607.53" y="1784.97" font-family="DejaVu Sans" font-size="24" font-weight="400" font-style="normal" 
 >PGC2797006</text>
<text fill="#00ffff" fill-opacity="1" stroke="none" xml:space="preserve" x="5394.44" y="1629.24" font-family="DejaVu Sans" font-size="24" font-weight="400" font-style="normal" 
 >PGC2796977</text>
<text fill="#00ffff" fill-opacity="1" stroke="none" xml:space="preserve" x="4947.27" y="1570.61" font-family="DejaVu Sans" font-size="24" font-weight="400" font-style="normal" 
 >PGC2796992</text>
<text fill="#00ffff" fill-opacity="1" stroke="none" xml:space="preserve" x="4690.11" y="1571.18" font-family="DejaVu Sans" font-size="24" font-weight="400" font-style="normal" 
 >PGC2797002</text>
<text fill="#00ffff" fill-opacity="1" stroke="none" xml:space="preserve" x="1133.17" y="1605.08" font-family="DejaVu Sans" font-size="24" font-weight="400" font-style="normal" 
 >PGC168301</text>
<text fill="#00ffff" fill-opacity="1" stroke="none" xml:space="preserve" x="2834.58" y="1581.58" font-family="DejaVu Sans" font-size="24" font-weight="400" font-style="normal" 
 >PGC2564735</text>
<text fill="#00ffff" fill-opacity="1" stroke="none" xml:space="preserve" x="1443.64" y="1422.26" font-family="DejaVu Sans" font-size="24" font-weight="400" font-style="normal" 
 >PGC2807107</text>
<text fill="#00ffff" fill-opacity="1" stroke="none" xml:space="preserve" x="3882.34" y="1421.88" font-family="DejaVu Sans" font-size="24" font-weight="400" font-style="normal" 
 >PGC2797015</text>
<text fill="#00ffff" fill-opacity="1" stroke="none" xml:space="preserve" x="4079.66" y="1322.41" font-family="DejaVu Sans" font-size="24" font-weight="400" font-style="normal" 
 >PGC2797012</text>
<text fill="#00ffff" fill-opacity="1" stroke="none" xml:space="preserve" x="5249.5" y="1208.67" font-family="DejaVu Sans" font-size="24" font-weight="400" font-style="normal" 
 >PGC168281</text>
<text fill="#00ffff" fill-opacity="1" stroke="none" xml:space="preserve" x="550.406" y="1152.12" font-family="DejaVu Sans" font-size="24" font-weight="400" font-style="normal" 
 >PGC2797136</text>
<text fill="#00ffff" fill-opacity="1" stroke="none" xml:space="preserve" x="1060.48" y="978.546" font-family="DejaVu Sans" font-size="24" font-weight="400" font-style="normal" 
 >PGC2797108</text>
<text fill="#00ffff" fill-opacity="1" stroke="none" xml:space="preserve" x="1120.27" y="914.964" font-family="DejaVu Sans" font-size="24" font-weight="400" font-style="normal" 
 >PGC2570715</text>
<text fill="#00ffff" fill-opacity="1" stroke="none" xml:space="preserve" x="486.047" y="901.72" font-family="DejaVu Sans" font-size="24" font-weight="400" font-style="normal" 
 >PGC2797134</text>
<text fill="#00ffff" fill-opacity="1" stroke="none" xml:space="preserve" x="5977.83" y="623.823" font-family="DejaVu Sans" font-size="24" font-weight="400" font-style="normal" 
 >PGC2796950</text>
<text fill="#00ffff" fill-opacity="1" stroke="none" xml:space="preserve" x="3917.61" y="588.649" font-family="DejaVu Sans" font-size="24" font-weight="400" font-style="normal" 
 >PGC2797010</text>
<text fill="#00ffff" fill-opacity="1" stroke="none" xml:space="preserve" x="5150.05" y="482.411" font-family="DejaVu Sans" font-size="24" font-weight="400" font-style="normal" 
 >PGC2796972</text>
<text fill="#00ffff" fill-opacity="1" stroke="none" xml:space="preserve" x="388.172" y="309.207" font-family="DejaVu Sans" font-size="24" font-weight="400" font-style="normal" 
 >PGC2797127</text>
<text fill="#00ffff" fill-opacity="1" stroke="none" xml:space="preserve" x="5349.61" y="85.2785" font-family="DejaVu Sans" font-size="24" font-weight="400" font-style="normal" 
 >PGC2796965</text>
</g>

<g fill="none" stroke="#ffffff" stroke-opacity="1" stroke-width="1" stroke-linecap="square" stroke-linejoin="miter" stroke-miterlimit="2" transform="matrix(1,0,0,1,0,0)"
font-family="DejaVu Sans" font-size="24" font-weight="400" font-style="normal" 
>
<text fill="#ffffff" fill-opacity="1" stroke="none" xml:space="preserve" x="3337.05" y="3284.12" font-family="DejaVu Sans" font-size="24" font-weight="400" font-style="normal" 
 >+56°30′</text>
<text fill="#ffffff" fill-opacity="1" stroke="none" xml:space="preserve" x="3321.72" y="2348.58" font-family="DejaVu Sans" font-size="24" font-weight="400" font-style="normal" 
 >+57°</text>
<text fill="#ffffff" fill-opacity="1" stroke="none" xml:space="preserve" x="3305.14" y="1412.72" font-family="DejaVu Sans" font-size="24" font-weight="400" font-style="normal" 
 >+57°30′</text>
<text fill="#ffffff" fill-opacity="1" stroke="none" xml:space="preserve" x="3289.39" y="476.283" font-family="DejaVu Sans" font-size="24" font-weight="400" font-style="normal" 
 >+58°</text>
<text fill="#ffffff" fill-opacity="1" stroke="none" xml:space="preserve" x="5402.27" y="3191.95" font-family="DejaVu Sans" font-size="24" font-weight="400" font-style="normal" 
 >2ʰ12ᵐ</text>
<text fill="#ffffff" fill-opacity="1" stroke="none" xml:space="preserve" x="4369.77" y="3231.68" font-family="DejaVu Sans" font-size="24" font-weight="400" font-style="normal" 
 >2ʰ16ᵐ</text>
<text fill="#ffffff" fill-opacity="1" stroke="none" xml:space="preserve" x="3337.05" y="3256.12" font-family="DejaVu Sans" font-size="24" font-weight="400" font-style="normal" 
 >2ʰ20ᵐ</text>
<text fill="#ffffff" fill-opacity="1" stroke="none" xml:space="preserve" x="2304" y="3265.78" font-family="DejaVu Sans" font-size="24" font-weight="400" font-style="normal" 
 >2ʰ24ᵐ</text>
<text fill="#ffffff" fill-opacity="1" stroke="none" xml:space="preserve" x="1270.69" y="3261.18" font-family="DejaVu Sans" font-size="24" font-weight="400" font-style="normal" 
 >2ʰ28ᵐ</text>
<text fill="#ffffff" fill-opacity="1" stroke="none" xml:space="preserve" x="236.797" y="3241.64" font-family="DejaVu Sans" font-size="24" font-weight="400" font-style="normal" 
 >2ʰ32ᵐ</text>
</g>
</g>
</svg>
