<?xml version="1.0" encoding="UTF-8" standalone="no"?>
<svg viewBox="0 0 1935 1767"
 xmlns="http://www.w3.org/2000/svg" xmlns:xlink="http://www.w3.org/1999/xlink" version="1.2" baseProfile="tiny">
<title>PixInsight SVG Document</title>
<desc>Generated with PixInsight Core 1.8.9-3 (x64)</desc>
<defs>
</defs>
<g fill="none" stroke="black" stroke-width="1" fill-rule="evenodd" stroke-linecap="square" stroke-linejoin="bevel" >

<g fill="none" stroke="#000000" stroke-opacity="1" stroke-width="1" stroke-linecap="square" stroke-linejoin="bevel" transform="matrix(1,0,0,1,0,0)"
font-family="SF Pro Text" font-size="12" font-weight="400" font-style="normal" 
>
</g>

<g fill="none" stroke="#ffffff" stroke-opacity="0.501961" stroke-width="1" stroke-linecap="square" stroke-linejoin="miter" stroke-miterlimit="2" transform="matrix(1,0,0,1,0,0)"
font-family="SF Pro Text" font-size="12" font-weight="400" font-style="normal" 
>
<polyline fill="none" vector-effect="none" points="2613.55,-0.281071 2533.67,263.458 2453.34,526.91 2372.65,790.091 2291.56,1053.12 2209.8,1315.89 2127.25,1578.37 2044.18,1840.75 1960.83,2103.13 1877.22,2365.51 " />
<polyline fill="none" vector-effect="none" points="2055.64,-169.034 1976.13,94.2913 1895.63,357.077 1815.03,618.534 1734.23,880.577 1652.8,1142.58 1571.03,1403.95 1488.29,1665.34 1405.22,1926.77 1321.94,2188.28 " />
<polyline fill="none" vector-effect="none" points="1497.93,-337.395 1418.71,-75.3344 1338.86,186.317 1258.39,447.431 1178.07,707.811 1096.87,968.903 1015.18,1229.07 933.351,1489.64 850.733,1750.34 767.512,2011.09 " />
<polyline fill="none" vector-effect="none" points="939.856,-505.939 861.053,-244.961 781.811,15.5166 701.673,275.67 622.04,535.535 540.932,795.232 459.57,1054.86 377.601,1314.42 294.894,1574.51 211.993,1834.41 " />
<polyline fill="none" vector-effect="none" points="381.354,-675.466 302.798,-415.586 223.964,-156.031 144.873,103.092 66.6361,362.179 -15.0008,622.272 -96.8163,881.084 -178.594,1139.71 -260.914,1398.65 -343.715,1657.58 " />
<polyline fill="none" vector-effect="none" points="2613.55,-0.281071 2314.44,-90.7115 2015.36,-181.221 1716.38,-271.492 1417.38,-361.706 1118.23,-452.029 818.896,-542.548 519.475,-633.43 220.047,-724.597 " />
<polyline fill="none" vector-effect="none" points="2449.39,539.842 2150.4,448.606 1851.4,357.666 1552.86,266.349 1254.61,174.416 956.077,82.8328 657.183,-8.68401 358.073,-100.536 58.9661,-193.256 " />
<polyline fill="none" vector-effect="none" points="2283.56,1078.95 1984.96,986.499 1686.02,893.838 1387.7,801.153 1089.9,708.542 791.504,616.394 494.616,523.378 197.847,430.27 -103.349,337.863 " />
<polyline fill="none" vector-effect="none" points="2115.03,1617.03 1816.78,1523.4 1518.76,1429.91 1220.81,1336.26 922.868,1242.07 625.093,1148.6 327.182,1055.28 28.9675,962.044 -269.837,868.895 " />
<polyline fill="none" vector-effect="none" points="1944.43,2154.68 1646.49,2060.03 1348.8,1965.41 1051.27,1870.81 754.376,1776.02 456.304,1681.66 158.275,1587.51 -139.599,1493.07 -437.87,1398.68 " />
</g>

<g fill="none" stroke="#ff8080" stroke-opacity="0.501961" stroke-width="4" stroke-linecap="square" stroke-linejoin="miter" stroke-miterlimit="2" transform="matrix(1,0,0,1,0,0)"
font-family="DejaVu Sans" font-size="24" font-weight="400" font-style="normal" 
>
<polyline fill="none" vector-effect="none" points="928.549,7562.34 -2272.24,-3858.8 " />
<polyline fill="none" vector-effect="none" points="-15633.3,-3886.29 924.128,7565.5 " />
</g>

<g fill="none" stroke="#ff8080" stroke-opacity="1" stroke-width="1" stroke-linecap="square" stroke-linejoin="miter" stroke-miterlimit="2" transform="matrix(1,0,0,1,0,0)"
font-family="DejaVu Sans" font-size="64" font-weight="400" font-style="normal" 
>
<circle cx="1575.33" cy="1109.84" r="364.053"/>
<ellipse cx="1197.68" cy="1328.98" rx="174.745" ry="174.745"/>
<circle cx="396.058" cy="810.799" r="873.727"/>
</g>

<g fill="none" stroke="#ff8080" stroke-opacity="1" stroke-width="1" stroke-linecap="square" stroke-linejoin="miter" stroke-miterlimit="2" transform="matrix(1,0,0,1,0,0)"
font-family="DejaVu Sans" font-size="32" font-weight="400" font-style="normal" 
>
<text fill="#ff8080" fill-opacity="1" stroke="none" xml:space="preserve" x="1586.33" y="1122.34" font-family="DejaVu Sans" font-size="32" font-weight="400" font-style="normal" 
 >IC1340</text>
<text fill="#ff8080" fill-opacity="1" stroke="none" xml:space="preserve" x="1123.67" y="1317.98" font-family="DejaVu Sans" font-size="32" font-weight="400" font-style="normal" 
 >NGC6995</text>
<text fill="#ff8080" fill-opacity="1" stroke="none" xml:space="preserve" x="1108.67" y="1365.98" font-family="DejaVu Sans" font-size="32" font-weight="400" font-style="normal" 
 >Veil Nebula</text>
<text fill="#ff8080" fill-opacity="1" stroke="none" xml:space="preserve" x="322.047" y="799.799" font-family="DejaVu Sans" font-size="32" font-weight="400" font-style="normal" 
 >NGC6992</text>
<text fill="#ff8080" fill-opacity="1" stroke="none" xml:space="preserve" x="307.047" y="847.799" font-family="DejaVu Sans" font-size="32" font-weight="400" font-style="normal" 
 >Veil Nebula</text>
</g>

<g fill="none" stroke="#ffffff" stroke-opacity="1" stroke-width="1" stroke-linecap="square" stroke-linejoin="miter" stroke-miterlimit="2" transform="matrix(1,0,0,1,0,0)"
font-family="DejaVu Sans" font-size="24" font-weight="400" font-style="normal" 
>
<text fill="#ffffff" fill-opacity="1" stroke="none" xml:space="preserve" x="1726.25" y="934.32" font-family="DejaVu Sans" font-size="24" font-weight="400" font-style="normal" 
 >+31°</text>
<text fill="#ffffff" fill-opacity="1" stroke="none" xml:space="preserve" x="1170.13" y="761.393" font-family="DejaVu Sans" font-size="24" font-weight="400" font-style="normal" 
 >+31°20′</text>
<text fill="#ffffff" fill-opacity="1" stroke="none" xml:space="preserve" x="614.125" y="589.02" font-family="DejaVu Sans" font-size="24" font-weight="400" font-style="normal" 
 >+31°40′</text>
<text fill="#ffffff" fill-opacity="1" stroke="none" xml:space="preserve" x="58.75" y="415.716" font-family="DejaVu Sans" font-size="24" font-weight="400" font-style="normal" 
 >+32°</text>
<text fill="#ffffff" fill-opacity="1" stroke="none" xml:space="preserve" x="1334.91" y="199.152" font-family="DejaVu Sans" font-size="24" font-weight="400" font-style="normal" 
 >20ʰ54ᵐ</text>
<text fill="#ffffff" fill-opacity="1" stroke="none" xml:space="preserve" x="1170.13" y="733.393" font-family="DejaVu Sans" font-size="24" font-weight="400" font-style="normal" 
 >20ʰ55ᵐ30ˢ</text>
<text fill="#ffffff" fill-opacity="1" stroke="none" xml:space="preserve" x="1003.14" y="1267.44" font-family="DejaVu Sans" font-size="24" font-weight="400" font-style="normal" 
 >20ʰ57ᵐ</text>
</g>
</g>
</svg>
