<?xml version="1.0" encoding="UTF-8" standalone="no"?>
<svg viewBox="0 0 2971 1955"
 xmlns="http://www.w3.org/2000/svg" xmlns:xlink="http://www.w3.org/1999/xlink" version="1.2" baseProfile="tiny">
<title>PixInsight SVG Document</title>
<desc>Generated with PixInsight Core 1.8.9-3 (x64)</desc>
<defs>
</defs>
<g fill="none" stroke="black" stroke-width="1" fill-rule="evenodd" stroke-linecap="square" stroke-linejoin="bevel" >

<g fill="none" stroke="#000000" stroke-opacity="1" stroke-width="1" stroke-linecap="square" stroke-linejoin="bevel" transform="matrix(1,0,0,1,0,0)"
font-family="SF Pro Text" font-size="12" font-weight="400" font-style="normal" 
>
</g>

<g fill="none" stroke="#ffffff" stroke-opacity="0.501961" stroke-width="1" stroke-linecap="square" stroke-linejoin="miter" stroke-miterlimit="2" transform="matrix(1,0,0,1,0,0)"
font-family="SF Pro Text" font-size="12" font-weight="400" font-style="normal" 
>
<polyline fill="none" vector-effect="none" points="1304.71,-2027.06 1396.73,-1955.49 1488.52,-1883.66 1580.08,-1811.58 1671.42,-1739.25 1762.53,-1666.66 1853.41,-1593.84 1944.07,-1520.77 2034.51,-1447.47 2124.72,-1373.93 2214.71,-1300.16 2304.49,-1226.16 2394.04,-1151.92 2483.38,-1077.46 2572.52,-1002.77 2661.44,-927.848 2750.17,-852.688 2838.69,-777.286 2927.01,-701.633 3015.13,-625.719 3103.04,-549.53 3190.73,-473.052 3278.19,-396.271 3365.43,-319.176 3452.45,-241.763 3539.26,-164.034 3625.87,-85.9965 3712.29,-7.65797 3798.51,70.9744 3884.55,149.895 3970.41,229.099 4056.07,308.584 4141.53,388.346 4226.81,468.382 4311.88,548.69 " />
<polyline fill="none" vector-effect="none" points="945.944,-1564.12 1036.6,-1493.52 1127.02,-1422.66 1217.21,-1351.54 1307.17,-1280.17 1396.89,-1208.56 1486.37,-1136.7 1575.62,-1064.61 1664.63,-992.286 1753.41,-919.738 1841.95,-846.968 1930.25,-773.979 2018.32,-700.774 2106.15,-627.355 2193.76,-553.726 2281.14,-479.89 2368.31,-405.846 2455.28,-331.588 2542.06,-257.102 2628.68,-182.374 2715.16,-107.406 2801.55,-32.1897 2887.75,43.3087 2973.47,119.187 3059.05,195.459 3144.49,272.023 3229.79,348.864 3314.92,426 3399.88,503.432 3484.69,581.161 3569.33,659.182 3653.8,737.492 3738.09,816.087 3822.18,894.962 3906.08,974.111 " />
<polyline fill="none" vector-effect="none" points="587.595,-1101.77 676.955,-1032.15 766.077,-962.254 854.956,-892.092 943.588,-821.67 1031.97,-750.999 1120.1,-680.091 1207.99,-608.957 1295.63,-537.609 1383.02,-466.055 1470.17,-394.299 1557.07,-322.341 1643.7,-250.179 1730.06,-177.812 1816.12,-105.229 1901.89,-32.4152 1987.42,40.5961 2072.72,113.759 2157.81,187.166 2242.78,260.85 2327.56,334.817 2412.12,408.94 2496.6,483.193 2580.91,557.851 2664.92,632.75 2748.96,707.951 2833.08,783.502 2916.93,859.357 3000.77,935.504 3084.51,1012.01 3168.13,1088.86 3251.56,1166.02 3334.79,1243.5 3417.8,1321.26 3500.58,1399.3 " />
<polyline fill="none" vector-effect="none" points="229.467,-640.238 317.663,-571.681 405.636,-502.822 493.371,-433.664 580.849,-364.216 668.05,-294.497 754.969,-224.539 841.612,-154.381 927.981,-84.0545 1014.05,-13.5518 1099.9,57.0802 1185.63,127.761 1270.9,198.778 1355.78,269.961 1440.25,341.42 1524.45,413.052 1608.65,484.731 1692.51,556.745 1776.1,628.969 1859.48,701.487 1942.67,774.234 2025.74,847.103 2108.64,920.268 2191.39,993.732 2274,1067.57 2356.44,1141.66 2438.88,1216.16 2521.27,1290.87 2603.46,1365.95 2685.76,1441.33 2767.95,1517.14 2850.18,1593.35 2932.27,1669.89 3014.17,1746.77 3095.88,1823.89 " />
<polyline fill="none" vector-effect="none" points="-129.496,-178.851 -42.4924,-111.514 44.3453,-43.8656 131.028,24.1416 217.582,92.5875 303.848,161.427 389.728,230.402 475.45,299.258 560.725,368.364 645.605,437.657 730.023,507.068 814.178,576.622 898.029,646.525 981.447,716.597 1064.71,786.77 1147.75,857.067 1230.54,927.646 1313.07,998.452 1395.31,1069.51 1477.47,1140.8 1559.33,1212.35 1641.01,1284.17 1722.58,1356.3 1803.97,1428.67 1885.28,1501.43 1966.38,1574.5 2047.29,1647.79 2128.2,1721.46 2208.54,1795.42 2289.01,1869.74 2370.09,1944.85 2450.65,2020.02 2531.09,2095.45 2611.47,2171.19 2691.69,2247.18 " />
<polyline fill="none" vector-effect="none" points="-489.624,284.166 -403.994,350.436 -318.529,416.989 -233.22,483.815 -148.048,550.893 -62.996,618.219 21.8894,685.822 106.431,753.447 190.711,821.238 274.488,889.216 357.92,957.396 440.991,1025.78 523.824,1094.32 606.271,1163.04 688.455,1231.99 770.338,1301.16 851.954,1370.57 933.201,1440.3 1014.36,1510.22 1095.23,1580.49 1175.87,1651.06 1256.3,1721.87 1336.57,1793.15 1416.67,1864.57 1496.54,1936.48 1576.32,2008.56 1656,2080.9 1735.5,2153.61 1814.85,2226.64 1894.1,2299.99 1973.25,2373.66 2052.26,2447.63 2131.13,2521.89 2209.84,2596.41 2288.39,2671.19 " />
<polyline fill="none" vector-effect="none" points="-850.463,747.954 -766.253,813.062 -682.223,878.413 -598.376,944.002 -514.712,1009.82 -431.235,1075.86 -347.951,1142.11 -264.867,1208.57 -182.005,1275.22 -99.3878,1342.07 -17.0741,1409.16 64.8582,1476.55 146.677,1543.96 228.14,1611.65 309.277,1679.48 390.236,1747.62 470.683,1816.27 550.846,1885.04 630.849,1953.95 710.663,2023.17 790.244,2092.87 869.59,2162.84 948.722,2233.06 1027.65,2303.52 1106.39,2374.24 1184.95,2445.23 1263.35,2516.5 1341.58,2588.06 1419.66,2659.89 1497.57,2732.02 1575.32,2804.42 1652.91,2877.1 1730.34,2950.06 1807.59,3023.29 1884.67,3096.79 " />
<polyline fill="none" vector-effect="none" points="1304.71,-2027.06 1163.42,-1844.75 1022.19,-1662.51 881.028,-1480.35 739.931,-1298.29 598.897,-1116.35 457.91,-934.54 316.932,-752.864 175.889,-571.29 34.6725,-389.726 -106.796,-208.009 -248.466,-25.9639 -390.26,156.378 -532.143,338.842 -674.134,521.38 -816.264,704.018 -958.538,886.775 -1100.93,1069.64 " />
<polyline fill="none" vector-effect="none" points="2003.05,-1473.02 1857.56,-1293.66 1712.15,-1114.32 1566.87,-935.045 1421.73,-755.864 1276.76,-576.817 1131.98,-397.935 987.428,-219.247 843.227,-40.8442 699.132,137.355 554.36,315.66 409.068,494.171 263.54,672.578 117.605,851.107 -28.797,1029.81 -175.491,1208.85 -322.542,1388.4 -469.681,1568.18 " />
<polyline fill="none" vector-effect="none" points="2688.41,-905.047 2538.5,-728.878 2388.58,-552.63 2238.75,-376.351 2089.13,-200.154 1939.85,-24.3303 1790.9,151.169 1642.43,326.091 1493.73,501.069 1345.32,675.672 1196.73,850.446 1048.15,1025.1 899.462,1199.81 750.443,1374.65 600.96,1550.04 450.884,1726.06 299.98,1902.81 148.598,2079.88 " />
<polyline fill="none" vector-effect="none" points="3361.56,-322.609 3207.42,-150.155 3053.14,22.4364 2898.56,195.519 2743.6,368.563 2589.51,540.722 2435.79,712.753 2282.49,884.133 2129.69,1055.55 1977.2,1226.85 1824.81,1398.02 1672.39,1569.27 1519.96,1740.84 1367.31,1913.07 1214.39,2085.79 1061.09,2258.77 907.303,2431.92 753.16,2605.28 " />
<polyline fill="none" vector-effect="none" points="4022.46,277.347 3864.32,446.371 3706.12,615.419 3547.88,784.45 3389.64,953.395 3231.5,1122.17 3073.52,1290.73 2915.66,1459.04 2758.02,1627.2 2600.91,1795.28 2444.12,1963.51 2287.62,2131.78 2130.99,2300.3 1974.3,2469.19 1817.42,2638.38 1660.29,2807.78 1502.92,2977.34 1345.3,3147.04 " />
</g>

<g fill="none" stroke="#ff8080" stroke-opacity="1" stroke-width="1" stroke-linecap="square" stroke-linejoin="miter" stroke-miterlimit="2" transform="matrix(1,0,0,1,0,0)"
font-family="DejaVu Sans" font-size="64" font-weight="400" font-style="normal" 
>
<ellipse cx="1493.5" cy="1110.04" rx="582.818" ry="582.818"/>
<ellipse cx="365.97" cy="938.777" rx="262.268" ry="262.268"/>
<circle cx="268.237" cy="1040.74" r="194.273"/>
</g>

<g fill="none" stroke="#00ffff" stroke-opacity="1" stroke-width="1" stroke-linecap="square" stroke-linejoin="miter" stroke-miterlimit="2" transform="matrix(1,0,0,1,0,0)"
font-family="DejaVu Sans" font-size="64" font-weight="400" font-style="normal" 
>
<ellipse cx="2017.13" cy="513.322" rx="15.6575" ry="15.6575"/>
</g>

<g fill="none" stroke="#ff8080" stroke-opacity="1" stroke-width="1" stroke-linecap="square" stroke-linejoin="miter" stroke-miterlimit="2" transform="matrix(1,0,0,1,0,0)"
font-family="DejaVu Sans" font-size="32" font-weight="400" font-style="normal" 
>
<text fill="#ff8080" fill-opacity="1" stroke="none" xml:space="preserve" x="1504.5" y="1122.54" font-family="DejaVu Sans" font-size="32" font-weight="400" font-style="normal" 
 >IC1805</text>
<text fill="#ff8080" fill-opacity="1" stroke="none" xml:space="preserve" x="376.969" y="951.277" font-family="DejaVu Sans" font-size="32" font-weight="400" font-style="normal" 
 >NGC896</text>
<text fill="#ff8080" fill-opacity="1" stroke="none" xml:space="preserve" x="279.234" y="1053.24" font-family="DejaVu Sans" font-size="32" font-weight="400" font-style="normal" 
 >IC1795</text>
</g>

<g fill="none" stroke="#00ffff" stroke-opacity="1" stroke-width="1" stroke-linecap="square" stroke-linejoin="miter" stroke-miterlimit="2" transform="matrix(1,0,0,1,0,0)"
font-family="DejaVu Sans" font-size="32" font-weight="400" font-style="normal" 
>
<polyline fill="none" vector-effect="none" points="1242.01,902.998 1247.01,902.998 " />
<polyline fill="none" vector-effect="none" points="1262.01,902.998 1257.01,902.998 " />
<polyline fill="none" vector-effect="none" points="1252.01,912.998 1252.01,907.998 " />
<polyline fill="none" vector-effect="none" points="1252.01,892.998 1252.01,897.998 " />
</g>

<g fill="none" stroke="#00ffff" stroke-opacity="1" stroke-width="1" stroke-linecap="square" stroke-linejoin="miter" stroke-miterlimit="2" transform="matrix(1,0,0,1,0,0)"
font-family="DejaVu Sans" font-size="24" font-weight="400" font-style="normal" 
>
<text fill="#00ffff" fill-opacity="1" stroke="none" xml:space="preserve" x="2028.13" y="522.822" font-family="DejaVu Sans" font-size="24" font-weight="400" font-style="normal" 
 >PGC2797053</text>
<text fill="#00ffff" fill-opacity="1" stroke="none" xml:space="preserve" x="1182.5" y="932.998" font-family="DejaVu Sans" font-size="24" font-weight="400" font-style="normal" 
 >PGC138524</text>
</g>

<g fill="none" stroke="#ffffff" stroke-opacity="1" stroke-width="1" stroke-linecap="square" stroke-linejoin="miter" stroke-miterlimit="2" transform="matrix(1,0,0,1,0,0)"
font-family="DejaVu Sans" font-size="24" font-weight="400" font-style="normal" 
>
<text fill="#ffffff" fill-opacity="1" stroke="none" xml:space="preserve" x="1550.06" y="462.749" font-family="DejaVu Sans" font-size="24" font-weight="400" font-style="normal" 
 >+61°</text>
<text fill="#ffffff" fill-opacity="1" stroke="none" xml:space="preserve" x="1172.91" y="906.466" font-family="DejaVu Sans" font-size="24" font-weight="400" font-style="normal" 
 >+61°30′</text>
<text fill="#ffffff" fill-opacity="1" stroke="none" xml:space="preserve" x="795.141" y="1350.22" font-family="DejaVu Sans" font-size="24" font-weight="400" font-style="normal" 
 >+62°</text>
<text fill="#ffffff" fill-opacity="1" stroke="none" xml:space="preserve" x="414.734" y="1796.38" font-family="DejaVu Sans" font-size="24" font-weight="400" font-style="normal" 
 >+62°30′</text>
<text fill="#ffffff" fill-opacity="1" stroke="none" xml:space="preserve" x="2577.16" y="554.525" font-family="DejaVu Sans" font-size="24" font-weight="400" font-style="normal" 
 >2ʰ36ᵐ</text>
</g>
</g>
</svg>
