<?xml version="1.0" encoding="UTF-8" standalone="no"?>
<svg viewBox="0 0 6212 4164"
 xmlns="http://www.w3.org/2000/svg" xmlns:xlink="http://www.w3.org/1999/xlink" version="1.2" baseProfile="tiny">
<title>PixInsight SVG Document</title>
<desc>Generated with PixInsight Core 1.8.9-3 (x64)</desc>
<defs>
</defs>
<g fill="none" stroke="black" stroke-width="1" fill-rule="evenodd" stroke-linecap="square" stroke-linejoin="bevel" >

<g fill="none" stroke="#000000" stroke-opacity="1" stroke-width="1" stroke-linecap="square" stroke-linejoin="bevel" transform="matrix(1,0,0,1,0,0)"
font-family="SF Pro Text" font-size="12" font-weight="400" font-style="normal" 
>
</g>

<g fill="none" stroke="#ffffff" stroke-opacity="0.501961" stroke-width="1" stroke-linecap="square" stroke-linejoin="miter" stroke-miterlimit="2" transform="matrix(1,0,0,1,0,0)"
font-family="SF Pro Text" font-size="12" font-weight="400" font-style="normal" 
>
<polyline fill="none" vector-effect="none" points="6918.43,-1269.48 6917.66,-907.202 6916.99,-544.991 6916.39,-182.835 6915.87,179.275 6915.4,541.348 6915.03,903.395 6914.76,1265.43 6914.62,1627.45 6914.63,1989.49 6914.82,2351.54 6915.19,2713.63 6915.72,3075.75 6916.34,3437.9 6917.01,3800.08 6917.72,4162.3 " />
<polyline fill="none" vector-effect="none" points="5512.12,-1270.15 5511.46,-907.679 5510.87,-545.276 5510.34,-182.933 5509.89,179.371 5509.54,541.644 5509.26,903.885 5509.06,1266.1 5508.96,1628.31 5509,1990.52 5509.2,2352.74 5509.58,2715 5510.1,3077.3 5510.72,3439.64 5511.39,3802.02 5512.05,4164.45 " />
<polyline fill="none" vector-effect="none" points="4106.72,-1270.67 4106.23,-907.946 4105.8,-545.304 4105.43,-182.734 4105.1,179.772 4104.83,542.222 4104.63,904.625 4104.5,1266.99 4104.46,1629.33 4104.5,1991.66 4104.64,2353.99 4104.87,2716.34 4105.18,3078.73 4105.55,3441.18 4105.99,3803.7 4106.51,4166.28 " />
<polyline fill="none" vector-effect="none" points="2701.56,-1271.28 2701.26,-908.279 2701.02,-545.362 2700.82,-182.541 2700.62,180.188 2700.43,542.829 2700.28,905.388 2700.19,1267.89 2700.18,1630.36 2700.23,1992.81 2700.37,2355.25 2700.58,2717.7 2700.85,3080.19 2701.19,3442.72 2701.57,3805.33 2701.99,4168.06 " />
<polyline fill="none" vector-effect="none" points="1295.93,-1272.5 1295.77,-909.363 1295.66,-546.325 1295.61,-183.38 1295.54,179.609 1295.46,542.634 1295.42,905.544 1295.43,1268.36 1295.47,1631.13 1295.56,1993.89 1295.7,2356.64 1295.88,2719.4 1296.11,3082.19 1296.38,3445.04 1296.67,3807.98 1296.98,4171.03 " />
<polyline fill="none" vector-effect="none" points="6918.43,-1269.48 6554.01,-1269.67 6189.67,-1269.85 5825.39,-1270.02 5461.18,-1270.17 5097.03,-1270.32 4732.94,-1270.45 4368.9,-1270.57 4004.89,-1270.7 3640.88,-1270.84 3276.88,-1270.99 2912.84,-1271.16 2548.78,-1271.37 2184.68,-1271.64 1820.54,-1271.97 1456.36,-1272.33 1092.14,-1272.7 727.845,-1273.04 363.492,-1273.35 -0.918434,-1273.64 " />
<polyline fill="none" vector-effect="none" points="6915.93,132.073 6551.64,132.077 6187.4,132.087 5823.15,132.1 5459.02,132.152 5095.01,132.233 4731.08,132.331 4367.2,132.438 4003.36,132.55 3639.53,132.662 3275.7,132.767 2911.85,132.86 2547.93,132.938 2183.85,133.028 1819.78,132.874 1455.91,132.403 1091.82,132.203 727.586,132.129 363.288,132.049 -0.994983,131.968 " />
<polyline fill="none" vector-effect="none" points="6914.64,1533.06 6550.34,1533.25 6186.14,1533.45 5822.06,1533.67 5458.07,1533.91 5094.16,1534.15 4730.3,1534.41 4366.48,1534.67 4002.69,1534.94 3638.91,1535.2 3275.13,1535.47 2911.33,1535.72 2547.5,1535.95 2183.64,1536.16 1819.74,1536.34 1455.79,1536.49 1091.79,1536.63 727.71,1536.78 363.559,1536.91 -0.669096,1537.05 " />
<polyline fill="none" vector-effect="none" points="6915.5,2934.12 6551.23,2934.5 6187.07,2934.89 5822.99,2935.27 5458.97,2935.66 5094.98,2936.04 4731.03,2936.41 4367.12,2936.76 4003.26,2937.1 3639.45,2937.43 3275.65,2937.78 2911.87,2938.18 2548.07,2938.61 2184.24,2939.08 1820.34,2939.58 1456.37,2940.08 1092.33,2940.59 728.219,2941.11 364.048,2941.62 -0.187537,2942.13 " />
</g>

<g fill="none" stroke="#ff8080" stroke-opacity="0.501961" stroke-width="4" stroke-linecap="square" stroke-linejoin="miter" stroke-miterlimit="2" transform="matrix(1,0,0,1,0,0)"
font-family="DejaVu Sans" font-size="24" font-weight="400" font-style="normal" 
>
<polyline fill="none" vector-effect="none" points="16662.9,5605.1 2146.4,2364.08 " />
<polyline fill="none" vector-effect="none" points="2131.13,2365.2 -15586.4,9175.91 " />
<polyline fill="none" vector-effect="none" points="2134.2,2355.65 737.613,232.475 " />
<polyline fill="none" vector-effect="none" points="727.998,219.728 -949.596,-1729.42 " />
</g>

<g fill="none" stroke="#ff8080" stroke-opacity="1" stroke-width="1" stroke-linecap="square" stroke-linejoin="miter" stroke-miterlimit="2" transform="matrix(1,0,0,1,0,0)"
font-family="DejaVu Sans" font-size="64" font-weight="400" font-style="normal" 
>
<ellipse cx="3168.52" cy="2470.43" rx="936.109" ry="936.109"/>
<circle cx="2818.17" cy="3409.76" r="78.0091"/>
<circle cx="2727.78" cy="2766.12" r="156.018"/>
<ellipse cx="1935.97" cy="2806.89" rx="468.055" ry="468.055"/>
</g>

<g fill="none" stroke="#00ffff" stroke-opacity="1" stroke-width="1" stroke-linecap="square" stroke-linejoin="miter" stroke-miterlimit="2" transform="matrix(1,0,0,1,0,0)"
font-family="DejaVu Sans" font-size="64" font-weight="400" font-style="normal" 
>
</g>

<g fill="none" stroke="#00ffff" stroke-opacity="1" stroke-width="1" stroke-linecap="square" stroke-linejoin="miter" stroke-miterlimit="2" transform="matrix(-0.241745,0.97034,-0.97034,-0.241745,5311.72,602.617)"
font-family="DejaVu Sans" font-size="64" font-weight="400" font-style="normal" 
>
<ellipse cx="0" cy="0" rx="11.5562" ry="6.35062"/>
</g>

<g fill="none" stroke="#00ffff" stroke-opacity="1" stroke-width="1" stroke-linecap="square" stroke-linejoin="miter" stroke-miterlimit="2" transform="matrix(1,0,0,1,0,0)"
font-family="DejaVu Sans" font-size="64" font-weight="400" font-style="normal" 
>
</g>

<g fill="none" stroke="#00ffff" stroke-opacity="1" stroke-width="1" stroke-linecap="square" stroke-linejoin="miter" stroke-miterlimit="2" transform="matrix(-0.818595,0.574371,-0.574371,-0.818595,5085.29,2486.62)"
font-family="DejaVu Sans" font-size="64" font-weight="400" font-style="normal" 
>
<ellipse cx="0" cy="0" rx="12.977" ry="2.58926"/>
</g>

<g fill="none" stroke="#00ffff" stroke-opacity="1" stroke-width="1" stroke-linecap="square" stroke-linejoin="miter" stroke-miterlimit="2" transform="matrix(1,0,0,1,0,0)"
font-family="DejaVu Sans" font-size="64" font-weight="400" font-style="normal" 
>
</g>

<g fill="none" stroke="#00ffff" stroke-opacity="1" stroke-width="1" stroke-linecap="square" stroke-linejoin="miter" stroke-miterlimit="2" transform="matrix(-0.81908,0.573679,-0.573679,-0.81908,3716.35,468.53)"
font-family="DejaVu Sans" font-size="64" font-weight="400" font-style="normal" 
>
<ellipse cx="0" cy="0" rx="11.1675" ry="3.4511"/>
</g>

<g fill="none" stroke="#00ffff" stroke-opacity="1" stroke-width="1" stroke-linecap="square" stroke-linejoin="miter" stroke-miterlimit="2" transform="matrix(1,0,0,1,0,0)"
font-family="DejaVu Sans" font-size="64" font-weight="400" font-style="normal" 
>
</g>

<g fill="none" stroke="#00ffff" stroke-opacity="1" stroke-width="1" stroke-linecap="square" stroke-linejoin="miter" stroke-miterlimit="2" transform="matrix(0.469975,0.88268,-0.88268,0.469975,3427.31,1530.68)"
font-family="DejaVu Sans" font-size="64" font-weight="400" font-style="normal" 
>
<ellipse cx="0" cy="0" rx="11.1995" ry="7.92865"/>
</g>

<g fill="none" stroke="#00ffff" stroke-opacity="1" stroke-width="1" stroke-linecap="square" stroke-linejoin="miter" stroke-miterlimit="2" transform="matrix(1,0,0,1,0,0)"
font-family="DejaVu Sans" font-size="64" font-weight="400" font-style="normal" 
>
</g>

<g fill="none" stroke="#00ffff" stroke-opacity="1" stroke-width="1" stroke-linecap="square" stroke-linejoin="miter" stroke-miterlimit="2" transform="matrix(-0.913467,0.406912,-0.406912,-0.913467,3104.58,627.783)"
font-family="DejaVu Sans" font-size="64" font-weight="400" font-style="normal" 
>
<ellipse cx="0" cy="0" rx="11.1756" ry="5.47358"/>
</g>

<g fill="none" stroke="#00ffff" stroke-opacity="1" stroke-width="1" stroke-linecap="square" stroke-linejoin="miter" stroke-miterlimit="2" transform="matrix(1,0,0,1,0,0)"
font-family="DejaVu Sans" font-size="64" font-weight="400" font-style="normal" 
>
</g>

<g fill="none" stroke="#00ffff" stroke-opacity="1" stroke-width="1" stroke-linecap="square" stroke-linejoin="miter" stroke-miterlimit="2" transform="matrix(-0.37461,0.927183,-0.927183,-0.37461,2529.45,159.455)"
font-family="DejaVu Sans" font-size="64" font-weight="400" font-style="normal" 
>
<ellipse cx="0" cy="0" rx="11.6219" ry="6.38673"/>
</g>

<g fill="none" stroke="#00ffff" stroke-opacity="1" stroke-width="1" stroke-linecap="square" stroke-linejoin="miter" stroke-miterlimit="2" transform="matrix(1,0,0,1,0,0)"
font-family="DejaVu Sans" font-size="64" font-weight="400" font-style="normal" 
>
</g>

<g fill="none" stroke="#00ffff" stroke-opacity="1" stroke-width="1" stroke-linecap="square" stroke-linejoin="miter" stroke-miterlimit="2" transform="matrix(0.998644,0.0520625,-0.0520625,0.998644,2191.99,822.97)"
font-family="DejaVu Sans" font-size="64" font-weight="400" font-style="normal" 
>
<ellipse cx="0" cy="0" rx="11.3922" ry="8.64186"/>
</g>

<g fill="none" stroke="#00ffff" stroke-opacity="1" stroke-width="1" stroke-linecap="square" stroke-linejoin="miter" stroke-miterlimit="2" transform="matrix(1,0,0,1,0,0)"
font-family="DejaVu Sans" font-size="64" font-weight="400" font-style="normal" 
>
</g>

<g fill="none" stroke="#00ffff" stroke-opacity="1" stroke-width="1" stroke-linecap="square" stroke-linejoin="miter" stroke-miterlimit="2" transform="matrix(-0.981571,0.191096,-0.191096,-0.981571,2149.84,868.188)"
font-family="DejaVu Sans" font-size="64" font-weight="400" font-style="normal" 
>
<ellipse cx="0" cy="0" rx="11.1868" ry="8.68371"/>
</g>

<g fill="none" stroke="#00ffff" stroke-opacity="1" stroke-width="1" stroke-linecap="square" stroke-linejoin="miter" stroke-miterlimit="2" transform="matrix(1,0,0,1,0,0)"
font-family="DejaVu Sans" font-size="64" font-weight="400" font-style="normal" 
>
</g>

<g fill="none" stroke="#00ffff" stroke-opacity="1" stroke-width="1" stroke-linecap="square" stroke-linejoin="miter" stroke-miterlimit="2" transform="matrix(-0.406748,0.913541,-0.913541,-0.406748,1961.01,138.47)"
font-family="DejaVu Sans" font-size="64" font-weight="400" font-style="normal" 
>
<ellipse cx="0" cy="0" rx="11.1761" ry="5.10844"/>
</g>

<g fill="none" stroke="#00ffff" stroke-opacity="1" stroke-width="1" stroke-linecap="square" stroke-linejoin="miter" stroke-miterlimit="2" transform="matrix(1,0,0,1,0,0)"
font-family="DejaVu Sans" font-size="64" font-weight="400" font-style="normal" 
>
</g>

<g fill="none" stroke="#00ffff" stroke-opacity="1" stroke-width="1" stroke-linecap="square" stroke-linejoin="miter" stroke-miterlimit="2" transform="matrix(1,-0.000181442,0.000181442,1,958.15,602.04)"
font-family="DejaVu Sans" font-size="64" font-weight="400" font-style="normal" 
>
<ellipse cx="0" cy="0" rx="11.1695" ry="7.72744"/>
</g>

<g fill="none" stroke="#00ffff" stroke-opacity="1" stroke-width="1" stroke-linecap="square" stroke-linejoin="miter" stroke-miterlimit="2" transform="matrix(1,0,0,1,0,0)"
font-family="DejaVu Sans" font-size="64" font-weight="400" font-style="normal" 
>
</g>

<g fill="none" stroke="#ff8080" stroke-opacity="1" stroke-width="1" stroke-linecap="square" stroke-linejoin="miter" stroke-miterlimit="2" transform="matrix(1,0,0,1,0,0)"
font-family="DejaVu Sans" font-size="64" font-weight="400" font-style="normal" 
>
<text fill="#ff8080" fill-opacity="1" stroke="none" xml:space="preserve" x="1670.13" y="1650.15" font-family="DejaVu Sans" font-size="64" font-weight="400" font-style="normal" 
 >Orion</text>
</g>

<g fill="none" stroke="#ffd700" stroke-opacity="1" stroke-width="1" stroke-linecap="square" stroke-linejoin="miter" stroke-miterlimit="2" transform="matrix(1,0,0,1,0,0)"
font-family="DejaVu Sans" font-size="64" font-weight="400" font-style="normal" 
>
<polyline fill="none" vector-effect="none" points="3345.69,1416.72 3350.69,1416.72 " />
<polyline fill="none" vector-effect="none" points="3365.69,1416.72 3360.69,1416.72 " />
<polyline fill="none" vector-effect="none" points="3355.69,1426.72 3355.69,1421.72 " />
<polyline fill="none" vector-effect="none" points="3355.69,1406.72 3355.69,1411.72 " />
<polyline fill="none" vector-effect="none" points="3335.41,1435.74 3340.41,1435.74 " />
<polyline fill="none" vector-effect="none" points="3355.41,1435.74 3350.41,1435.74 " />
<polyline fill="none" vector-effect="none" points="3345.41,1445.74 3345.41,1440.74 " />
<polyline fill="none" vector-effect="none" points="3345.41,1425.74 3345.41,1430.74 " />
<polyline fill="none" vector-effect="none" points="2115.9,2359.02 2120.9,2359.02 " />
<polyline fill="none" vector-effect="none" points="2135.9,2359.02 2130.9,2359.02 " />
<polyline fill="none" vector-effect="none" points="2125.9,2369.02 2125.9,2364.02 " />
<polyline fill="none" vector-effect="none" points="2125.9,2349.02 2125.9,2354.02 " />
<polyline fill="none" vector-effect="none" points="2114.68,2358.67 2119.68,2358.67 " />
<polyline fill="none" vector-effect="none" points="2134.68,2358.67 2129.68,2358.67 " />
<polyline fill="none" vector-effect="none" points="2124.68,2368.67 2124.68,2363.67 " />
<polyline fill="none" vector-effect="none" points="2124.68,2348.67 2124.68,2353.67 " />
<polyline fill="none" vector-effect="none" points="726.814,232.151 731.814,232.151 " />
<polyline fill="none" vector-effect="none" points="746.814,232.151 741.814,232.151 " />
<polyline fill="none" vector-effect="none" points="736.814,242.151 736.814,237.151 " />
<polyline fill="none" vector-effect="none" points="736.814,222.151 736.814,227.151 " />
</g>

<g fill="none" stroke="#ffd700" stroke-opacity="1" stroke-width="1" stroke-linecap="square" stroke-linejoin="miter" stroke-miterlimit="2" transform="matrix(1,0,0,1,0,0)"
font-family="DejaVu Sans" font-size="28" font-weight="400" font-style="normal" 
>
<text fill="#ffd700" fill-opacity="1" stroke="none" xml:space="preserve" x="2136.89" y="2362.02" font-family="DejaVu Sans" font-size="28" font-weight="400" font-style="normal" 
 >50 ζ </text>
<text fill="#ffd700" fill-opacity="1" stroke="none" xml:space="preserve" x="2205.52" y="2362.02" font-family="DejaVu Sans" font-size="28" font-weight="400" font-style="normal" 
 >Ori</text>
<text fill="#ffd700" fill-opacity="1" stroke="none" xml:space="preserve" x="2075.67" y="2392.67" font-family="DejaVu Sans" font-size="28" font-weight="400" font-style="normal" 
 >Alnitak</text>
<text fill="#ffd700" fill-opacity="1" stroke="none" xml:space="preserve" x="3300.69" y="1405.72" font-family="DejaVu Sans" font-size="28" font-weight="400" font-style="normal" 
 >48 σ </text>
<text fill="#ffd700" fill-opacity="1" stroke="none" xml:space="preserve" x="3371.83" y="1405.72" font-family="DejaVu Sans" font-size="28" font-weight="400" font-style="normal" 
 >Ori</text>
<text fill="#ffd700" fill-opacity="1" stroke="none" xml:space="preserve" x="3290.41" y="1469.74" font-family="DejaVu Sans" font-size="28" font-weight="400" font-style="normal" 
 >48 σ </text>
<text fill="#ffd700" fill-opacity="1" stroke="none" xml:space="preserve" x="3361.55" y="1469.74" font-family="DejaVu Sans" font-size="28" font-weight="400" font-style="normal" 
 >Ori</text>
<text fill="#ffd700" fill-opacity="1" stroke="none" xml:space="preserve" x="2005.67" y="2361.67" font-family="DejaVu Sans" font-size="28" font-weight="400" font-style="normal" 
 >50 ζ </text>
<text fill="#ffd700" fill-opacity="1" stroke="none" xml:space="preserve" x="2074.3" y="2361.67" font-family="DejaVu Sans" font-size="28" font-weight="400" font-style="normal" 
 >Ori</text>
<text fill="#ffd700" fill-opacity="1" stroke="none" xml:space="preserve" x="682.813" y="221.151" font-family="DejaVu Sans" font-size="28" font-weight="400" font-style="normal" 
 >46 ε </text>
<text fill="#ffd700" fill-opacity="1" stroke="none" xml:space="preserve" x="751.344" y="221.151" font-family="DejaVu Sans" font-size="28" font-weight="400" font-style="normal" 
 >Ori</text>
<text fill="#ffd700" fill-opacity="1" stroke="none" xml:space="preserve" x="685.313" y="266.151" font-family="DejaVu Sans" font-size="28" font-weight="400" font-style="normal" 
 >Alnilam</text>
</g>

<g fill="none" stroke="#ff8080" stroke-opacity="1" stroke-width="1" stroke-linecap="square" stroke-linejoin="miter" stroke-miterlimit="2" transform="matrix(1,0,0,1,0,0)"
font-family="DejaVu Sans" font-size="32" font-weight="400" font-style="normal" 
>
<text fill="#ff8080" fill-opacity="1" stroke="none" xml:space="preserve" x="3124.02" y="2459.43" font-family="DejaVu Sans" font-size="32" font-weight="400" font-style="normal" 
 >IC434</text>
<text fill="#ff8080" fill-opacity="1" stroke="none" xml:space="preserve" x="3023.02" y="2507.43" font-family="DejaVu Sans" font-size="32" font-weight="400" font-style="normal" 
 >Horsehead Nebula</text>
<text fill="#ff8080" fill-opacity="1" stroke="none" xml:space="preserve" x="2829.17" y="3422.26" font-family="DejaVu Sans" font-size="32" font-weight="400" font-style="normal" 
 >IC435</text>
<text fill="#ff8080" fill-opacity="1" stroke="none" xml:space="preserve" x="2738.77" y="2778.62" font-family="DejaVu Sans" font-size="32" font-weight="400" font-style="normal" 
 >NGC2023</text>
<text fill="#ff8080" fill-opacity="1" stroke="none" xml:space="preserve" x="1946.97" y="2819.39" font-family="DejaVu Sans" font-size="32" font-weight="400" font-style="normal" 
 >NGC2024</text>
</g>

<g fill="none" stroke="#00ffff" stroke-opacity="1" stroke-width="1" stroke-linecap="square" stroke-linejoin="miter" stroke-miterlimit="2" transform="matrix(1,0,0,1,0,0)"
font-family="DejaVu Sans" font-size="32" font-weight="400" font-style="normal" 
>
<polyline fill="none" vector-effect="none" points="2966.45,1068.16 2971.45,1068.16 " />
<polyline fill="none" vector-effect="none" points="2986.45,1068.16 2981.45,1068.16 " />
<polyline fill="none" vector-effect="none" points="2976.45,1078.16 2976.45,1073.16 " />
<polyline fill="none" vector-effect="none" points="2976.45,1058.16 2976.45,1063.16 " />
</g>

<g fill="none" stroke="#00ffff" stroke-opacity="1" stroke-width="1" stroke-linecap="square" stroke-linejoin="miter" stroke-miterlimit="2" transform="matrix(1,0,0,1,0,0)"
font-family="DejaVu Sans" font-size="24" font-weight="400" font-style="normal" 
>
<text fill="#00ffff" fill-opacity="1" stroke="none" xml:space="preserve" x="5322.72" y="612.117" font-family="DejaVu Sans" font-size="24" font-weight="400" font-style="normal" 
 >PGC3081041</text>
<text fill="#00ffff" fill-opacity="1" stroke="none" xml:space="preserve" x="5096.28" y="2496.12" font-family="DejaVu Sans" font-size="24" font-weight="400" font-style="normal" 
 >PGC147737</text>
<text fill="#00ffff" fill-opacity="1" stroke="none" xml:space="preserve" x="3727.34" y="478.03" font-family="DejaVu Sans" font-size="24" font-weight="400" font-style="normal" 
 >PGC3081028</text>
<text fill="#00ffff" fill-opacity="1" stroke="none" xml:space="preserve" x="3438.3" y="1540.18" font-family="DejaVu Sans" font-size="24" font-weight="400" font-style="normal" 
 >PGC178620</text>
<text fill="#00ffff" fill-opacity="1" stroke="none" xml:space="preserve" x="3115.58" y="637.283" font-family="DejaVu Sans" font-size="24" font-weight="400" font-style="normal" 
 >PGC3081043</text>
<text fill="#00ffff" fill-opacity="1" stroke="none" xml:space="preserve" x="2987.44" y="1077.66" font-family="DejaVu Sans" font-size="24" font-weight="400" font-style="normal" 
 >PGC3097143</text>
<text fill="#00ffff" fill-opacity="1" stroke="none" xml:space="preserve" x="2364.44" y="168.955" font-family="DejaVu Sans" font-size="24" font-weight="400" font-style="normal" 
 >PGC3081019</text>
<text fill="#00ffff" fill-opacity="1" stroke="none" xml:space="preserve" x="2202.98" y="832.47" font-family="DejaVu Sans" font-size="24" font-weight="400" font-style="normal" 
 >PGC3081049</text>
<text fill="#00ffff" fill-opacity="1" stroke="none" xml:space="preserve" x="2160.83" y="877.688" font-family="DejaVu Sans" font-size="24" font-weight="400" font-style="normal" 
 >PGC3081050</text>
<text fill="#00ffff" fill-opacity="1" stroke="none" xml:space="preserve" x="1972" y="147.97" font-family="DejaVu Sans" font-size="24" font-weight="400" font-style="normal" 
 >PGC3081018</text>
<text fill="#00ffff" fill-opacity="1" stroke="none" xml:space="preserve" x="969.141" y="611.54" font-family="DejaVu Sans" font-size="24" font-weight="400" font-style="normal" 
 >PGC3081040</text>
</g>

<g fill="none" stroke="#ffffff" stroke-opacity="1" stroke-width="1" stroke-linecap="square" stroke-linejoin="miter" stroke-miterlimit="2" transform="matrix(1,0,0,1,0,0)"
font-family="DejaVu Sans" font-size="24" font-weight="400" font-style="normal" 
>
<text fill="#ffffff" fill-opacity="1" stroke="none" xml:space="preserve" x="5509.94" y="160.142" font-family="DejaVu Sans" font-size="24" font-weight="400" font-style="normal" 
 >−3°45′</text>
<text fill="#ffffff" fill-opacity="1" stroke="none" xml:space="preserve" x="4105.13" y="160.519" font-family="DejaVu Sans" font-size="24" font-weight="400" font-style="normal" 
 >−3°</text>
<text fill="#ffffff" fill-opacity="1" stroke="none" xml:space="preserve" x="2700.64" y="160.907" font-family="DejaVu Sans" font-size="24" font-weight="400" font-style="normal" 
 >−2°15′</text>
<text fill="#ffffff" fill-opacity="1" stroke="none" xml:space="preserve" x="1295.55" y="160.281" font-family="DejaVu Sans" font-size="24" font-weight="400" font-style="normal" 
 >−1°30′</text>
<text fill="#ffffff" fill-opacity="1" stroke="none" xml:space="preserve" x="4105.13" y="132.519" font-family="DejaVu Sans" font-size="24" font-weight="400" font-style="normal" 
 >5ʰ36ᵐ</text>
<text fill="#ffffff" fill-opacity="1" stroke="none" xml:space="preserve" x="4104.45" y="1534.86" font-family="DejaVu Sans" font-size="24" font-weight="400" font-style="normal" 
 >5ʰ39ᵐ</text>
<text fill="#ffffff" fill-opacity="1" stroke="none" xml:space="preserve" x="4105.05" y="2937" font-family="DejaVu Sans" font-size="24" font-weight="400" font-style="normal" 
 >5ʰ42ᵐ</text>
</g>
</g>
</svg>
