<?xml version="1.0" encoding="UTF-8" standalone="no"?>
<svg viewBox="0 0 3512 2166"
 xmlns="http://www.w3.org/2000/svg" xmlns:xlink="http://www.w3.org/1999/xlink" version="1.2" baseProfile="tiny">
<title>PixInsight SVG Document</title>
<desc>Generated with PixInsight Core 1.8.9-3 (x64)</desc>
<defs>
</defs>
<g fill="none" stroke="black" stroke-width="1" fill-rule="evenodd" stroke-linecap="square" stroke-linejoin="bevel" >

<g fill="none" stroke="#000000" stroke-opacity="1" stroke-width="1" stroke-linecap="square" stroke-linejoin="bevel" transform="matrix(1,0,0,1,0,0)"
font-family="SF Pro Text" font-size="12" font-weight="400" font-style="normal" 
>
</g>

<g fill="none" stroke="#ffffff" stroke-opacity="0.501961" stroke-width="1" stroke-linecap="square" stroke-linejoin="miter" stroke-miterlimit="2" transform="matrix(1,0,0,1,0,0)"
font-family="SF Pro Text" font-size="12" font-weight="400" font-style="normal" 
>
<polyline fill="none" vector-effect="none" points="-874.799,2463.45 -846.159,2210.12 -816.86,1956.86 -786.921,1703.69 -756.369,1450.62 -725.221,1197.65 -693.472,944.79 -661.104,692.033 -628.099,439.368 -594.442,186.809 -560.128,-65.618 -525.168,-317.909 -489.572,-570.078 " />
<polyline fill="none" vector-effect="none" points="-105.799,2546.71 -77.3485,2295.54 -48.1695,2044.39 -18.2279,1793.25 12.1878,1542.37 42.9921,1291.71 74.3422,1041.13 106.349,790.796 139.002,540.475 172.366,290.068 206.2,39.7393 240.668,-210.497 275.783,-460.589 " />
<polyline fill="none" vector-effect="none" points="662.144,2629.38 690.46,2380.25 719.409,2131.25 748.768,1882.54 778.819,1633.94 809.309,1385.61 840.306,1137.46 872.106,889.338 904.347,641.233 937.286,393.309 970.83,145.309 1004.85,-102.818 1039.53,-350.806 " />
<polyline fill="none" vector-effect="none" points="1427.94,2712.26 1455.7,2465.28 1484.13,2218.52 1513.2,1971.98 1542.84,1725.58 1573.09,1479.38 1603.92,1233.37 1635.26,987.457 1667.19,741.553 1699.71,495.826 1732.94,249.979 1766.61,4.27267 1801.2,-241.541 " />
<polyline fill="none" vector-effect="none" points="2192.83,2795.75 2220.01,2550.74 2247.87,2305.92 2276.6,2061.53 2306.07,1817.55 2335.6,1573.35 2366.15,1329.26 2397.22,1085.43 2428.82,841.732 2461.24,597.946 2494.43,354.139 2528.35,110.373 2562.88,-133.33 " />
<polyline fill="none" vector-effect="none" points="2958.3,2880.55 2985.14,2637.82 3012.55,2395.21 3040.49,2152.6 3069.01,1909.97 3098.48,1667.65 3128.64,1425.51 3159.48,1183.48 3191.15,941.523 3223.57,699.546 3256.52,457.581 3290.21,215.612 3324.78,-26.2204 " />
<polyline fill="none" vector-effect="none" points="-874.799,2463.45 -443.346,2510.24 -12.1184,2556.81 418.789,2603.16 849.001,2649.57 1278.51,2696.06 1707.63,2742.64 2136.67,2789.57 2565.93,2837.03 2995.43,2884.66 3425.01,2932.15 " />
<polyline fill="none" vector-effect="none" points="-795.674,1777.16 -364.439,1827.17 66.6951,1876.88 497.228,1926.53 926.76,1976.33 1355.53,2026.19 1783.86,2075.9 2212.08,2125.74 2640.59,2176.73 3069.42,2227.4 3498.91,2278.13 " />
<polyline fill="none" vector-effect="none" points="-711.975,1091.55 -281.106,1144.89 149.643,1198.12 579.866,1251.24 1008.55,1304.61 1436.97,1357.69 1864.81,1410.73 2292.33,1463.93 2720.18,1517.29 3148.09,1570.67 3577.06,1624.31 " />
<polyline fill="none" vector-effect="none" points="-623.783,406.695 -193.491,463.465 236.751,520.473 666.252,577.255 1094.66,633.775 1522.52,690.164 1949.87,746.489 2377.05,802.852 2804.33,859.048 3232.28,915.078 3660.61,971.302 " />
<polyline fill="none" vector-effect="none" points="-530.835,-277.33 -101.119,-217.33 328.367,-157.175 757.306,-97.0835 1185.18,-36.6859 1612.53,23.1766 2039.6,82.4524 2466.92,141.767 2894.19,201.048 3321.74,259.612 3749.76,318.67 " />
</g>

<g fill="none" stroke="#8080ff" stroke-opacity="1" stroke-width="1" stroke-linecap="square" stroke-linejoin="miter" stroke-miterlimit="2" transform="matrix(1,0,0,1,0,0)"
font-family="DejaVu Sans" font-size="64" font-weight="400" font-style="normal" 
>
<circle cx="1672.36" cy="977.596" r="421.005"/>
</g>

<g fill="none" stroke="#ff8080" stroke-opacity="1" stroke-width="1" stroke-linecap="square" stroke-linejoin="miter" stroke-miterlimit="2" transform="matrix(1,0,0,1,0,0)"
font-family="DejaVu Sans" font-size="64" font-weight="400" font-style="normal" 
>
</g>

<g fill="none" stroke="#ff8080" stroke-opacity="1" stroke-width="1" stroke-linecap="square" stroke-linejoin="miter" stroke-miterlimit="2" transform="matrix(-0.32087,0.947123,-0.947123,-0.32087,179.658,158.348)"
font-family="DejaVu Sans" font-size="64" font-weight="400" font-style="normal" 
>
<ellipse cx="-1.42109e-14" cy="-1.42109e-14" rx="90.0504" ry="66.704"/>
</g>

<g fill="none" stroke="#ff8080" stroke-opacity="1" stroke-width="1" stroke-linecap="square" stroke-linejoin="miter" stroke-miterlimit="2" transform="matrix(1,0,0,1,0,0)"
font-family="DejaVu Sans" font-size="64" font-weight="400" font-style="normal" 
>
<circle cx="1840.17" cy="570.624" r="21.1657"/>
</g>

<g fill="none" stroke="#ff8080" stroke-opacity="1" stroke-width="1" stroke-linecap="square" stroke-linejoin="miter" stroke-miterlimit="2" transform="matrix(-0.0493256,0.998783,-0.998783,-0.0493256,2031.22,231.743)"
font-family="DejaVu Sans" font-size="64" font-weight="400" font-style="normal" 
>
<ellipse cx="1.13687e-13" cy="0" rx="32.7106" ry="24.9699"/>
</g>

<g fill="none" stroke="#ff8080" stroke-opacity="1" stroke-width="1" stroke-linecap="square" stroke-linejoin="miter" stroke-miterlimit="2" transform="matrix(1,0,0,1,0,0)"
font-family="DejaVu Sans" font-size="64" font-weight="400" font-style="normal" 
>
</g>

<g fill="none" stroke="#ff8080" stroke-opacity="1" stroke-width="1" stroke-linecap="square" stroke-linejoin="miter" stroke-miterlimit="2" transform="matrix(0.885801,0.464066,-0.464066,0.885801,2981.23,641.246)"
font-family="DejaVu Sans" font-size="64" font-weight="400" font-style="normal" 
>
<ellipse cx="0" cy="0" rx="28.8623" ry="22.5487"/>
</g>

<g fill="none" stroke="#ff8080" stroke-opacity="1" stroke-width="1" stroke-linecap="square" stroke-linejoin="miter" stroke-miterlimit="2" transform="matrix(1,0,0,1,0,0)"
font-family="DejaVu Sans" font-size="64" font-weight="400" font-style="normal" 
>
</g>

<g fill="none" stroke="#ff8080" stroke-opacity="1" stroke-width="1" stroke-linecap="square" stroke-linejoin="miter" stroke-miterlimit="2" transform="matrix(0.973999,0.226554,-0.226554,0.973999,3390.68,0.730965)"
font-family="DejaVu Sans" font-size="64" font-weight="400" font-style="normal" 
>
<ellipse cx="0" cy="-1.77636e-15" rx="11.1846" ry="8.73799"/>
</g>

<g fill="none" stroke="#ff8080" stroke-opacity="1" stroke-width="1" stroke-linecap="square" stroke-linejoin="miter" stroke-miterlimit="2" transform="matrix(1,0,0,1,0,0)"
font-family="DejaVu Sans" font-size="64" font-weight="400" font-style="normal" 
>
</g>

<g fill="none" stroke="#ff8080" stroke-opacity="1" stroke-width="1" stroke-linecap="square" stroke-linejoin="miter" stroke-miterlimit="2" transform="matrix(0.849958,0.526851,-0.526851,0.849958,3436.76,2038.42)"
font-family="DejaVu Sans" font-size="64" font-weight="400" font-style="normal" 
>
<ellipse cx="0" cy="1.13687e-13" rx="40.2148" ry="10.4454"/>
</g>

<g fill="none" stroke="#ff8080" stroke-opacity="1" stroke-width="1" stroke-linecap="square" stroke-linejoin="miter" stroke-miterlimit="2" transform="matrix(1,0,0,1,0,0)"
font-family="DejaVu Sans" font-size="64" font-weight="400" font-style="normal" 
>
</g>

<g fill="none" stroke="#00ffff" stroke-opacity="1" stroke-width="1" stroke-linecap="square" stroke-linejoin="miter" stroke-miterlimit="2" transform="matrix(1,0,0,1,0,0)"
font-family="DejaVu Sans" font-size="64" font-weight="400" font-style="normal" 
>
</g>

<g fill="none" stroke="#00ffff" stroke-opacity="1" stroke-width="1" stroke-linecap="square" stroke-linejoin="miter" stroke-miterlimit="2" transform="matrix(0.534323,0.84528,-0.84528,0.534323,243.216,188.968)"
font-family="DejaVu Sans" font-size="64" font-weight="400" font-style="normal" 
>
<ellipse cx="0" cy="0" rx="11.3204" ry="7.47933"/>
</g>

<g fill="none" stroke="#00ffff" stroke-opacity="1" stroke-width="1" stroke-linecap="square" stroke-linejoin="miter" stroke-miterlimit="2" transform="matrix(1,0,0,1,0,0)"
font-family="DejaVu Sans" font-size="64" font-weight="400" font-style="normal" 
>
</g>

<g fill="none" stroke="#00ffff" stroke-opacity="1" stroke-width="1" stroke-linecap="square" stroke-linejoin="miter" stroke-miterlimit="2" transform="matrix(0.930137,0.367214,-0.367214,0.930137,152.433,2049.09)"
font-family="DejaVu Sans" font-size="64" font-weight="400" font-style="normal" 
>
<ellipse cx="0" cy="-1.13687e-13" rx="11.3937" ry="8.06609"/>
</g>

<g fill="none" stroke="#00ffff" stroke-opacity="1" stroke-width="1" stroke-linecap="square" stroke-linejoin="miter" stroke-miterlimit="2" transform="matrix(1,0,0,1,0,0)"
font-family="DejaVu Sans" font-size="64" font-weight="400" font-style="normal" 
>
</g>

<g fill="none" stroke="#00ffff" stroke-opacity="1" stroke-width="1" stroke-linecap="square" stroke-linejoin="miter" stroke-miterlimit="2" transform="matrix(-0.996955,0.0779757,-0.0779757,-0.996955,407.889,2104.31)"
font-family="DejaVu Sans" font-size="64" font-weight="400" font-style="normal" 
>
<ellipse cx="0" cy="0" rx="12.0847" ry="8.75457"/>
</g>

<g fill="none" stroke="#00ffff" stroke-opacity="1" stroke-width="1" stroke-linecap="square" stroke-linejoin="miter" stroke-miterlimit="2" transform="matrix(1,0,0,1,0,0)"
font-family="DejaVu Sans" font-size="64" font-weight="400" font-style="normal" 
>
</g>

<g fill="none" stroke="#00ffff" stroke-opacity="1" stroke-width="1" stroke-linecap="square" stroke-linejoin="miter" stroke-miterlimit="2" transform="matrix(-0.984407,0.175904,-0.175904,-0.984407,975.619,19.9935)"
font-family="DejaVu Sans" font-size="64" font-weight="400" font-style="normal" 
>
<ellipse cx="0" cy="0" rx="11.4352" ry="6.43046"/>
</g>

<g fill="none" stroke="#00ffff" stroke-opacity="1" stroke-width="1" stroke-linecap="square" stroke-linejoin="miter" stroke-miterlimit="2" transform="matrix(1,0,0,1,0,0)"
font-family="DejaVu Sans" font-size="64" font-weight="400" font-style="normal" 
>
</g>

<g fill="none" stroke="#00ffff" stroke-opacity="1" stroke-width="1" stroke-linecap="square" stroke-linejoin="miter" stroke-miterlimit="2" transform="matrix(-0.994903,-0.100832,0.100832,-0.994903,1587.61,234.927)"
font-family="DejaVu Sans" font-size="64" font-weight="400" font-style="normal" 
>
<ellipse cx="0" cy="0" rx="11.2038" ry="6.01681"/>
</g>

<g fill="none" stroke="#00ffff" stroke-opacity="1" stroke-width="1" stroke-linecap="square" stroke-linejoin="miter" stroke-miterlimit="2" transform="matrix(1,0,0,1,0,0)"
font-family="DejaVu Sans" font-size="64" font-weight="400" font-style="normal" 
>
</g>

<g fill="none" stroke="#00ffff" stroke-opacity="1" stroke-width="1" stroke-linecap="square" stroke-linejoin="miter" stroke-miterlimit="2" transform="matrix(0.901126,0.433556,-0.433556,0.901126,1871.64,422.72)"
font-family="DejaVu Sans" font-size="64" font-weight="400" font-style="normal" 
>
<ellipse cx="0" cy="0" rx="11.2038" ry="8.89951"/>
</g>

<g fill="none" stroke="#00ffff" stroke-opacity="1" stroke-width="1" stroke-linecap="square" stroke-linejoin="miter" stroke-miterlimit="2" transform="matrix(1,0,0,1,0,0)"
font-family="DejaVu Sans" font-size="64" font-weight="400" font-style="normal" 
>
</g>

<g fill="none" stroke="#00ffff" stroke-opacity="1" stroke-width="1" stroke-linecap="square" stroke-linejoin="miter" stroke-miterlimit="2" transform="matrix(-0.206455,0.978456,-0.978456,-0.206455,1751.45,1644.5)"
font-family="DejaVu Sans" font-size="64" font-weight="400" font-style="normal" 
>
<ellipse cx="0" cy="0" rx="17.9572" ry="7.48582"/>
</g>

<g fill="none" stroke="#00ffff" stroke-opacity="1" stroke-width="1" stroke-linecap="square" stroke-linejoin="miter" stroke-miterlimit="2" transform="matrix(1,0,0,1,0,0)"
font-family="DejaVu Sans" font-size="64" font-weight="400" font-style="normal" 
>
</g>

<g fill="none" stroke="#00ffff" stroke-opacity="1" stroke-width="1" stroke-linecap="square" stroke-linejoin="miter" stroke-miterlimit="2" transform="matrix(0.947253,0.320487,-0.320487,0.947253,1958.87,436.219)"
font-family="DejaVu Sans" font-size="64" font-weight="400" font-style="normal" 
>
<ellipse cx="0" cy="0" rx="11.1691" ry="4.05527"/>
</g>

<g fill="none" stroke="#00ffff" stroke-opacity="1" stroke-width="1" stroke-linecap="square" stroke-linejoin="miter" stroke-miterlimit="2" transform="matrix(1,0,0,1,0,0)"
font-family="DejaVu Sans" font-size="64" font-weight="400" font-style="normal" 
>
</g>

<g fill="none" stroke="#00ffff" stroke-opacity="1" stroke-width="1" stroke-linecap="square" stroke-linejoin="miter" stroke-miterlimit="2" transform="matrix(0.971505,0.23702,-0.23702,0.971505,1854.07,1980.11)"
font-family="DejaVu Sans" font-size="64" font-weight="400" font-style="normal" 
>
<ellipse cx="0" cy="0" rx="11.1979" ry="6.74738"/>
</g>

<g fill="none" stroke="#00ffff" stroke-opacity="1" stroke-width="1" stroke-linecap="square" stroke-linejoin="miter" stroke-miterlimit="2" transform="matrix(1,0,0,1,0,0)"
font-family="DejaVu Sans" font-size="64" font-weight="400" font-style="normal" 
>
<circle cx="1972.11" cy="2115.68" r="11.9422"/>
</g>

<g fill="none" stroke="#00ffff" stroke-opacity="1" stroke-width="1" stroke-linecap="square" stroke-linejoin="miter" stroke-miterlimit="2" transform="matrix(0.297186,0.95482,-0.95482,0.297186,2520.38,2057.55)"
font-family="DejaVu Sans" font-size="64" font-weight="400" font-style="normal" 
>
<ellipse cx="0" cy="0" rx="12.2369" ry="10.1782"/>
</g>

<g fill="none" stroke="#00ffff" stroke-opacity="1" stroke-width="1" stroke-linecap="square" stroke-linejoin="miter" stroke-miterlimit="2" transform="matrix(1,0,0,1,0,0)"
font-family="DejaVu Sans" font-size="64" font-weight="400" font-style="normal" 
>
<circle cx="2527.97" cy="2151.62" r="11.6319"/>
</g>

<g fill="none" stroke="#00ffff" stroke-opacity="1" stroke-width="1" stroke-linecap="square" stroke-linejoin="miter" stroke-miterlimit="2" transform="matrix(-0.954386,0.298576,-0.298576,-0.954386,2750.29,644.653)"
font-family="DejaVu Sans" font-size="64" font-weight="400" font-style="normal" 
>
<ellipse cx="0" cy="0" rx="11.4352" ry="8.09547"/>
</g>

<g fill="none" stroke="#00ffff" stroke-opacity="1" stroke-width="1" stroke-linecap="square" stroke-linejoin="miter" stroke-miterlimit="2" transform="matrix(1,0,0,1,0,0)"
font-family="DejaVu Sans" font-size="64" font-weight="400" font-style="normal" 
>
</g>

<g fill="none" stroke="#00ffff" stroke-opacity="1" stroke-width="1" stroke-linecap="square" stroke-linejoin="miter" stroke-miterlimit="2" transform="matrix(-0.981172,0.193136,-0.193136,-0.981172,2916.84,1865.01)"
font-family="DejaVu Sans" font-size="64" font-weight="400" font-style="normal" 
>
<ellipse cx="0" cy="0" rx="11.6319" ry="9.67503"/>
</g>

<g fill="none" stroke="#00ffff" stroke-opacity="1" stroke-width="1" stroke-linecap="square" stroke-linejoin="miter" stroke-miterlimit="2" transform="matrix(1,0,0,1,0,0)"
font-family="DejaVu Sans" font-size="64" font-weight="400" font-style="normal" 
>
</g>

<g fill="none" stroke="#00ffff" stroke-opacity="1" stroke-width="1" stroke-linecap="square" stroke-linejoin="miter" stroke-miterlimit="2" transform="matrix(-0.891886,0.45226,-0.45226,-0.891886,2965.66,1483.93)"
font-family="DejaVu Sans" font-size="64" font-weight="400" font-style="normal" 
>
<ellipse cx="0" cy="0" rx="11.3204" ry="6.66596"/>
</g>

<g fill="none" stroke="#00ffff" stroke-opacity="1" stroke-width="1" stroke-linecap="square" stroke-linejoin="miter" stroke-miterlimit="2" transform="matrix(1,0,0,1,0,0)"
font-family="DejaVu Sans" font-size="64" font-weight="400" font-style="normal" 
>
</g>

<g fill="none" stroke="#00ffff" stroke-opacity="1" stroke-width="1" stroke-linecap="square" stroke-linejoin="miter" stroke-miterlimit="2" transform="matrix(-0.998221,0.0596157,-0.0596157,-0.998221,3064.85,758.388)"
font-family="DejaVu Sans" font-size="64" font-weight="400" font-style="normal" 
>
<ellipse cx="0" cy="0" rx="11.1702" ry="5.72874"/>
</g>

<g fill="none" stroke="#00ffff" stroke-opacity="1" stroke-width="1" stroke-linecap="square" stroke-linejoin="miter" stroke-miterlimit="2" transform="matrix(1,0,0,1,0,0)"
font-family="DejaVu Sans" font-size="64" font-weight="400" font-style="normal" 
>
</g>

<g fill="none" stroke="#00ffff" stroke-opacity="1" stroke-width="1" stroke-linecap="square" stroke-linejoin="miter" stroke-miterlimit="2" transform="matrix(0.397762,0.917489,-0.917489,0.397762,3083.49,793.149)"
font-family="DejaVu Sans" font-size="64" font-weight="400" font-style="normal" 
>
<ellipse cx="0" cy="0" rx="11.2489" ry="7.78233"/>
</g>

<g fill="none" stroke="#00ffff" stroke-opacity="1" stroke-width="1" stroke-linecap="square" stroke-linejoin="miter" stroke-miterlimit="2" transform="matrix(1,0,0,1,0,0)"
font-family="DejaVu Sans" font-size="64" font-weight="400" font-style="normal" 
>
</g>

<g fill="none" stroke="#00ffff" stroke-opacity="1" stroke-width="1" stroke-linecap="square" stroke-linejoin="miter" stroke-miterlimit="2" transform="matrix(-0.602029,0.798474,-0.798474,-0.602029,3222.9,100.642)"
font-family="DejaVu Sans" font-size="64" font-weight="400" font-style="normal" 
>
<ellipse cx="0" cy="0" rx="12.2369" ry="8.66308"/>
</g>

<g fill="none" stroke="#00ffff" stroke-opacity="1" stroke-width="1" stroke-linecap="square" stroke-linejoin="miter" stroke-miterlimit="2" transform="matrix(1,0,0,1,0,0)"
font-family="DejaVu Sans" font-size="64" font-weight="400" font-style="normal" 
>
</g>

<g fill="none" stroke="#00ffff" stroke-opacity="1" stroke-width="1" stroke-linecap="square" stroke-linejoin="miter" stroke-miterlimit="2" transform="matrix(-0.600703,0.799472,-0.799472,-0.600703,3311.54,262.114)"
font-family="DejaVu Sans" font-size="64" font-weight="400" font-style="normal" 
>
<ellipse cx="0" cy="0" rx="17.9572" ry="5.81085"/>
</g>

<g fill="none" stroke="#00ffff" stroke-opacity="1" stroke-width="1" stroke-linecap="square" stroke-linejoin="miter" stroke-miterlimit="2" transform="matrix(1,0,0,1,0,0)"
font-family="DejaVu Sans" font-size="64" font-weight="400" font-style="normal" 
>
</g>

<g fill="none" stroke="#00ffff" stroke-opacity="1" stroke-width="1" stroke-linecap="square" stroke-linejoin="miter" stroke-miterlimit="2" transform="matrix(0.392981,0.919546,-0.919546,0.392981,3317.65,357.592)"
font-family="DejaVu Sans" font-size="64" font-weight="400" font-style="normal" 
>
<ellipse cx="0" cy="0" rx="11.9422" ry="7.53502"/>
</g>

<g fill="none" stroke="#00ffff" stroke-opacity="1" stroke-width="1" stroke-linecap="square" stroke-linejoin="miter" stroke-miterlimit="2" transform="matrix(1,0,0,1,0,0)"
font-family="DejaVu Sans" font-size="64" font-weight="400" font-style="normal" 
>
</g>

<g fill="none" stroke="#00ffff" stroke-opacity="1" stroke-width="1" stroke-linecap="square" stroke-linejoin="miter" stroke-miterlimit="2" transform="matrix(-0.831032,0.556225,-0.556225,-0.831032,3191.79,1365.8)"
font-family="DejaVu Sans" font-size="64" font-weight="400" font-style="normal" 
>
<ellipse cx="0" cy="0" rx="11.5783" ry="7.64969"/>
</g>

<g fill="none" stroke="#00ffff" stroke-opacity="1" stroke-width="1" stroke-linecap="square" stroke-linejoin="miter" stroke-miterlimit="2" transform="matrix(1,0,0,1,0,0)"
font-family="DejaVu Sans" font-size="64" font-weight="400" font-style="normal" 
>
</g>

<g fill="none" stroke="#00ffff" stroke-opacity="1" stroke-width="1" stroke-linecap="square" stroke-linejoin="miter" stroke-miterlimit="2" transform="matrix(0.369805,0.92911,-0.92911,0.369805,3340.3,1241.63)"
font-family="DejaVu Sans" font-size="64" font-weight="400" font-style="normal" 
>
<ellipse cx="0" cy="0" rx="11.5275" ry="7.9751"/>
</g>

<g fill="none" stroke="#00ffff" stroke-opacity="1" stroke-width="1" stroke-linecap="square" stroke-linejoin="miter" stroke-miterlimit="2" transform="matrix(1,0,0,1,0,0)"
font-family="DejaVu Sans" font-size="64" font-weight="400" font-style="normal" 
>
</g>

<g fill="none" stroke="#00ffff" stroke-opacity="1" stroke-width="1" stroke-linecap="square" stroke-linejoin="miter" stroke-miterlimit="2" transform="matrix(0.830847,0.556501,-0.556501,0.830847,3477.11,451.082)"
font-family="DejaVu Sans" font-size="64" font-weight="400" font-style="normal" 
>
<ellipse cx="0" cy="0" rx="11.7013" ry="3.78646"/>
</g>

<g fill="none" stroke="#00ffff" stroke-opacity="1" stroke-width="1" stroke-linecap="square" stroke-linejoin="miter" stroke-miterlimit="2" transform="matrix(1,0,0,1,0,0)"
font-family="DejaVu Sans" font-size="64" font-weight="400" font-style="normal" 
>
</g>

<g fill="none" stroke="#00ffff" stroke-opacity="1" stroke-width="1" stroke-linecap="square" stroke-linejoin="miter" stroke-miterlimit="2" transform="matrix(0.254508,0.967071,-0.967071,0.254508,3452,1319.66)"
font-family="DejaVu Sans" font-size="64" font-weight="400" font-style="normal" 
>
<ellipse cx="0" cy="0" rx="11.7013" ry="5.47311"/>
</g>

<g fill="none" stroke="#00ffff" stroke-opacity="1" stroke-width="1" stroke-linecap="square" stroke-linejoin="miter" stroke-miterlimit="2" transform="matrix(1,0,0,1,0,0)"
font-family="DejaVu Sans" font-size="64" font-weight="400" font-style="normal" 
>
</g>

<g fill="none" stroke="#00ffff" stroke-opacity="1" stroke-width="1" stroke-linecap="square" stroke-linejoin="miter" stroke-miterlimit="2" transform="matrix(-0.0908263,0.995867,-0.995867,-0.0908263,3484.11,1392.97)"
font-family="DejaVu Sans" font-size="64" font-weight="400" font-style="normal" 
>
<ellipse cx="0" cy="0" rx="11.3526" ry="6.53272"/>
</g>

<g fill="none" stroke="#00ffff" stroke-opacity="1" stroke-width="1" stroke-linecap="square" stroke-linejoin="miter" stroke-miterlimit="2" transform="matrix(1,0,0,1,0,0)"
font-family="DejaVu Sans" font-size="64" font-weight="400" font-style="normal" 
>
</g>

<g fill="none" stroke="#8080ff" stroke-opacity="1" stroke-width="1" stroke-linecap="square" stroke-linejoin="miter" stroke-miterlimit="2" transform="matrix(1,0,0,1,0,0)"
font-family="DejaVu Sans" font-size="32" font-weight="400" font-style="normal" 
>
<text fill="#8080ff" fill-opacity="1" stroke="none" xml:space="preserve" x="1577.34" y="990.096" font-family="DejaVu Sans" font-size="32" font-weight="400" font-style="normal" 
 >M101</text>
<text fill="#8080ff" fill-opacity="1" stroke="none" xml:space="preserve" x="1683.34" y="993.596" font-family="DejaVu Sans" font-size="32" font-weight="400" font-style="normal" 
 >Pinwheel Galaxy</text>
</g>

<g fill="none" stroke="#ff8080" stroke-opacity="1" stroke-width="1" stroke-linecap="square" stroke-linejoin="miter" stroke-miterlimit="2" transform="matrix(1,0,0,1,0,0)"
font-family="DejaVu Sans" font-size="32" font-weight="400" font-style="normal" 
>
<polyline fill="none" vector-effect="none" points="1408.92,1009.56 1413.92,1009.56 " />
<polyline fill="none" vector-effect="none" points="1428.92,1009.56 1423.92,1009.56 " />
<polyline fill="none" vector-effect="none" points="1418.92,1019.56 1418.92,1014.56 " />
<polyline fill="none" vector-effect="none" points="1418.92,999.558 1418.92,1004.56 " />
<polyline fill="none" vector-effect="none" points="1454.78,1195.04 1459.78,1195.04 " />
<polyline fill="none" vector-effect="none" points="1474.78,1195.04 1469.78,1195.04 " />
<polyline fill="none" vector-effect="none" points="1464.78,1205.04 1464.78,1200.04 " />
<polyline fill="none" vector-effect="none" points="1464.78,1185.04 1464.78,1190.04 " />
<polyline fill="none" vector-effect="none" points="1464.6,1204.18 1469.6,1204.18 " />
<polyline fill="none" vector-effect="none" points="1484.6,1204.18 1479.6,1204.18 " />
<polyline fill="none" vector-effect="none" points="1474.6,1214.18 1474.6,1209.18 " />
<polyline fill="none" vector-effect="none" points="1474.6,1194.18 1474.6,1199.18 " />
<polyline fill="none" vector-effect="none" points="1557.78,1055.53 1562.78,1055.53 " />
<polyline fill="none" vector-effect="none" points="1577.78,1055.53 1572.78,1055.53 " />
<polyline fill="none" vector-effect="none" points="1567.78,1065.53 1567.78,1060.53 " />
<polyline fill="none" vector-effect="none" points="1567.78,1045.53 1567.78,1050.53 " />
<polyline fill="none" vector-effect="none" points="1610.94,810.702 1615.94,810.702 " />
<polyline fill="none" vector-effect="none" points="1630.94,810.702 1625.94,810.702 " />
<polyline fill="none" vector-effect="none" points="1620.94,820.702 1620.94,815.702 " />
<polyline fill="none" vector-effect="none" points="1620.94,800.702 1620.94,805.702 " />
<polyline fill="none" vector-effect="none" points="1587.1,1225.03 1592.1,1225.03 " />
<polyline fill="none" vector-effect="none" points="1607.1,1225.03 1602.1,1225.03 " />
<polyline fill="none" vector-effect="none" points="1597.1,1235.03 1597.1,1230.03 " />
<polyline fill="none" vector-effect="none" points="1597.1,1215.03 1597.1,1220.03 " />
<polyline fill="none" vector-effect="none" points="1671.77,1184.5 1676.77,1184.5 " />
<polyline fill="none" vector-effect="none" points="1691.77,1184.5 1686.77,1184.5 " />
<polyline fill="none" vector-effect="none" points="1681.77,1194.5 1681.77,1189.5 " />
<polyline fill="none" vector-effect="none" points="1681.77,1174.5 1681.77,1179.5 " />
<polyline fill="none" vector-effect="none" points="1736.66,758.621 1741.66,758.621 " />
<polyline fill="none" vector-effect="none" points="1756.66,758.621 1751.66,758.621 " />
<polyline fill="none" vector-effect="none" points="1746.66,768.621 1746.66,763.621 " />
<polyline fill="none" vector-effect="none" points="1746.66,748.621 1746.66,753.621 " />
</g>

<g fill="none" stroke="#ff8080" stroke-opacity="1" stroke-width="1" stroke-linecap="square" stroke-linejoin="miter" stroke-miterlimit="2" transform="matrix(1,0,0,1,0,0)"
font-family="DejaVu Sans" font-size="32" font-weight="400" font-style="normal" 
>
<text fill="#ff8080" fill-opacity="1" stroke="none" xml:space="preserve" x="105.156" y="147.348" font-family="DejaVu Sans" font-size="32" font-weight="400" font-style="normal" 
 >NGC5474</text>
<text fill="#ff8080" fill-opacity="1" stroke="none" xml:space="preserve" x="1259.91" y="1022.06" font-family="DejaVu Sans" font-size="32" font-weight="400" font-style="normal" 
 >NGC5455</text>
<text fill="#ff8080" fill-opacity="1" stroke="none" xml:space="preserve" x="1390.27" y="1184.04" font-family="DejaVu Sans" font-size="32" font-weight="400" font-style="normal" 
 >NGC5450</text>
<text fill="#ff8080" fill-opacity="1" stroke="none" xml:space="preserve" x="1389.59" y="1240.18" font-family="DejaVu Sans" font-size="32" font-weight="400" font-style="normal" 
 >NGC5447</text>
<text fill="#ff8080" fill-opacity="1" stroke="none" xml:space="preserve" x="1578.77" y="1068.03" font-family="DejaVu Sans" font-size="32" font-weight="400" font-style="normal" 
 >NGC5453</text>
<text fill="#ff8080" fill-opacity="1" stroke="none" xml:space="preserve" x="1461.92" y="823.202" font-family="DejaVu Sans" font-size="32" font-weight="400" font-style="normal" 
 >NGC5461</text>
<text fill="#ff8080" fill-opacity="1" stroke="none" xml:space="preserve" x="1608.09" y="1248.53" font-family="DejaVu Sans" font-size="32" font-weight="400" font-style="normal" 
 >NGC5449</text>
<text fill="#ff8080" fill-opacity="1" stroke="none" xml:space="preserve" x="1692.77" y="1186" font-family="DejaVu Sans" font-size="32" font-weight="400" font-style="normal" 
 >NGC5451</text>
<text fill="#ff8080" fill-opacity="1" stroke="none" xml:space="preserve" x="1757.66" y="771.121" font-family="DejaVu Sans" font-size="32" font-weight="400" font-style="normal" 
 >NGC5462</text>
<text fill="#ff8080" fill-opacity="1" stroke="none" xml:space="preserve" x="1851.16" y="583.124" font-family="DejaVu Sans" font-size="32" font-weight="400" font-style="normal" 
 >NGC5471</text>
<text fill="#ff8080" fill-opacity="1" stroke="none" xml:space="preserve" x="2042.22" y="244.243" font-family="DejaVu Sans" font-size="32" font-weight="400" font-style="normal" 
 >NGC5477</text>
<text fill="#ff8080" fill-opacity="1" stroke="none" xml:space="preserve" x="2992.22" y="653.746" font-family="DejaVu Sans" font-size="32" font-weight="400" font-style="normal" 
 >NGC5473</text>
<text fill="#ff8080" fill-opacity="1" stroke="none" xml:space="preserve" x="3316.17" y="-10.269" font-family="DejaVu Sans" font-size="32" font-weight="400" font-style="normal" 
 >NGC5484</text>
<text fill="#ff8080" fill-opacity="1" stroke="none" xml:space="preserve" x="3277.75" y="2050.92" font-family="DejaVu Sans" font-size="32" font-weight="400" font-style="normal" 
 >NGC5422</text>
</g>

<g fill="none" stroke="#00ffff" stroke-opacity="1" stroke-width="1" stroke-linecap="square" stroke-linejoin="miter" stroke-miterlimit="2" transform="matrix(1,0,0,1,0,0)"
font-family="DejaVu Sans" font-size="32" font-weight="400" font-style="normal" 
>
<polyline fill="none" vector-effect="none" points="1827.29,568.701 1832.29,568.701 " />
<polyline fill="none" vector-effect="none" points="1847.29,568.701 1842.29,568.701 " />
<polyline fill="none" vector-effect="none" points="1837.29,578.701 1837.29,573.701 " />
<polyline fill="none" vector-effect="none" points="1837.29,558.701 1837.29,563.701 " />
<polyline fill="none" vector-effect="none" points="1906.44,315.944 1911.44,315.944 " />
<polyline fill="none" vector-effect="none" points="1926.44,315.944 1921.44,315.944 " />
<polyline fill="none" vector-effect="none" points="1916.44,325.944 1916.44,320.944 " />
<polyline fill="none" vector-effect="none" points="1916.44,305.944 1916.44,310.944 " />
</g>

<g fill="none" stroke="#00ffff" stroke-opacity="1" stroke-width="1" stroke-linecap="square" stroke-linejoin="miter" stroke-miterlimit="2" transform="matrix(1,0,0,1,0,0)"
font-family="DejaVu Sans" font-size="24" font-weight="400" font-style="normal" 
>
<text fill="#00ffff" fill-opacity="1" stroke="none" xml:space="preserve" x="254.203" y="198.468" font-family="DejaVu Sans" font-size="24" font-weight="400" font-style="normal" 
 >PGC2448110</text>
<text fill="#00ffff" fill-opacity="1" stroke="none" xml:space="preserve" x="163.422" y="2058.59" font-family="DejaVu Sans" font-size="24" font-weight="400" font-style="normal" 
 >PGC2449818</text>
<text fill="#00ffff" fill-opacity="1" stroke="none" xml:space="preserve" x="418.875" y="2113.81" font-family="DejaVu Sans" font-size="24" font-weight="400" font-style="normal" 
 >PGC2453053</text>
<text fill="#00ffff" fill-opacity="1" stroke="none" xml:space="preserve" x="898.609" y="49.9935" font-family="DejaVu Sans" font-size="24" font-weight="400" font-style="normal" 
 >PGC2456753</text>
<text fill="#00ffff" fill-opacity="1" stroke="none" xml:space="preserve" x="1598.59" y="244.427" font-family="DejaVu Sans" font-size="24" font-weight="400" font-style="normal" 
 >PGC2464645</text>
<text fill="#00ffff" fill-opacity="1" stroke="none" xml:space="preserve" x="1687.28" y="578.201" font-family="DejaVu Sans" font-size="24" font-weight="400" font-style="normal" 
 >PGC165629</text>
<text fill="#00ffff" fill-opacity="1" stroke="none" xml:space="preserve" x="1706.64" y="432.22" font-family="DejaVu Sans" font-size="24" font-weight="400" font-style="normal" 
 >PGC2468609</text>
<text fill="#00ffff" fill-opacity="1" stroke="none" xml:space="preserve" x="1927.44" y="325.444" font-family="DejaVu Sans" font-size="24" font-weight="400" font-style="normal" 
 >PGC2816075</text>
<text fill="#00ffff" fill-opacity="1" stroke="none" xml:space="preserve" x="1762.44" y="1654" font-family="DejaVu Sans" font-size="24" font-weight="400" font-style="normal" 
 >PGC49919</text>
<text fill="#00ffff" fill-opacity="1" stroke="none" xml:space="preserve" x="1969.86" y="445.719" font-family="DejaVu Sans" font-size="24" font-weight="400" font-style="normal" 
 >PGC2469762</text>
<text fill="#00ffff" fill-opacity="1" stroke="none" xml:space="preserve" x="1865.06" y="1989.61" font-family="DejaVu Sans" font-size="24" font-weight="400" font-style="normal" 
 >PGC2470911</text>
<text fill="#00ffff" fill-opacity="1" stroke="none" xml:space="preserve" x="1983.11" y="2125.18" font-family="DejaVu Sans" font-size="24" font-weight="400" font-style="normal" 
 >PGC2472607</text>
<text fill="#00ffff" fill-opacity="1" stroke="none" xml:space="preserve" x="2531.38" y="2067.05" font-family="DejaVu Sans" font-size="24" font-weight="400" font-style="normal" 
 >PGC2479781</text>
<text fill="#00ffff" fill-opacity="1" stroke="none" xml:space="preserve" x="2450.97" y="2140.62" font-family="DejaVu Sans" font-size="24" font-weight="400" font-style="normal" 
 >PGC2480053</text>
<text fill="#00ffff" fill-opacity="1" stroke="none" xml:space="preserve" x="2585.28" y="654.153" font-family="DejaVu Sans" font-size="24" font-weight="400" font-style="normal" 
 >PGC2480519</text>
<text fill="#00ffff" fill-opacity="1" stroke="none" xml:space="preserve" x="2927.83" y="1874.51" font-family="DejaVu Sans" font-size="24" font-weight="400" font-style="normal" 
 >PGC2484987</text>
<text fill="#00ffff" fill-opacity="1" stroke="none" xml:space="preserve" x="2976.66" y="1493.43" font-family="DejaVu Sans" font-size="24" font-weight="400" font-style="normal" 
 >PGC2485011</text>
<text fill="#00ffff" fill-opacity="1" stroke="none" xml:space="preserve" x="2995.34" y="747.388" font-family="DejaVu Sans" font-size="24" font-weight="400" font-style="normal" 
 >PGC214207</text>
<text fill="#00ffff" fill-opacity="1" stroke="none" xml:space="preserve" x="3094.48" y="802.649" font-family="DejaVu Sans" font-size="24" font-weight="400" font-style="normal" 
 >PGC2485420</text>
<text fill="#00ffff" fill-opacity="1" stroke="none" xml:space="preserve" x="3233.89" y="110.142" font-family="DejaVu Sans" font-size="24" font-weight="400" font-style="normal" 
 >PGC2485992</text>
<text fill="#00ffff" fill-opacity="1" stroke="none" xml:space="preserve" x="3146.53" y="271.614" font-family="DejaVu Sans" font-size="24" font-weight="400" font-style="normal" 
 >PGC2487633</text>
<text fill="#00ffff" fill-opacity="1" stroke="none" xml:space="preserve" x="3152.64" y="367.092" font-family="DejaVu Sans" font-size="24" font-weight="400" font-style="normal" 
 >PGC2487904</text>
<text fill="#00ffff" fill-opacity="1" stroke="none" xml:space="preserve" x="3026.78" y="1375.3" font-family="DejaVu Sans" font-size="24" font-weight="400" font-style="normal" 
 >PGC2488024</text>
<text fill="#00ffff" fill-opacity="1" stroke="none" xml:space="preserve" x="3176.28" y="1251.13" font-family="DejaVu Sans" font-size="24" font-weight="400" font-style="normal" 
 >PGC2489892</text>
<text fill="#00ffff" fill-opacity="1" stroke="none" xml:space="preserve" x="3312.09" y="460.582" font-family="DejaVu Sans" font-size="24" font-weight="400" font-style="normal" 
 >PGC2490330</text>
<text fill="#00ffff" fill-opacity="1" stroke="none" xml:space="preserve" x="3287" y="1329.16" font-family="DejaVu Sans" font-size="24" font-weight="400" font-style="normal" 
 >PGC2491663</text>
<text fill="#00ffff" fill-opacity="1" stroke="none" xml:space="preserve" x="3319.11" y="1402.47" font-family="DejaVu Sans" font-size="24" font-weight="400" font-style="normal" 
 >PGC2492263</text>
</g>

<g fill="none" stroke="#ffffff" stroke-opacity="1" stroke-width="1" stroke-linecap="square" stroke-linejoin="miter" stroke-miterlimit="2" transform="matrix(1,0,0,1,0,0)"
font-family="DejaVu Sans" font-size="24" font-weight="400" font-style="normal" 
>
<text fill="#ffffff" fill-opacity="1" stroke="none" xml:space="preserve" x="56.0469" y="1214.56" font-family="DejaVu Sans" font-size="24" font-weight="400" font-style="normal" 
 >+53°40′</text>
<text fill="#ffffff" fill-opacity="1" stroke="none" xml:space="preserve" x="822.219" y="1309.47" font-family="DejaVu Sans" font-size="24" font-weight="400" font-style="normal" 
 >+54°</text>
<text fill="#ffffff" fill-opacity="1" stroke="none" xml:space="preserve" x="1585.95" y="1404.18" font-family="DejaVu Sans" font-size="24" font-weight="400" font-style="normal" 
 >+54°20′</text>
<text fill="#ffffff" fill-opacity="1" stroke="none" xml:space="preserve" x="2348.28" y="1498.92" font-family="DejaVu Sans" font-size="24" font-weight="400" font-style="normal" 
 >+54°40′</text>
<text fill="#ffffff" fill-opacity="1" stroke="none" xml:space="preserve" x="3111.05" y="1594.04" font-family="DejaVu Sans" font-size="24" font-weight="400" font-style="normal" 
 >+55°</text>
<text fill="#ffffff" fill-opacity="1" stroke="none" xml:space="preserve" x="740.203" y="1954.68" font-family="DejaVu Sans" font-size="24" font-weight="400" font-style="normal" 
 >14ʰ</text>
<text fill="#ffffff" fill-opacity="1" stroke="none" xml:space="preserve" x="822.219" y="1281.47" font-family="DejaVu Sans" font-size="24" font-weight="400" font-style="normal" 
 >14ʰ2ᵐ</text>
<text fill="#ffffff" fill-opacity="1" stroke="none" xml:space="preserve" x="908.547" y="609.15" font-family="DejaVu Sans" font-size="24" font-weight="400" font-style="normal" 
 >14ʰ4ᵐ</text>
</g>
</g>
</svg>
