<?xml version="1.0" encoding="UTF-8" standalone="no"?>
<svg viewBox="0 0 2580 2354"
 xmlns="http://www.w3.org/2000/svg" xmlns:xlink="http://www.w3.org/1999/xlink" version="1.2" baseProfile="tiny">
<title>PixInsight SVG Document</title>
<desc>Generated with PixInsight Core 1.8.9-3 (x64)</desc>
<defs>
</defs>
<g fill="none" stroke="black" stroke-width="1" fill-rule="evenodd" stroke-linecap="square" stroke-linejoin="bevel" >

<g fill="none" stroke="#000000" stroke-opacity="1" stroke-width="1" stroke-linecap="square" stroke-linejoin="bevel" transform="matrix(1,0,0,1,0,0)"
font-family="SF Pro Text" font-size="12" font-weight="400" font-style="normal" 
>
</g>

<g fill="none" stroke="#ffffff" stroke-opacity="0.501961" stroke-width="1" stroke-linecap="square" stroke-linejoin="miter" stroke-miterlimit="2" transform="matrix(1,0,0,1,0,0)"
font-family="SF Pro Text" font-size="12" font-weight="400" font-style="normal" 
>
<polyline fill="none" vector-effect="none" points="-188.531,-275.256 -226.447,157.658 -263.497,590.637 -299.681,1023.68 -334.999,1456.8 -369.451,1889.99 -403.038,2323.25 " />
<polyline fill="none" vector-effect="none" points="391.134,-223.939 353.313,207.801 316.358,639.607 280.27,1071.48 245.048,1503.42 210.691,1935.43 177.201,2367.52 " />
<polyline fill="none" vector-effect="none" points="970.776,-172.624 933.05,257.943 896.19,688.575 860.197,1119.27 825.07,1550.04 790.81,1980.88 757.416,2411.79 " />
<polyline fill="none" vector-effect="none" points="1550.4,-121.31 1512.77,308.083 1476.01,737.541 1440.11,1167.07 1405.08,1596.66 1370.92,2026.33 1337.62,2456.07 " />
<polyline fill="none" vector-effect="none" points="2130.03,-69.9958 2092.49,358.223 2055.82,786.508 2020.02,1214.86 1985.08,1643.28 1951.02,2071.77 1917.82,2500.34 " />
<polyline fill="none" vector-effect="none" points="2709.66,-18.6815 2672.22,408.364 2635.64,835.474 2599.94,1262.65 2565.1,1689.9 2531.12,2117.22 2498.02,2544.61 " />
<polyline fill="none" vector-effect="none" points="-188.531,-275.256 404.507,-222.755 997.522,-170.256 1590.52,-117.758 2183.52,-65.2604 2776.52,-12.7621 " />
<polyline fill="none" vector-effect="none" points="-244.275,364.724 348.907,415.45 942.065,466.174 1535.21,516.896 2128.35,567.619 2721.5,618.342 " />
<polyline fill="none" vector-effect="none" points="-298.125,1004.85 295.201,1053.8 888.503,1102.75 1481.79,1151.7 2075.07,1200.64 2668.37,1249.59 " />
<polyline fill="none" vector-effect="none" points="-350.084,1645.12 243.387,1692.3 836.834,1739.47 1430.27,1786.65 2023.7,1833.82 2617.13,1880.99 " />
<polyline fill="none" vector-effect="none" points="-400.151,2285.56 193.466,2330.96 787.058,2376.36 1380.64,2421.75 1974.21,2467.15 2567.79,2512.55 " />
</g>

<g fill="none" stroke="#8080ff" stroke-opacity="1" stroke-width="1" stroke-linecap="square" stroke-linejoin="miter" stroke-miterlimit="2" transform="matrix(1,0,0,1,0,0)"
font-family="DejaVu Sans" font-size="64" font-weight="400" font-style="normal" 
>
<ellipse cx="1328.31" cy="1217.81" rx="325.992" ry="325.992"/>
</g>

<g fill="none" stroke="#00ffff" stroke-opacity="1" stroke-width="1" stroke-linecap="square" stroke-linejoin="miter" stroke-miterlimit="2" transform="matrix(1,0,0,1,0,0)"
font-family="DejaVu Sans" font-size="64" font-weight="400" font-style="normal" 
>
</g>

<g fill="none" stroke="#00ffff" stroke-opacity="1" stroke-width="1" stroke-linecap="square" stroke-linejoin="miter" stroke-miterlimit="2" transform="matrix(-0.855008,0.518614,-0.518614,-0.855008,100.287,871.502)"
font-family="DejaVu Sans" font-size="64" font-weight="400" font-style="normal" 
>
<ellipse cx="0" cy="0" rx="11.5614" ry="7.29473"/>
</g>

<g fill="none" stroke="#00ffff" stroke-opacity="1" stroke-width="1" stroke-linecap="square" stroke-linejoin="miter" stroke-miterlimit="2" transform="matrix(1,0,0,1,0,0)"
font-family="DejaVu Sans" font-size="64" font-weight="400" font-style="normal" 
>
</g>

<g fill="none" stroke="#00ffff" stroke-opacity="1" stroke-width="1" stroke-linecap="square" stroke-linejoin="miter" stroke-miterlimit="2" transform="matrix(-0.916784,0.399382,-0.399382,-0.916784,81.3794,1996.65)"
font-family="DejaVu Sans" font-size="64" font-weight="400" font-style="normal" 
>
<ellipse cx="0" cy="0" rx="13.0014" ry="6.3678"/>
</g>

<g fill="none" stroke="#00ffff" stroke-opacity="1" stroke-width="1" stroke-linecap="square" stroke-linejoin="miter" stroke-miterlimit="2" transform="matrix(1,0,0,1,0,0)"
font-family="DejaVu Sans" font-size="64" font-weight="400" font-style="normal" 
>
</g>

<g fill="none" stroke="#00ffff" stroke-opacity="1" stroke-width="1" stroke-linecap="square" stroke-linejoin="miter" stroke-miterlimit="2" transform="matrix(0.252038,0.967717,-0.967717,0.252038,357.415,2237.56)"
font-family="DejaVu Sans" font-size="64" font-weight="400" font-style="normal" 
>
<ellipse cx="0" cy="0" rx="11.2777" ry="7.45112"/>
</g>

<g fill="none" stroke="#00ffff" stroke-opacity="1" stroke-width="1" stroke-linecap="square" stroke-linejoin="miter" stroke-miterlimit="2" transform="matrix(1,0,0,1,0,0)"
font-family="DejaVu Sans" font-size="64" font-weight="400" font-style="normal" 
>
</g>

<g fill="none" stroke="#00ffff" stroke-opacity="1" stroke-width="1" stroke-linecap="square" stroke-linejoin="miter" stroke-miterlimit="2" transform="matrix(-0.997545,-0.0700256,0.0700256,-0.997545,1965.07,78.1877)"
font-family="DejaVu Sans" font-size="64" font-weight="400" font-style="normal" 
>
<ellipse cx="0" cy="0" rx="28.4439" ry="17.5384"/>
</g>

<g fill="none" stroke="#00ffff" stroke-opacity="1" stroke-width="1" stroke-linecap="square" stroke-linejoin="miter" stroke-miterlimit="2" transform="matrix(1,0,0,1,0,0)"
font-family="DejaVu Sans" font-size="64" font-weight="400" font-style="normal" 
>
</g>

<g fill="none" stroke="#00ffff" stroke-opacity="1" stroke-width="1" stroke-linecap="square" stroke-linejoin="miter" stroke-miterlimit="2" transform="matrix(0.985379,0.170378,-0.170378,0.985379,2083.23,853.887)"
font-family="DejaVu Sans" font-size="64" font-weight="400" font-style="normal" 
>
<ellipse cx="0" cy="0" rx="29.1065" ry="13.6141"/>
</g>

<g fill="none" stroke="#00ffff" stroke-opacity="1" stroke-width="1" stroke-linecap="square" stroke-linejoin="miter" stroke-miterlimit="2" transform="matrix(1,0,0,1,0,0)"
font-family="DejaVu Sans" font-size="64" font-weight="400" font-style="normal" 
>
</g>

<g fill="none" stroke="#00ffff" stroke-opacity="1" stroke-width="1" stroke-linecap="square" stroke-linejoin="miter" stroke-miterlimit="2" transform="matrix(-0.997513,0.070487,-0.070487,-0.997513,2382.27,328.205)"
font-family="DejaVu Sans" font-size="64" font-weight="400" font-style="normal" 
>
<ellipse cx="0" cy="0" rx="11.5614" ry="8.57056"/>
</g>

<g fill="none" stroke="#00ffff" stroke-opacity="1" stroke-width="1" stroke-linecap="square" stroke-linejoin="miter" stroke-miterlimit="2" transform="matrix(1,0,0,1,0,0)"
font-family="DejaVu Sans" font-size="64" font-weight="400" font-style="normal" 
>
</g>

<g fill="none" stroke="#00ffff" stroke-opacity="1" stroke-width="1" stroke-linecap="square" stroke-linejoin="miter" stroke-miterlimit="2" transform="matrix(-0.969353,0.245673,-0.245673,-0.969353,2401.1,997.34)"
font-family="DejaVu Sans" font-size="64" font-weight="400" font-style="normal" 
>
<ellipse cx="0" cy="0" rx="11.5614" ry="10.0695"/>
</g>

<g fill="none" stroke="#00ffff" stroke-opacity="1" stroke-width="1" stroke-linecap="square" stroke-linejoin="miter" stroke-miterlimit="2" transform="matrix(1,0,0,1,0,0)"
font-family="DejaVu Sans" font-size="64" font-weight="400" font-style="normal" 
>
</g>

<g fill="none" stroke="#00ffff" stroke-opacity="1" stroke-width="1" stroke-linecap="square" stroke-linejoin="miter" stroke-miterlimit="2" transform="matrix(0.78003,0.625742,-0.625742,0.78003,2511.98,1161.41)"
font-family="DejaVu Sans" font-size="64" font-weight="400" font-style="normal" 
>
<ellipse cx="0" cy="0" rx="11.4457" ry="8.2917"/>
</g>

<g fill="none" stroke="#00ffff" stroke-opacity="1" stroke-width="1" stroke-linecap="square" stroke-linejoin="miter" stroke-miterlimit="2" transform="matrix(1,0,0,1,0,0)"
font-family="DejaVu Sans" font-size="64" font-weight="400" font-style="normal" 
>
</g>

<g fill="none" stroke="#00ffff" stroke-opacity="1" stroke-width="1" stroke-linecap="square" stroke-linejoin="miter" stroke-miterlimit="2" transform="matrix(-0.387871,0.921714,-0.921714,-0.387871,2577.97,849.931)"
font-family="DejaVu Sans" font-size="64" font-weight="400" font-style="normal" 
>
<ellipse cx="0" cy="0" rx="17.1392" ry="7.65578"/>
</g>

<g fill="none" stroke="#00ffff" stroke-opacity="1" stroke-width="1" stroke-linecap="square" stroke-linejoin="miter" stroke-miterlimit="2" transform="matrix(1,0,0,1,0,0)"
font-family="DejaVu Sans" font-size="64" font-weight="400" font-style="normal" 
>
</g>

<g fill="none" stroke="#8080ff" stroke-opacity="1" stroke-width="1" stroke-linecap="square" stroke-linejoin="miter" stroke-miterlimit="2" transform="matrix(1,0,0,1,0,0)"
font-family="DejaVu Sans" font-size="32" font-weight="400" font-style="normal" 
>
<text fill="#8080ff" fill-opacity="1" stroke="none" xml:space="preserve" x="1339.3" y="1230.31" font-family="DejaVu Sans" font-size="32" font-weight="400" font-style="normal" 
 >M92</text>
</g>

<g fill="none" stroke="#00ffff" stroke-opacity="1" stroke-width="1" stroke-linecap="square" stroke-linejoin="miter" stroke-miterlimit="2" transform="matrix(1,0,0,1,0,0)"
font-family="DejaVu Sans" font-size="32" font-weight="400" font-style="normal" 
>
<polyline fill="none" vector-effect="none" points="158.012,1909.14 163.012,1909.14 " />
<polyline fill="none" vector-effect="none" points="178.012,1909.14 173.012,1909.14 " />
<polyline fill="none" vector-effect="none" points="168.012,1919.14 168.012,1914.14 " />
<polyline fill="none" vector-effect="none" points="168.012,1899.14 168.012,1904.14 " />
</g>

<g fill="none" stroke="#00ffff" stroke-opacity="1" stroke-width="1" stroke-linecap="square" stroke-linejoin="miter" stroke-miterlimit="2" transform="matrix(1,0,0,1,0,0)"
font-family="DejaVu Sans" font-size="24" font-weight="400" font-style="normal" 
>
<text fill="#00ffff" fill-opacity="1" stroke="none" xml:space="preserve" x="111.281" y="881.002" font-family="DejaVu Sans" font-size="24" font-weight="400" font-style="normal" 
 >PGC2205947</text>
<text fill="#00ffff" fill-opacity="1" stroke="none" xml:space="preserve" x="92.375" y="2006.15" font-family="DejaVu Sans" font-size="24" font-weight="400" font-style="normal" 
 >PGC2206395</text>
<text fill="#00ffff" fill-opacity="1" stroke="none" xml:space="preserve" x="179" y="1918.64" font-family="DejaVu Sans" font-size="24" font-weight="400" font-style="normal" 
 >PGC3096541</text>
<text fill="#00ffff" fill-opacity="1" stroke="none" xml:space="preserve" x="368.406" y="2247.06" font-family="DejaVu Sans" font-size="24" font-weight="400" font-style="normal" 
 >PGC2208131</text>
<text fill="#00ffff" fill-opacity="1" stroke="none" xml:space="preserve" x="1976.06" y="87.6877" font-family="DejaVu Sans" font-size="24" font-weight="400" font-style="normal" 
 >PGC59938</text>
<text fill="#00ffff" fill-opacity="1" stroke="none" xml:space="preserve" x="2094.22" y="863.387" font-family="DejaVu Sans" font-size="24" font-weight="400" font-style="normal" 
 >PGC59984</text>
<text fill="#00ffff" fill-opacity="1" stroke="none" xml:space="preserve" x="2217.27" y="337.705" font-family="DejaVu Sans" font-size="24" font-weight="400" font-style="normal" 
 >PGC2220230</text>
<text fill="#00ffff" fill-opacity="1" stroke="none" xml:space="preserve" x="2236.09" y="1006.84" font-family="DejaVu Sans" font-size="24" font-weight="400" font-style="normal" 
 >PGC2220717</text>
<text fill="#00ffff" fill-opacity="1" stroke="none" xml:space="preserve" x="2346.97" y="1170.91" font-family="DejaVu Sans" font-size="24" font-weight="400" font-style="normal" 
 >PGC2221593</text>
<text fill="#00ffff" fill-opacity="1" stroke="none" xml:space="preserve" x="2412.97" y="859.431" font-family="DejaVu Sans" font-size="24" font-weight="400" font-style="normal" 
 >PGC2221860</text>
</g>

<g fill="none" stroke="#ffffff" stroke-opacity="1" stroke-width="1" stroke-linecap="square" stroke-linejoin="miter" stroke-miterlimit="2" transform="matrix(1,0,0,1,0,0)"
font-family="DejaVu Sans" font-size="24" font-weight="400" font-style="normal" 
>
<text fill="#ffffff" fill-opacity="1" stroke="none" xml:space="preserve" x="281.813" y="1080.69" font-family="DejaVu Sans" font-size="24" font-weight="400" font-style="normal" 
 >+42°50′</text>
<text fill="#ffffff" fill-opacity="1" stroke="none" xml:space="preserve" x="861.734" y="1128.54" font-family="DejaVu Sans" font-size="24" font-weight="400" font-style="normal" 
 >+43°</text>
<text fill="#ffffff" fill-opacity="1" stroke="none" xml:space="preserve" x="1441.64" y="1176.38" font-family="DejaVu Sans" font-size="24" font-weight="400" font-style="normal" 
 >+43°10′</text>
<text fill="#ffffff" fill-opacity="1" stroke="none" xml:space="preserve" x="2021.55" y="1224.23" font-family="DejaVu Sans" font-size="24" font-weight="400" font-style="normal" 
 >+43°20′</text>
<text fill="#ffffff" fill-opacity="1" stroke="none" xml:space="preserve" x="915.313" y="463.886" font-family="DejaVu Sans" font-size="24" font-weight="400" font-style="normal" 
 >17ʰ16ᵐ</text>
<text fill="#ffffff" fill-opacity="1" stroke="none" xml:space="preserve" x="861.734" y="1100.54" font-family="DejaVu Sans" font-size="24" font-weight="400" font-style="normal" 
 >17ʰ17ᵐ</text>
<text fill="#ffffff" fill-opacity="1" stroke="none" xml:space="preserve" x="810.063" y="1737.34" font-family="DejaVu Sans" font-size="24" font-weight="400" font-style="normal" 
 >17ʰ18ᵐ</text>
</g>
</g>
</svg>
