<?xml version="1.0" encoding="UTF-8" standalone="no"?>
<svg viewBox="0 0 6231 4153"
 xmlns="http://www.w3.org/2000/svg" xmlns:xlink="http://www.w3.org/1999/xlink" version="1.2" baseProfile="tiny">
<title>PixInsight SVG Document</title>
<desc>Generated with PixInsight Core 1.8.9-3 (x64)</desc>
<defs>
</defs>
<g fill="none" stroke="black" stroke-width="1" fill-rule="evenodd" stroke-linecap="square" stroke-linejoin="bevel" >

<g fill="none" stroke="#000000" stroke-opacity="1" stroke-width="1" stroke-linecap="square" stroke-linejoin="bevel" transform="matrix(1,0,0,1,0,0)"
font-family="SF Pro Text" font-size="12" font-weight="400" font-style="normal" 
>
</g>

<g fill="none" stroke="#ffffff" stroke-opacity="0.501961" stroke-width="1" stroke-linecap="square" stroke-linejoin="miter" stroke-miterlimit="2" transform="matrix(1,0,0,1,0,0)"
font-family="SF Pro Text" font-size="12" font-weight="400" font-style="normal" 
>
<polyline fill="none" vector-effect="none" points="7078.31,-395.16 7076.18,-44.6454 7074.2,305.821 7072.36,656.257 7070.67,1006.68 7069.13,1357.08 7067.75,1707.48 7066.53,2057.88 7065.5,2408.28 7064.64,2758.68 7063.96,3109.07 7063.43,3459.45 7063.07,3809.84 7062.85,4160.24 " />
<polyline fill="none" vector-effect="none" points="5672.35,-402.053 5670.3,-51.1249 5668.36,299.757 5666.53,650.598 5664.83,1001.42 5663.29,1352.22 5661.93,1703.01 5660.76,2053.79 5659.76,2404.58 5658.95,2755.37 5658.3,3106.14 5657.8,3456.91 5657.43,3807.72 5657.2,4158.57 " />
<polyline fill="none" vector-effect="none" points="4267.31,-408.673 4265.32,-57.2949 4263.43,294.004 4261.65,645.233 4260,996.41 4258.53,1347.55 4257.24,1698.67 4256.15,2049.79 4255.23,2400.9 4254.45,2752.03 4253.79,3103.18 4253.24,3454.36 4252.8,3805.58 4252.48,4156.83 " />
<polyline fill="none" vector-effect="none" points="2863.24,-415.616 2861.49,-63.7886 2859.87,287.929 2858.36,639.551 2856.96,991.107 2855.66,1342.62 2854.46,1694.12 2853.34,2045.6 2852.33,2397.1 2851.44,2748.61 2850.65,3100.14 2849.96,3451.7 2849.38,3803.31 2848.89,4154.98 " />
<polyline fill="none" vector-effect="none" points="1459.12,-423.246 1457.56,-71.0176 1456.1,281.147 1454.75,633.255 1453.47,985.314 1452.27,1337.34 1451.13,1689.34 1450.06,2041.32 1449.06,2393.3 1448.13,2745.28 1447.3,3097.26 1446.56,3449.27 1445.83,3801.31 1445.17,4153.41 " />
<polyline fill="none" vector-effect="none" points="53.7813,-430.85 52.2723,-78.1903 50.7727,274.42 49.3866,626.992 48.1145,979.55 46.9296,1332.11 45.7374,1684.66 44.7903,2037.21 43.7808,2389.75 42.831,2742.29 41.9968,3094.83 41.2777,3447.37 40.6052,3799.94 39.9788,4152.56 " />
<polyline fill="none" vector-effect="none" points="7078.31,-395.16 6705.53,-397.016 6332.84,-398.858 5960.23,-400.678 5587.68,-402.454 5215.17,-404.206 4842.73,-405.956 4470.37,-407.711 4098.1,-409.48 3725.9,-411.273 3353.76,-413.107 2981.63,-415 2609.51,-416.953 2237.36,-418.957 1865.17,-421.002 1492.95,-423.059 1120.66,-425.108 748.257,-427.139 375.693,-429.145 2.92253,-431.117 " />
<polyline fill="none" vector-effect="none" points="7070.71,998.306 6698,996.868 6325.35,995.453 5952.76,994.077 5580.2,992.736 5207.71,991.411 4835.3,990.088 4463.02,988.756 4090.91,987.408 3718.94,986.036 3347.09,984.629 2975.29,983.181 2603.46,981.691 2231.53,980.166 1859.49,978.613 1487.33,977.049 1115.04,975.488 742.61,973.942 370.017,972.419 -2.70178,970.929 " />
<polyline fill="none" vector-effect="none" points="7065.55,2391.54 6692.83,2390.56 6320.19,2389.57 5947.64,2388.58 5575.16,2387.6 5202.75,2386.62 4830.44,2385.65 4458.24,2384.67 4086.16,2383.68 3714.22,2382.68 3342.41,2381.66 2970.66,2380.64 2598.87,2379.61 2227.01,2378.58 1855.02,2377.57 1482.93,2376.58 1110.69,2375.61 738.275,2374.66 365.671,2373.72 -7.00716,2372.78 " />
<polyline fill="none" vector-effect="none" points="7063.09,3784.73 6690.4,3784.2 6317.8,3783.64 5945.28,3783.05 5572.81,3782.45 5200.4,3781.87 4828.07,3781.3 4455.82,3780.73 4083.67,3780.15 3711.62,3779.55 3339.66,3778.94 2967.74,3778.31 2595.83,3777.7 2223.88,3777.11 1851.86,3776.57 1479.71,3776.12 1107.36,3775.74 734.876,3775.39 362.349,3775.02 -10.1638,3774.62 " />
</g>

<g fill="none" stroke="#8080ff" stroke-opacity="1" stroke-width="1" stroke-linecap="square" stroke-linejoin="miter" stroke-miterlimit="2" transform="matrix(1,0,0,1,0,0)"
font-family="DejaVu Sans" font-size="64" font-weight="400" font-style="normal" 
>
<ellipse cx="3115.13" cy="2045.69" rx="1029.44" ry="1029.44"/>
<ellipse cx="2890.41" cy="2155.25" rx="311.95" ry="311.95"/>
</g>

<g fill="none" stroke="#ff8080" stroke-opacity="1" stroke-width="1" stroke-linecap="square" stroke-linejoin="miter" stroke-miterlimit="2" transform="matrix(1,0,0,1,0,0)"
font-family="DejaVu Sans" font-size="64" font-weight="400" font-style="normal" 
>
<ellipse cx="6202.33" cy="3460.02" rx="171.573" ry="171.573"/>
<ellipse cx="5587.51" cy="2581.36" rx="249.56" ry="249.56"/>
<ellipse cx="4113.97" cy="2030.04" rx="218.365" ry="218.365"/>
<circle cx="2047.16" cy="2033.1" r="233.963"/>
<circle cx="1884.35" cy="1948.67" r="77.9876"/>
<ellipse cx="1795.81" cy="2051.76" rx="155.975" ry="155.975"/>
<circle cx="1423.7" cy="2092.78" r="389.938"/>
</g>

<g fill="none" stroke="#00ffff" stroke-opacity="1" stroke-width="1" stroke-linecap="square" stroke-linejoin="miter" stroke-miterlimit="2" transform="matrix(1,0,0,1,0,0)"
font-family="DejaVu Sans" font-size="64" font-weight="400" font-style="normal" 
>
</g>

<g fill="none" stroke="#00ffff" stroke-opacity="1" stroke-width="1" stroke-linecap="square" stroke-linejoin="miter" stroke-miterlimit="2" transform="matrix(0.613385,0.789784,-0.789784,0.613385,2797.68,2069.57)"
font-family="DejaVu Sans" font-size="64" font-weight="400" font-style="normal" 
>
<ellipse cx="0" cy="0" rx="17.5007" ry="5.93001"/>
</g>

<g fill="none" stroke="#00ffff" stroke-opacity="1" stroke-width="1" stroke-linecap="square" stroke-linejoin="miter" stroke-miterlimit="2" transform="matrix(1,0,0,1,0,0)"
font-family="DejaVu Sans" font-size="64" font-weight="400" font-style="normal" 
>
</g>

<g fill="none" stroke="#ffd700" stroke-opacity="1" stroke-width="1" stroke-linecap="square" stroke-linejoin="miter" stroke-miterlimit="2" transform="matrix(1,0,0,1,0,0)"
font-family="DejaVu Sans" font-size="64" font-weight="400" font-style="normal" 
>
<polyline fill="none" vector-effect="none" points="4077.33,2119.81 4082.33,2119.81 " />
<polyline fill="none" vector-effect="none" points="4097.33,2119.81 4092.33,2119.81 " />
<polyline fill="none" vector-effect="none" points="4087.33,2129.81 4087.33,2124.81 " />
<polyline fill="none" vector-effect="none" points="4087.33,2109.81 4087.33,2114.81 " />
<polyline fill="none" vector-effect="none" points="3153.72,2093.2 3158.72,2093.2 " />
<polyline fill="none" vector-effect="none" points="3173.72,2093.2 3168.72,2093.2 " />
<polyline fill="none" vector-effect="none" points="3163.72,2103.2 3163.72,2098.2 " />
<polyline fill="none" vector-effect="none" points="3163.72,2083.2 3163.72,2088.2 " />
<polyline fill="none" vector-effect="none" points="3100.13,2038.11 3105.13,2038.11 " />
<polyline fill="none" vector-effect="none" points="3120.13,2038.11 3115.13,2038.11 " />
<polyline fill="none" vector-effect="none" points="3110.13,2048.11 3110.13,2043.11 " />
<polyline fill="none" vector-effect="none" points="3110.13,2028.11 3110.13,2033.11 " />
<polyline fill="none" vector-effect="none" points="3096.2,2040.49 3101.2,2040.49 " />
<polyline fill="none" vector-effect="none" points="3116.2,2040.49 3111.2,2040.49 " />
<polyline fill="none" vector-effect="none" points="3106.2,2050.49 3106.2,2045.49 " />
<polyline fill="none" vector-effect="none" points="3106.2,2030.49 3106.2,2035.49 " />
<polyline fill="none" vector-effect="none" points="2105.97,2218.88 2110.97,2218.88 " />
<polyline fill="none" vector-effect="none" points="2125.97,2218.88 2120.97,2218.88 " />
<polyline fill="none" vector-effect="none" points="2115.97,2228.88 2115.97,2223.88 " />
<polyline fill="none" vector-effect="none" points="2115.97,2208.88 2115.97,2213.88 " />
<polyline fill="none" vector-effect="none" points="2073.19,2091.98 2078.19,2091.98 " />
<polyline fill="none" vector-effect="none" points="2093.19,2091.98 2088.19,2091.98 " />
<polyline fill="none" vector-effect="none" points="2083.19,2101.98 2083.19,2096.98 " />
<polyline fill="none" vector-effect="none" points="2083.19,2081.98 2083.19,2086.98 " />
<polyline fill="none" vector-effect="none" points="3104.57,2043.1 3109.57,2043.1 " />
<polyline fill="none" vector-effect="none" points="3124.57,2043.1 3119.57,2043.1 " />
<polyline fill="none" vector-effect="none" points="3114.57,2053.1 3114.57,2048.1 " />
<polyline fill="none" vector-effect="none" points="3114.57,2033.1 3114.57,2038.1 " />
</g>

<g fill="none" stroke="#ffd700" stroke-opacity="1" stroke-width="1" stroke-linecap="square" stroke-linejoin="miter" stroke-miterlimit="2" transform="matrix(1,0,0,1,0,0)"
font-family="DejaVu Sans" font-size="28" font-weight="400" font-style="normal" 
>
<text fill="#ffd700" fill-opacity="1" stroke="none" xml:space="preserve" x="4036.33" y="2108.81" font-family="DejaVu Sans" font-size="28" font-weight="400" font-style="normal" 
 >44 ι </text>
<text fill="#ffd700" fill-opacity="1" stroke="none" xml:space="preserve" x="4099.2" y="2108.81" font-family="DejaVu Sans" font-size="28" font-weight="400" font-style="normal" 
 >Ori</text>
<text fill="#ffd700" fill-opacity="1" stroke="none" xml:space="preserve" x="4040.33" y="2157.81" font-family="DejaVu Sans" font-size="28" font-weight="400" font-style="normal" 
 >Hatysa</text>
<text fill="#ffd700" fill-opacity="1" stroke="none" xml:space="preserve" x="3103.22" y="2127.2" font-family="DejaVu Sans" font-size="28" font-weight="400" font-style="normal" 
 >43 θ² </text>
<text fill="#ffd700" fill-opacity="1" stroke="none" xml:space="preserve" x="3184.97" y="2127.2" font-family="DejaVu Sans" font-size="28" font-weight="400" font-style="normal" 
 >Ori</text>
<text fill="#ffd700" fill-opacity="1" stroke="none" xml:space="preserve" x="3034.63" y="2027.11" font-family="DejaVu Sans" font-size="28" font-weight="400" font-style="normal" 
 >41 θ¹ </text>
<text fill="#ffd700" fill-opacity="1" stroke="none" xml:space="preserve" x="3116.38" y="2027.11" font-family="DejaVu Sans" font-size="28" font-weight="400" font-style="normal" 
 >Ori A</text>
<text fill="#ffd700" fill-opacity="1" stroke="none" xml:space="preserve" x="2945.19" y="2062.99" font-family="DejaVu Sans" font-size="28" font-weight="400" font-style="normal" 
 >41 θ¹ </text>
<text fill="#ffd700" fill-opacity="1" stroke="none" xml:space="preserve" x="3026.94" y="2062.99" font-family="DejaVu Sans" font-size="28" font-weight="400" font-style="normal" 
 >Ori B</text>
<text fill="#ffd700" fill-opacity="1" stroke="none" xml:space="preserve" x="2126.95" y="2230.38" font-family="DejaVu Sans" font-size="28" font-weight="400" font-style="normal" 
 >45 Ori</text>
<text fill="#ffd700" fill-opacity="1" stroke="none" xml:space="preserve" x="2094.19" y="2103.48" font-family="DejaVu Sans" font-size="28" font-weight="400" font-style="normal" 
 >42 c Ori</text>
<text fill="#ffd700" fill-opacity="1" stroke="none" xml:space="preserve" x="3125.56" y="2065.6" font-family="DejaVu Sans" font-size="28" font-weight="400" font-style="normal" 
 >41 θ¹ </text>
<text fill="#ffd700" fill-opacity="1" stroke="none" xml:space="preserve" x="3207.31" y="2065.6" font-family="DejaVu Sans" font-size="28" font-weight="400" font-style="normal" 
 >Ori C</text>
</g>

<g fill="none" stroke="#8080ff" stroke-opacity="1" stroke-width="1" stroke-linecap="square" stroke-linejoin="miter" stroke-miterlimit="2" transform="matrix(1,0,0,1,0,0)"
font-family="DejaVu Sans" font-size="32" font-weight="400" font-style="normal" 
>
<text fill="#8080ff" fill-opacity="1" stroke="none" xml:space="preserve" x="2858.91" y="2144.25" font-family="DejaVu Sans" font-size="32" font-weight="400" font-style="normal" 
 >M43</text>
<text fill="#8080ff" fill-opacity="1" stroke="none" xml:space="preserve" x="2736.91" y="2192.25" font-family="DejaVu Sans" font-size="32" font-weight="400" font-style="normal" 
 >De Mairan's Nebula</text>
</g>

<g fill="none" stroke="#ff8080" stroke-opacity="1" stroke-width="1" stroke-linecap="square" stroke-linejoin="miter" stroke-miterlimit="2" transform="matrix(1,0,0,1,0,0)"
font-family="DejaVu Sans" font-size="32" font-weight="400" font-style="normal" 
>
<text fill="#ff8080" fill-opacity="1" stroke="none" xml:space="preserve" x="6102.31" y="3472.52" font-family="DejaVu Sans" font-size="32" font-weight="400" font-style="normal" 
 >IC430</text>
<text fill="#ff8080" fill-opacity="1" stroke="none" xml:space="preserve" x="5598.5" y="2593.86" font-family="DejaVu Sans" font-size="32" font-weight="400" font-style="normal" 
 >NGC1999</text>
<text fill="#ff8080" fill-opacity="1" stroke="none" xml:space="preserve" x="4124.95" y="2042.54" font-family="DejaVu Sans" font-size="32" font-weight="400" font-style="normal" 
 >NGC1980</text>
<text fill="#ff8080" fill-opacity="1" stroke="none" xml:space="preserve" x="2058.16" y="2045.6" font-family="DejaVu Sans" font-size="32" font-weight="400" font-style="normal" 
 >NGC1977</text>
<text fill="#ff8080" fill-opacity="1" stroke="none" xml:space="preserve" x="1895.34" y="1961.17" font-family="DejaVu Sans" font-size="32" font-weight="400" font-style="normal" 
 >NGC1973</text>
<text fill="#ff8080" fill-opacity="1" stroke="none" xml:space="preserve" x="1806.81" y="2064.26" font-family="DejaVu Sans" font-size="32" font-weight="400" font-style="normal" 
 >NGC1975</text>
<text fill="#ff8080" fill-opacity="1" stroke="none" xml:space="preserve" x="1434.69" y="2105.28" font-family="DejaVu Sans" font-size="32" font-weight="400" font-style="normal" 
 >NGC1981</text>
</g>

<g fill="none" stroke="#00ffff" stroke-opacity="1" stroke-width="1" stroke-linecap="square" stroke-linejoin="miter" stroke-miterlimit="2" transform="matrix(1,0,0,1,0,0)"
font-family="DejaVu Sans" font-size="24" font-weight="400" font-style="normal" 
>
<text fill="#00ffff" fill-opacity="1" stroke="none" xml:space="preserve" x="2632.67" y="2079.07" font-family="DejaVu Sans" font-size="24" font-weight="400" font-style="normal" 
 >PGC3081010</text>
</g>

<g fill="none" stroke="#ffffff" stroke-opacity="1" stroke-width="1" stroke-linecap="square" stroke-linejoin="miter" stroke-miterlimit="2" transform="matrix(1,0,0,1,0,0)"
font-family="DejaVu Sans" font-size="24" font-weight="400" font-style="normal" 
>
<text fill="#ffffff" fill-opacity="1" stroke="none" xml:space="preserve" x="5664.86" y="1021.04" font-family="DejaVu Sans" font-size="24" font-weight="400" font-style="normal" 
 >−6°45′</text>
<text fill="#ffffff" fill-opacity="1" stroke="none" xml:space="preserve" x="4260.03" y="1016.02" font-family="DejaVu Sans" font-size="24" font-weight="400" font-style="normal" 
 >−6°</text>
<text fill="#ffffff" fill-opacity="1" stroke="none" xml:space="preserve" x="2856.98" y="1010.71" font-family="DejaVu Sans" font-size="24" font-weight="400" font-style="normal" 
 >−5°15′</text>
<text fill="#ffffff" fill-opacity="1" stroke="none" xml:space="preserve" x="1453.5" y="1004.91" font-family="DejaVu Sans" font-size="24" font-weight="400" font-style="normal" 
 >−4°30′</text>
<text fill="#ffffff" fill-opacity="1" stroke="none" xml:space="preserve" x="48.1406" y="999.13" font-family="DejaVu Sans" font-size="24" font-weight="400" font-style="normal" 
 >−3°45′</text>
<text fill="#ffffff" fill-opacity="1" stroke="none" xml:space="preserve" x="4260.03" y="988.023" font-family="DejaVu Sans" font-size="24" font-weight="400" font-style="normal" 
 >5ʰ33ᵐ</text>
<text fill="#ffffff" fill-opacity="1" stroke="none" xml:space="preserve" x="4255.27" y="2384.13" font-family="DejaVu Sans" font-size="24" font-weight="400" font-style="normal" 
 >5ʰ36ᵐ</text>
<text fill="#ffffff" fill-opacity="1" stroke="none" xml:space="preserve" x="4252.83" y="3780.41" font-family="DejaVu Sans" font-size="24" font-weight="400" font-style="normal" 
 >5ʰ39ᵐ</text>
</g>
</g>
</svg>
