<?xml version="1.0" encoding="UTF-8" standalone="no"?>
<svg viewBox="0 0 6232 4143"
 xmlns="http://www.w3.org/2000/svg" xmlns:xlink="http://www.w3.org/1999/xlink" version="1.2" baseProfile="tiny">
<title>PixInsight SVG Document</title>
<desc>Generated with PixInsight Core 1.8.9-3 (x64)</desc>
<defs>
</defs>
<g fill="none" stroke="black" stroke-width="1" fill-rule="evenodd" stroke-linecap="square" stroke-linejoin="bevel" >

<g fill="none" stroke="#000000" stroke-opacity="1" stroke-width="1" stroke-linecap="square" stroke-linejoin="bevel" transform="matrix(1,0,0,1,0,0)"
font-family="SF Pro Text" font-size="12" font-weight="400" font-style="normal" 
>
</g>

<g fill="none" stroke="#ffffff" stroke-opacity="0.501961" stroke-width="1" stroke-linecap="square" stroke-linejoin="miter" stroke-miterlimit="2" transform="matrix(1,0,0,1,0,0)"
font-family="SF Pro Text" font-size="12" font-weight="400" font-style="normal" 
>
<polyline fill="none" vector-effect="none" points="7079.07,-409.205 7076.75,-58.2023 7074.57,292.707 7072.59,643.533 7070.8,994.309 7069.21,1345.04 7067.81,1695.74 7066.57,2046.42 7065.48,2397.07 7064.65,2747.72 7064.18,3098.38 7063.98,3449.09 7063.89,3799.83 7063.84,4150.61 " />
<polyline fill="none" vector-effect="none" points="5671.93,-415.981 5669.69,-64.403 5667.64,287.202 5665.77,638.48 5663.91,989.466 5662.38,1340.78 5661.05,1691.55 5659.71,2042.46 5658.76,2393.44 5658.06,2744.39 5657.55,3095.39 5657.31,3446.48 5656.98,3797.64 5656.66,4148.83 " />
<polyline fill="none" vector-effect="none" points="4266.43,-422.163 4264.44,-70.3351 4262.56,281.463 4260.78,633.103 4259.14,984.489 4257.72,1335.78 4256.5,1687.17 4255.36,2038.24 4254.34,2389.44 4253.56,2740.79 4252.79,3092.19 4252.22,3443.57 4251.85,3794.95 4251.59,4146.46 " />
<polyline fill="none" vector-effect="none" points="2862.3,-428.828 2860.52,-76.6402 2858.83,275.334 2857.3,627.081 2855.86,978.891 2854.65,1330.81 2853.51,1682.64 2852.24,2034.26 2851.33,2385.66 2850.5,2737.29 2849.77,3089.01 2849.05,3440.79 2848.42,3792.65 2847.92,4144.71 " />
<polyline fill="none" vector-effect="none" points="1458.37,-436.288 1456.69,-83.7022 1454.99,268.73 1453.78,621.04 1452.62,973.288 1451.3,1325.52 1450.38,1677.76 1449.27,2029.98 1448.06,2382.2 1447.25,2734.45 1446.36,3086.71 1445.57,3438.97 1444.81,3791.27 1444.17,4143.66 " />
<polyline fill="none" vector-effect="none" points="51.3779,-444.483 49.894,-91.4953 48.7092,261.489 47.7237,614.45 46.772,967.357 45.7462,1320.21 44.6943,1673.02 43.667,2025.77 42.6527,2378.47 41.4335,2731.32 40.7286,3084.15 39.8049,3436.95 38.8484,3789.88 37.9994,4142.91 " />
<polyline fill="none" vector-effect="none" points="7079.07,-409.205 6706.11,-410.996 6333.24,-412.801 5960.34,-414.611 5587.44,-416.366 5214.7,-417.962 4842.21,-419.576 4469.93,-421.256 4097.74,-422.9 3725.57,-424.561 3353.46,-426.377 2981.42,-428.23 2609.36,-430.122 2237.41,-432.074 1865.46,-434.065 1493.21,-436.096 1120.62,-438.192 747.817,-440.388 374.801,-442.616 1.73167,-444.764 " />
<polyline fill="none" vector-effect="none" points="7070.84,985.065 6697.87,983.751 6324.99,982.48 5952.2,981.197 5579.52,979.908 5207.01,978.73 4834.71,977.41 4462.57,976.115 4090.6,974.495 3718.74,973.09 3346.75,971.798 2975.05,970.088 2603.18,968.636 2231.36,967.168 1859.35,965.666 1487.46,964.147 1115.09,962.618 742.672,961.049 370.086,959.446 -2.86487,957.846 " />
<polyline fill="none" vector-effect="none" points="7065.54,2378.59 6692.59,2377.65 6319.9,2376.71 5947.27,2375.73 5574.35,2374.71 5202.09,2373.62 4829.6,2372.54 4457.85,2371.45 4085.9,2370.51 3713.84,2369.45 3342.19,2368.32 2970.44,2367.4 2598.59,2366.49 2226.77,2365.51 1854.92,2364.6 1482.9,2363.72 1110.8,2362.83 738.508,2361.89 365.941,2360.83 -6.94045,2359.74 " />
<polyline fill="none" vector-effect="none" points="7063.89,3772.1 6691.09,3771.55 6318.31,3770.98 5945.41,3770.38 5572.53,3769.71 5199.96,3768.94 4827.58,3768.18 4455.33,3767.51 4083.26,3766.87 3711.34,3766.21 3339.42,3765.56 2967.54,3764.97 2595.61,3764.53 2223.64,3764.13 1851.69,3763.77 1479.67,3763.44 1107.34,3763.13 734.711,3762.79 362.058,3762.38 -10.6976,3761.91 " />
</g>

<g fill="none" stroke="#8080ff" stroke-opacity="1" stroke-width="1" stroke-linecap="square" stroke-linejoin="miter" stroke-miterlimit="2" transform="matrix(1,0,0,1,0,0)"
font-family="DejaVu Sans" font-size="64" font-weight="400" font-style="normal" 
>
<ellipse cx="3114.17" cy="2032.54" rx="1029.43" ry="1029.43"/>
<ellipse cx="2889.37" cy="2142.24" rx="311.948" ry="311.948"/>
</g>

<g fill="none" stroke="#ff8080" stroke-opacity="1" stroke-width="1" stroke-linecap="square" stroke-linejoin="miter" stroke-miterlimit="2" transform="matrix(1,0,0,1,0,0)"
font-family="DejaVu Sans" font-size="64" font-weight="400" font-style="normal" 
>
<ellipse cx="6202.47" cy="3447.18" rx="171.571" ry="171.571"/>
<ellipse cx="5586.66" cy="2568.44" rx="249.558" ry="249.558"/>
<ellipse cx="4113.23" cy="2017.09" rx="218.363" ry="218.363"/>
<ellipse cx="2046.02" cy="2020.09" rx="233.961" ry="233.961"/>
<circle cx="1883.37" cy="1935.69" r="77.987"/>
<circle cx="1795.06" cy="2038.8" r="155.974"/>
<ellipse cx="1422.92" cy="2079.91" rx="389.935" ry="389.935"/>
</g>

<g fill="none" stroke="#00ffff" stroke-opacity="1" stroke-width="1" stroke-linecap="square" stroke-linejoin="miter" stroke-miterlimit="2" transform="matrix(1,0,0,1,0,0)"
font-family="DejaVu Sans" font-size="64" font-weight="400" font-style="normal" 
>
</g>

<g fill="none" stroke="#00ffff" stroke-opacity="1" stroke-width="1" stroke-linecap="square" stroke-linejoin="miter" stroke-miterlimit="2" transform="matrix(0.61339,0.78978,-0.78978,0.61339,2796.54,2056.69)"
font-family="DejaVu Sans" font-size="64" font-weight="400" font-style="normal" 
>
<ellipse cx="0" cy="0" rx="17.5006" ry="5.92996"/>
</g>

<g fill="none" stroke="#00ffff" stroke-opacity="1" stroke-width="1" stroke-linecap="square" stroke-linejoin="miter" stroke-miterlimit="2" transform="matrix(1,0,0,1,0,0)"
font-family="DejaVu Sans" font-size="64" font-weight="400" font-style="normal" 
>
</g>

<g fill="none" stroke="#ffd700" stroke-opacity="1" stroke-width="1" stroke-linecap="square" stroke-linejoin="miter" stroke-miterlimit="2" transform="matrix(1,0,0,1,0,0)"
font-family="DejaVu Sans" font-size="64" font-weight="400" font-style="normal" 
>
<polyline fill="none" vector-effect="none" points="4076.64,2106.79 4081.64,2106.79 " />
<polyline fill="none" vector-effect="none" points="4096.64,2106.79 4091.64,2106.79 " />
<polyline fill="none" vector-effect="none" points="4086.64,2116.79 4086.64,2111.79 " />
<polyline fill="none" vector-effect="none" points="4086.64,2096.79 4086.64,2101.79 " />
<polyline fill="none" vector-effect="none" points="3152.75,2079.97 3157.75,2079.97 " />
<polyline fill="none" vector-effect="none" points="3172.75,2079.97 3167.75,2079.97 " />
<polyline fill="none" vector-effect="none" points="3162.75,2089.97 3162.75,2084.97 " />
<polyline fill="none" vector-effect="none" points="3162.75,2069.97 3162.75,2074.97 " />
<polyline fill="none" vector-effect="none" points="3099.17,2024.97 3104.17,2024.97 " />
<polyline fill="none" vector-effect="none" points="3119.17,2024.97 3114.17,2024.97 " />
<polyline fill="none" vector-effect="none" points="3109.17,2034.97 3109.17,2029.97 " />
<polyline fill="none" vector-effect="none" points="3109.17,2014.97 3109.17,2019.97 " />
<polyline fill="none" vector-effect="none" points="3095.24,2027.36 3100.24,2027.36 " />
<polyline fill="none" vector-effect="none" points="3115.24,2027.36 3110.24,2027.36 " />
<polyline fill="none" vector-effect="none" points="3105.24,2037.36 3105.24,2032.36 " />
<polyline fill="none" vector-effect="none" points="3105.24,2017.36 3105.24,2022.36 " />
<polyline fill="none" vector-effect="none" points="2104.84,2205.84 2109.84,2205.84 " />
<polyline fill="none" vector-effect="none" points="2124.84,2205.84 2119.84,2205.84 " />
<polyline fill="none" vector-effect="none" points="2114.84,2215.84 2114.84,2210.84 " />
<polyline fill="none" vector-effect="none" points="2114.84,2195.84 2114.84,2200.84 " />
<polyline fill="none" vector-effect="none" points="2072.04,2078.96 2077.04,2078.96 " />
<polyline fill="none" vector-effect="none" points="2092.04,2078.96 2087.04,2078.96 " />
<polyline fill="none" vector-effect="none" points="2082.04,2088.96 2082.04,2083.96 " />
<polyline fill="none" vector-effect="none" points="2082.04,2068.96 2082.04,2073.96 " />
<polyline fill="none" vector-effect="none" points="3103.62,2029.95 3108.62,2029.95 " />
<polyline fill="none" vector-effect="none" points="3123.62,2029.95 3118.62,2029.95 " />
<polyline fill="none" vector-effect="none" points="3113.62,2039.95 3113.62,2034.95 " />
<polyline fill="none" vector-effect="none" points="3113.62,2019.95 3113.62,2024.95 " />
</g>

<g fill="none" stroke="#ffd700" stroke-opacity="1" stroke-width="1" stroke-linecap="square" stroke-linejoin="miter" stroke-miterlimit="2" transform="matrix(1,0,0,1,0,0)"
font-family="DejaVu Sans" font-size="28" font-weight="400" font-style="normal" 
>
<text fill="#ffd700" fill-opacity="1" stroke="none" xml:space="preserve" x="4035.64" y="2095.79" font-family="DejaVu Sans" font-size="28" font-weight="400" font-style="normal" 
 >44 ι </text>
<text fill="#ffd700" fill-opacity="1" stroke="none" xml:space="preserve" x="4098.52" y="2095.79" font-family="DejaVu Sans" font-size="28" font-weight="400" font-style="normal" 
 >Ori</text>
<text fill="#ffd700" fill-opacity="1" stroke="none" xml:space="preserve" x="4039.64" y="2144.79" font-family="DejaVu Sans" font-size="28" font-weight="400" font-style="normal" 
 >Hatysa</text>
<text fill="#ffd700" fill-opacity="1" stroke="none" xml:space="preserve" x="3102.23" y="2113.97" font-family="DejaVu Sans" font-size="28" font-weight="400" font-style="normal" 
 >43 θ² </text>
<text fill="#ffd700" fill-opacity="1" stroke="none" xml:space="preserve" x="3183.98" y="2113.97" font-family="DejaVu Sans" font-size="28" font-weight="400" font-style="normal" 
 >Ori</text>
<text fill="#ffd700" fill-opacity="1" stroke="none" xml:space="preserve" x="3033.66" y="2013.97" font-family="DejaVu Sans" font-size="28" font-weight="400" font-style="normal" 
 >41 θ¹ </text>
<text fill="#ffd700" fill-opacity="1" stroke="none" xml:space="preserve" x="3115.41" y="2013.97" font-family="DejaVu Sans" font-size="28" font-weight="400" font-style="normal" 
 >Ori A</text>
<text fill="#ffd700" fill-opacity="1" stroke="none" xml:space="preserve" x="2944.23" y="2049.86" font-family="DejaVu Sans" font-size="28" font-weight="400" font-style="normal" 
 >41 θ¹ </text>
<text fill="#ffd700" fill-opacity="1" stroke="none" xml:space="preserve" x="3025.98" y="2049.86" font-family="DejaVu Sans" font-size="28" font-weight="400" font-style="normal" 
 >Ori B</text>
<text fill="#ffd700" fill-opacity="1" stroke="none" xml:space="preserve" x="2125.83" y="2217.34" font-family="DejaVu Sans" font-size="28" font-weight="400" font-style="normal" 
 >45 Ori</text>
<text fill="#ffd700" fill-opacity="1" stroke="none" xml:space="preserve" x="2093.03" y="2090.46" font-family="DejaVu Sans" font-size="28" font-weight="400" font-style="normal" 
 >42 c Ori</text>
<text fill="#ffd700" fill-opacity="1" stroke="none" xml:space="preserve" x="3124.61" y="2052.45" font-family="DejaVu Sans" font-size="28" font-weight="400" font-style="normal" 
 >41 θ¹ </text>
<text fill="#ffd700" fill-opacity="1" stroke="none" xml:space="preserve" x="3206.36" y="2052.45" font-family="DejaVu Sans" font-size="28" font-weight="400" font-style="normal" 
 >Ori C</text>
</g>

<g fill="none" stroke="#8080ff" stroke-opacity="1" stroke-width="1" stroke-linecap="square" stroke-linejoin="miter" stroke-miterlimit="2" transform="matrix(1,0,0,1,0,0)"
font-family="DejaVu Sans" font-size="32" font-weight="400" font-style="normal" 
>
<text fill="#8080ff" fill-opacity="1" stroke="none" xml:space="preserve" x="2857.86" y="2131.24" font-family="DejaVu Sans" font-size="32" font-weight="400" font-style="normal" 
 >M43</text>
<text fill="#8080ff" fill-opacity="1" stroke="none" xml:space="preserve" x="2735.86" y="2179.24" font-family="DejaVu Sans" font-size="32" font-weight="400" font-style="normal" 
 >De Mairan's Nebula</text>
</g>

<g fill="none" stroke="#ff8080" stroke-opacity="1" stroke-width="1" stroke-linecap="square" stroke-linejoin="miter" stroke-miterlimit="2" transform="matrix(1,0,0,1,0,0)"
font-family="DejaVu Sans" font-size="32" font-weight="400" font-style="normal" 
>
<text fill="#ff8080" fill-opacity="1" stroke="none" xml:space="preserve" x="6102.47" y="3459.68" font-family="DejaVu Sans" font-size="32" font-weight="400" font-style="normal" 
 >IC430</text>
<text fill="#ff8080" fill-opacity="1" stroke="none" xml:space="preserve" x="5597.66" y="2580.94" font-family="DejaVu Sans" font-size="32" font-weight="400" font-style="normal" 
 >NGC1999</text>
<text fill="#ff8080" fill-opacity="1" stroke="none" xml:space="preserve" x="4124.22" y="2029.59" font-family="DejaVu Sans" font-size="32" font-weight="400" font-style="normal" 
 >NGC1980</text>
<text fill="#ff8080" fill-opacity="1" stroke="none" xml:space="preserve" x="2057.02" y="2032.59" font-family="DejaVu Sans" font-size="32" font-weight="400" font-style="normal" 
 >NGC1977</text>
<text fill="#ff8080" fill-opacity="1" stroke="none" xml:space="preserve" x="1894.36" y="1948.19" font-family="DejaVu Sans" font-size="32" font-weight="400" font-style="normal" 
 >NGC1973</text>
<text fill="#ff8080" fill-opacity="1" stroke="none" xml:space="preserve" x="1806.05" y="2051.3" font-family="DejaVu Sans" font-size="32" font-weight="400" font-style="normal" 
 >NGC1975</text>
<text fill="#ff8080" fill-opacity="1" stroke="none" xml:space="preserve" x="1433.92" y="2092.41" font-family="DejaVu Sans" font-size="32" font-weight="400" font-style="normal" 
 >NGC1981</text>
</g>

<g fill="none" stroke="#00ffff" stroke-opacity="1" stroke-width="1" stroke-linecap="square" stroke-linejoin="miter" stroke-miterlimit="2" transform="matrix(1,0,0,1,0,0)"
font-family="DejaVu Sans" font-size="24" font-weight="400" font-style="normal" 
>
<text fill="#00ffff" fill-opacity="1" stroke="none" xml:space="preserve" x="2631.53" y="2066.19" font-family="DejaVu Sans" font-size="24" font-weight="400" font-style="normal" 
 >PGC3081010</text>
</g>

<g fill="none" stroke="#ffffff" stroke-opacity="1" stroke-width="1" stroke-linecap="square" stroke-linejoin="miter" stroke-miterlimit="2" transform="matrix(1,0,0,1,0,0)"
font-family="DejaVu Sans" font-size="24" font-weight="400" font-style="normal" 
>
<text fill="#ffffff" fill-opacity="1" stroke="none" xml:space="preserve" x="5663.95" y="1008.21" font-family="DejaVu Sans" font-size="24" font-weight="400" font-style="normal" 
 >−6°45′</text>
<text fill="#ffffff" fill-opacity="1" stroke="none" xml:space="preserve" x="4259.17" y="1003.23" font-family="DejaVu Sans" font-size="24" font-weight="400" font-style="normal" 
 >−6°</text>
<text fill="#ffffff" fill-opacity="1" stroke="none" xml:space="preserve" x="2855.88" y="997.617" font-family="DejaVu Sans" font-size="24" font-weight="400" font-style="normal" 
 >−5°15′</text>
<text fill="#ffffff" fill-opacity="1" stroke="none" xml:space="preserve" x="1452.64" y="992.005" font-family="DejaVu Sans" font-size="24" font-weight="400" font-style="normal" 
 >−4°30′</text>
<text fill="#ffffff" fill-opacity="1" stroke="none" xml:space="preserve" x="46.7813" y="986.057" font-family="DejaVu Sans" font-size="24" font-weight="400" font-style="normal" 
 >−3°45′</text>
<text fill="#ffffff" fill-opacity="1" stroke="none" xml:space="preserve" x="4259.17" y="975.232" font-family="DejaVu Sans" font-size="24" font-weight="400" font-style="normal" 
 >5ʰ33ᵐ</text>
<text fill="#ffffff" fill-opacity="1" stroke="none" xml:space="preserve" x="4254.39" y="2370.92" font-family="DejaVu Sans" font-size="24" font-weight="400" font-style="normal" 
 >5ʰ36ᵐ</text>
<text fill="#ffffff" fill-opacity="1" stroke="none" xml:space="preserve" x="4251.86" y="3767.17" font-family="DejaVu Sans" font-size="24" font-weight="400" font-style="normal" 
 >5ʰ39ᵐ</text>
</g>
</g>
</svg>
