<?xml version="1.0" encoding="UTF-8" standalone="no"?>
<svg viewBox="0 0 6155 4065"
 xmlns="http://www.w3.org/2000/svg" xmlns:xlink="http://www.w3.org/1999/xlink" version="1.2" baseProfile="tiny">
<title>PixInsight SVG Document</title>
<desc>Generated with PixInsight Core 1.8.9-3 (x64)</desc>
<defs>
</defs>
<g fill="none" stroke="black" stroke-width="1" fill-rule="evenodd" stroke-linecap="square" stroke-linejoin="bevel" >

<g fill="none" stroke="#000000" stroke-opacity="1" stroke-width="1" stroke-linecap="square" stroke-linejoin="bevel" transform="matrix(1,0,0,1,0,0)"
font-family="SF Pro Text" font-size="12" font-weight="400" font-style="normal" 
>
</g>

<g fill="none" stroke="#ffffff" stroke-opacity="0.501961" stroke-width="1" stroke-linecap="square" stroke-linejoin="miter" stroke-miterlimit="2" transform="matrix(1,0,0,1,0,0)"
font-family="SF Pro Text" font-size="12" font-weight="400" font-style="normal" 
>
<polyline fill="none" vector-effect="none" points="7020.29,-434.855 7018.26,-87.9887 7016.4,258.847 7014.69,605.674 7013.14,952.494 7011.73,1299.29 7010.47,1646.05 7009.34,1992.77 7008.36,2339.44 7007.53,2686.07 7006.84,3032.68 7006.3,3379.3 7005.91,3725.93 7005.66,4072.58 " />
<polyline fill="none" vector-effect="none" points="5614.8,-442.065 5612.85,-94.7929 5611.02,252.437 5609.33,599.667 5607.8,946.904 5606.42,1294.12 5605.2,1641.28 5604.13,1988.39 5603.19,2335.43 5602.39,2682.44 5601.72,3029.42 5601.2,3376.41 5600.81,3723.42 5600.55,4070.47 " />
<polyline fill="none" vector-effect="none" points="4210.09,-449.076 4208.18,-101.364 4206.38,246.293 4204.66,593.903 4203.16,941.47 4201.9,1289 4200.77,1636.49 4199.76,1983.94 4198.86,2331.37 4198.07,2678.78 4197.39,3026.18 4196.8,3373.58 4196.31,3721.02 4195.94,4068.51 " />
<polyline fill="none" vector-effect="none" points="2806.22,-456.027 2804.54,-107.882 2802.93,240.195 2801.39,588.21 2799.97,936.172 2798.66,1284.09 2797.47,1631.97 2796.42,1979.84 2795.5,2327.7 2794.68,2675.57 2793.95,3023.46 2793.28,3371.38 2792.67,3719.31 2792.15,4067.28 " />
<polyline fill="none" vector-effect="none" points="1401.92,-463.071 1400.42,-114.454 1398.98,234.062 1397.61,582.486 1396.29,930.85 1395.05,1279.18 1393.91,1627.48 1392.87,1975.78 1391.94,2324.07 1391.1,2672.36 1390.31,3020.67 1389.61,3368.99 1388.85,3717.33 1388.17,4065.7 " />
<polyline fill="none" vector-effect="none" points="7020.29,-434.855 6650.63,-436.777 6281.07,-438.677 5911.61,-440.561 5542.2,-442.431 5172.83,-444.285 4803.5,-446.128 4434.21,-447.964 4064.95,-449.795 3695.78,-451.623 3326.71,-453.45 2957.68,-455.276 2588.62,-457.106 2219.49,-458.941 1850.26,-460.789 1480.93,-462.664 1111.5,-464.592 741.975,-466.61 372.389,-468.728 2.77677,-470.843 " />
<polyline fill="none" vector-effect="none" points="7013.11,958.83 6643.54,957.347 6274.04,955.872 5904.59,954.411 5535.17,952.964 5165.79,951.527 4796.44,950.097 4427.17,948.676 4058.07,947.266 3689.09,945.867 3320.21,944.477 2951.34,943.095 2582.43,941.715 2213.47,940.334 1844.41,938.941 1475.24,937.522 1105.95,936.06 736.557,934.54 367.053,932.972 -2.50861,931.394 " />
<polyline fill="none" vector-effect="none" points="7008.33,2352.1 6638.8,2351.09 6269.33,2350.07 5899.93,2349 5530.57,2347.9 5161.27,2346.8 4792.03,2345.73 4422.86,2344.68 4053.77,2343.67 3684.74,2342.69 3315.78,2341.74 2946.86,2340.8 2577.97,2339.86 2209.05,2338.92 1840.03,2337.97 1470.88,2337 1101.6,2336.02 732.243,2335.04 362.847,2334.05 -6.59501,2333.06 " />
<polyline fill="none" vector-effect="none" points="7005.89,3744.93 6636.34,3744.32 6266.88,3743.68 5897.53,3743 5528.21,3742.3 5158.89,3741.64 4789.6,3741.01 4420.36,3740.4 4051.19,3739.85 3682.09,3739.36 3313.06,3738.94 2944.07,3738.54 2575.08,3738.15 2206.07,3737.73 1836.98,3737.23 1467.79,3736.57 1098.47,3735.91 729.124,3735.42 359.823,3735.14 -9.51617,3734.72 " />
</g>

<g fill="none" stroke="#8080ff" stroke-opacity="1" stroke-width="1" stroke-linecap="square" stroke-linejoin="miter" stroke-miterlimit="2" transform="matrix(1,0,0,1,0,0)"
font-family="DejaVu Sans" font-size="64" font-weight="400" font-style="normal" 
>
<ellipse cx="3058.25" cy="2005.69" rx="1029.4" ry="1029.4"/>
<ellipse cx="2833.46" cy="2115.31" rx="311.94" ry="311.94"/>
</g>

<g fill="none" stroke="#ff8080" stroke-opacity="1" stroke-width="1" stroke-linecap="square" stroke-linejoin="miter" stroke-miterlimit="2" transform="matrix(1,0,0,1,0,0)"
font-family="DejaVu Sans" font-size="64" font-weight="400" font-style="normal" 
>
<circle cx="6145.46" cy="3420.08" r="171.567"/>
<ellipse cx="5530.9" cy="2541.57" rx="249.552" ry="249.552"/>
<circle cx="4057.5" cy="1989.97" r="218.358"/>
<circle cx="1989.98" cy="1993.32" r="233.955"/>
<circle cx="1827.13" cy="1908.91" r="77.9851"/>
<ellipse cx="1738.61" cy="2012.02" rx="155.97" ry="155.97"/>
<circle cx="1366.44" cy="2053.08" r="389.926"/>
</g>

<g fill="none" stroke="#00ffff" stroke-opacity="1" stroke-width="1" stroke-linecap="square" stroke-linejoin="miter" stroke-miterlimit="2" transform="matrix(1,0,0,1,0,0)"
font-family="DejaVu Sans" font-size="64" font-weight="400" font-style="normal" 
>
</g>

<g fill="none" stroke="#00ffff" stroke-opacity="1" stroke-width="1" stroke-linecap="square" stroke-linejoin="miter" stroke-miterlimit="2" transform="matrix(0.613293,0.789855,-0.789855,0.613293,2740.67,2029.63)"
font-family="DejaVu Sans" font-size="64" font-weight="400" font-style="normal" 
>
<ellipse cx="0" cy="0" rx="17.5001" ry="5.92982"/>
</g>

<g fill="none" stroke="#00ffff" stroke-opacity="1" stroke-width="1" stroke-linecap="square" stroke-linejoin="miter" stroke-miterlimit="2" transform="matrix(1,0,0,1,0,0)"
font-family="DejaVu Sans" font-size="64" font-weight="400" font-style="normal" 
>
</g>

<g fill="none" stroke="#ffd700" stroke-opacity="1" stroke-width="1" stroke-linecap="square" stroke-linejoin="miter" stroke-miterlimit="2" transform="matrix(1,0,0,1,0,0)"
font-family="DejaVu Sans" font-size="64" font-weight="400" font-style="normal" 
>
<polyline fill="none" vector-effect="none" points="4020.87,2079.73 4025.87,2079.73 " />
<polyline fill="none" vector-effect="none" points="4040.87,2079.73 4035.87,2079.73 " />
<polyline fill="none" vector-effect="none" points="4030.87,2089.73 4030.87,2084.73 " />
<polyline fill="none" vector-effect="none" points="4030.87,2069.73 4030.87,2074.73 " />
<polyline fill="none" vector-effect="none" points="3096.88,2053.19 3101.88,2053.19 " />
<polyline fill="none" vector-effect="none" points="3116.88,2053.19 3111.88,2053.19 " />
<polyline fill="none" vector-effect="none" points="3106.88,2063.19 3106.88,2058.19 " />
<polyline fill="none" vector-effect="none" points="3106.88,2043.19 3106.88,2048.19 " />
<polyline fill="none" vector-effect="none" points="3043.25,1998.1 3048.25,1998.1 " />
<polyline fill="none" vector-effect="none" points="3063.25,1998.1 3058.25,1998.1 " />
<polyline fill="none" vector-effect="none" points="3053.25,2008.1 3053.25,2003.1 " />
<polyline fill="none" vector-effect="none" points="3053.25,1988.1 3053.25,1993.1 " />
<polyline fill="none" vector-effect="none" points="3039.32,2000.49 3044.32,2000.49 " />
<polyline fill="none" vector-effect="none" points="3059.32,2000.49 3054.32,2000.49 " />
<polyline fill="none" vector-effect="none" points="3049.32,2010.49 3049.32,2005.49 " />
<polyline fill="none" vector-effect="none" points="3049.32,1990.49 3049.32,1995.49 " />
<polyline fill="none" vector-effect="none" points="2048.85,2179.11 2053.85,2179.11 " />
<polyline fill="none" vector-effect="none" points="2068.85,2179.11 2063.85,2179.11 " />
<polyline fill="none" vector-effect="none" points="2058.85,2189.11 2058.85,2184.11 " />
<polyline fill="none" vector-effect="none" points="2058.85,2169.11 2058.85,2174.11 " />
<polyline fill="none" vector-effect="none" points="2016.03,2052.2 2021.03,2052.2 " />
<polyline fill="none" vector-effect="none" points="2036.03,2052.2 2031.03,2052.2 " />
<polyline fill="none" vector-effect="none" points="2026.03,2062.2 2026.03,2057.2 " />
<polyline fill="none" vector-effect="none" points="2026.03,2042.2 2026.03,2047.2 " />
<polyline fill="none" vector-effect="none" points="3047.7,2003.09 3052.7,2003.09 " />
<polyline fill="none" vector-effect="none" points="3067.7,2003.09 3062.7,2003.09 " />
<polyline fill="none" vector-effect="none" points="3057.7,2013.09 3057.7,2008.09 " />
<polyline fill="none" vector-effect="none" points="3057.7,1993.09 3057.7,1998.09 " />
</g>

<g fill="none" stroke="#ffd700" stroke-opacity="1" stroke-width="1" stroke-linecap="square" stroke-linejoin="miter" stroke-miterlimit="2" transform="matrix(1,0,0,1,0,0)"
font-family="DejaVu Sans" font-size="28" font-weight="400" font-style="normal" 
>
<text fill="#ffd700" fill-opacity="1" stroke="none" xml:space="preserve" x="3979.86" y="2068.73" font-family="DejaVu Sans" font-size="28" font-weight="400" font-style="normal" 
 >44 ι </text>
<text fill="#ffd700" fill-opacity="1" stroke="none" xml:space="preserve" x="4042.73" y="2068.73" font-family="DejaVu Sans" font-size="28" font-weight="400" font-style="normal" 
 >Ori</text>
<text fill="#ffd700" fill-opacity="1" stroke="none" xml:space="preserve" x="3983.86" y="2117.73" font-family="DejaVu Sans" font-size="28" font-weight="400" font-style="normal" 
 >Hatysa</text>
<text fill="#ffd700" fill-opacity="1" stroke="none" xml:space="preserve" x="3046.38" y="2087.19" font-family="DejaVu Sans" font-size="28" font-weight="400" font-style="normal" 
 >43 θ² </text>
<text fill="#ffd700" fill-opacity="1" stroke="none" xml:space="preserve" x="3128.13" y="2087.19" font-family="DejaVu Sans" font-size="28" font-weight="400" font-style="normal" 
 >Ori</text>
<text fill="#ffd700" fill-opacity="1" stroke="none" xml:space="preserve" x="2977.73" y="1987.1" font-family="DejaVu Sans" font-size="28" font-weight="400" font-style="normal" 
 >41 θ¹ </text>
<text fill="#ffd700" fill-opacity="1" stroke="none" xml:space="preserve" x="3059.48" y="1987.1" font-family="DejaVu Sans" font-size="28" font-weight="400" font-style="normal" 
 >Ori A</text>
<text fill="#ffd700" fill-opacity="1" stroke="none" xml:space="preserve" x="2888.31" y="2022.99" font-family="DejaVu Sans" font-size="28" font-weight="400" font-style="normal" 
 >41 θ¹ </text>
<text fill="#ffd700" fill-opacity="1" stroke="none" xml:space="preserve" x="2970.06" y="2022.99" font-family="DejaVu Sans" font-size="28" font-weight="400" font-style="normal" 
 >Ori B</text>
<text fill="#ffd700" fill-opacity="1" stroke="none" xml:space="preserve" x="2069.84" y="2190.61" font-family="DejaVu Sans" font-size="28" font-weight="400" font-style="normal" 
 >45 Ori</text>
<text fill="#ffd700" fill-opacity="1" stroke="none" xml:space="preserve" x="2037.03" y="2063.7" font-family="DejaVu Sans" font-size="28" font-weight="400" font-style="normal" 
 >42 c Ori</text>
<text fill="#ffd700" fill-opacity="1" stroke="none" xml:space="preserve" x="3068.69" y="2025.59" font-family="DejaVu Sans" font-size="28" font-weight="400" font-style="normal" 
 >41 θ¹ </text>
<text fill="#ffd700" fill-opacity="1" stroke="none" xml:space="preserve" x="3150.44" y="2025.59" font-family="DejaVu Sans" font-size="28" font-weight="400" font-style="normal" 
 >Ori C</text>
</g>

<g fill="none" stroke="#8080ff" stroke-opacity="1" stroke-width="1" stroke-linecap="square" stroke-linejoin="miter" stroke-miterlimit="2" transform="matrix(1,0,0,1,0,0)"
font-family="DejaVu Sans" font-size="32" font-weight="400" font-style="normal" 
>
<text fill="#8080ff" fill-opacity="1" stroke="none" xml:space="preserve" x="2801.95" y="2104.31" font-family="DejaVu Sans" font-size="32" font-weight="400" font-style="normal" 
 >M43</text>
<text fill="#8080ff" fill-opacity="1" stroke="none" xml:space="preserve" x="2679.95" y="2152.31" font-family="DejaVu Sans" font-size="32" font-weight="400" font-style="normal" 
 >De Mairan's Nebula</text>
</g>

<g fill="none" stroke="#ff8080" stroke-opacity="1" stroke-width="1" stroke-linecap="square" stroke-linejoin="miter" stroke-miterlimit="2" transform="matrix(1,0,0,1,0,0)"
font-family="DejaVu Sans" font-size="32" font-weight="400" font-style="normal" 
>
<text fill="#ff8080" fill-opacity="1" stroke="none" xml:space="preserve" x="6045.45" y="3432.58" font-family="DejaVu Sans" font-size="32" font-weight="400" font-style="normal" 
 >IC430</text>
<text fill="#ff8080" fill-opacity="1" stroke="none" xml:space="preserve" x="5541.89" y="2554.07" font-family="DejaVu Sans" font-size="32" font-weight="400" font-style="normal" 
 >NGC1999</text>
<text fill="#ff8080" fill-opacity="1" stroke="none" xml:space="preserve" x="4068.5" y="2002.47" font-family="DejaVu Sans" font-size="32" font-weight="400" font-style="normal" 
 >NGC1980</text>
<text fill="#ff8080" fill-opacity="1" stroke="none" xml:space="preserve" x="2000.97" y="2005.82" font-family="DejaVu Sans" font-size="32" font-weight="400" font-style="normal" 
 >NGC1977</text>
<text fill="#ff8080" fill-opacity="1" stroke="none" xml:space="preserve" x="1838.13" y="1921.41" font-family="DejaVu Sans" font-size="32" font-weight="400" font-style="normal" 
 >NGC1973</text>
<text fill="#ff8080" fill-opacity="1" stroke="none" xml:space="preserve" x="1749.59" y="2024.52" font-family="DejaVu Sans" font-size="32" font-weight="400" font-style="normal" 
 >NGC1975</text>
<text fill="#ff8080" fill-opacity="1" stroke="none" xml:space="preserve" x="1377.44" y="2065.58" font-family="DejaVu Sans" font-size="32" font-weight="400" font-style="normal" 
 >NGC1981</text>
</g>

<g fill="none" stroke="#00ffff" stroke-opacity="1" stroke-width="1" stroke-linecap="square" stroke-linejoin="miter" stroke-miterlimit="2" transform="matrix(1,0,0,1,0,0)"
font-family="DejaVu Sans" font-size="24" font-weight="400" font-style="normal" 
>
<text fill="#00ffff" fill-opacity="1" stroke="none" xml:space="preserve" x="2575.67" y="2039.13" font-family="DejaVu Sans" font-size="24" font-weight="400" font-style="normal" 
 >PGC3081010</text>
</g>

<g fill="none" stroke="#ffffff" stroke-opacity="1" stroke-width="1" stroke-linecap="square" stroke-linejoin="miter" stroke-miterlimit="2" transform="matrix(1,0,0,1,0,0)"
font-family="DejaVu Sans" font-size="24" font-weight="400" font-style="normal" 
>
<text fill="#ffffff" fill-opacity="1" stroke="none" xml:space="preserve" x="5607.77" y="981.248" font-family="DejaVu Sans" font-size="24" font-weight="400" font-style="normal" 
 >−6°45′</text>
<text fill="#ffffff" fill-opacity="1" stroke="none" xml:space="preserve" x="4203.13" y="975.819" font-family="DejaVu Sans" font-size="24" font-weight="400" font-style="normal" 
 >−6°</text>
<text fill="#ffffff" fill-opacity="1" stroke="none" xml:space="preserve" x="2799.94" y="970.528" font-family="DejaVu Sans" font-size="24" font-weight="400" font-style="normal" 
 >−5°15′</text>
<text fill="#ffffff" fill-opacity="1" stroke="none" xml:space="preserve" x="1396.27" y="965.214" font-family="DejaVu Sans" font-size="24" font-weight="400" font-style="normal" 
 >−4°30′</text>
<text fill="#ffffff" fill-opacity="1" stroke="none" xml:space="preserve" x="4203.13" y="947.819" font-family="DejaVu Sans" font-size="24" font-weight="400" font-style="normal" 
 >5ʰ33ᵐ</text>
<text fill="#ffffff" fill-opacity="1" stroke="none" xml:space="preserve" x="4198.83" y="2344.06" font-family="DejaVu Sans" font-size="24" font-weight="400" font-style="normal" 
 >5ʰ36ᵐ</text>
<text fill="#ffffff" fill-opacity="1" stroke="none" xml:space="preserve" x="4196.28" y="3740.06" font-family="DejaVu Sans" font-size="24" font-weight="400" font-style="normal" 
 >5ʰ39ᵐ</text>
</g>
</g>
</svg>
